M48
; DRILL file KiCad 10.0.0 date 2026-07-20T10:32:38
; FORMAT={-:-/ absolute / metric / decimal}
; #@! TF.CreationDate,2026-07-20T10:32:38-05:00
; #@! TF.GenerationSoftware,Kicad,Pcbnew,10.0.0
; #@! TF.FileFunction,Plated,1,4,PTH
FMAT,2
METRIC
; #@! TA.AperFunction,Plated,PTH,ViaDrill
T1C0.200
; #@! TA.AperFunction,Plated,PTH,ViaDrill
T2C0.300
%
G90
G05
T1
X58.95Y-54.0
X59.475Y-54.025
X109.625Y-53.975
X110.6Y-54.0
X134.325Y-67.449
X135.4Y-67.425
X160.075Y-54.0
X161.05Y-54.025
X210.775Y-54.0
X211.75Y-54.025
T2
X34.89Y-36.593
X35.89Y-36.593
X36.89Y-36.593
X37.89Y-36.593
X39.64Y-36.682
X39.64Y-37.682
X39.64Y-38.682
X39.64Y-39.682
X39.64Y-40.682
X40.32Y-42.228
X41.027Y-42.935
X41.64Y-36.682
X41.64Y-37.682
X41.64Y-38.682
X41.64Y-39.682
X41.734Y-40.814
X41.734Y-43.642
X42.441Y-41.521
X42.441Y-44.35
X42.89Y-36.593
X43.148Y-42.228
X43.148Y-45.057
X43.856Y-42.935
X43.856Y-45.764
X43.89Y-36.593
X44.563Y-43.642
X44.563Y-46.471
X44.89Y-36.593
X45.27Y-44.35
X45.27Y-47.178
X45.89Y-36.593
X45.977Y-45.057
X45.977Y-47.885
X46.684Y-45.764
X46.684Y-48.592
X47.391Y-46.471
X47.391Y-49.299
X47.59Y-36.593
X48.098Y-47.178
X48.098Y-50.006
X48.59Y-36.593
X48.805Y-47.885
X48.805Y-50.714
X49.512Y-48.592
X49.512Y-51.421
X49.59Y-36.593
X50.22Y-49.299
X50.22Y-52.128
X50.59Y-36.593
X50.9Y-52.875
X50.927Y-50.006
X51.575Y-53.55
X51.658Y-45.036
X51.658Y-46.894
X51.669Y-48.761
X51.723Y-43.448
X52.34Y-36.85
X52.34Y-37.85
X52.34Y-38.85
X52.34Y-39.85
X52.34Y-40.85
X52.34Y-41.85
X52.34Y-50.378
X52.341Y-51.421
X52.341Y-54.249
X53.017Y-51.926
X53.048Y-54.956
X53.755Y-55.663
X54.34Y-36.85
X54.34Y-37.85
X54.34Y-38.85
X54.34Y-39.85
X54.34Y-40.85
X54.34Y-41.85
X54.462Y-53.542
X55.013Y-44.219
X55.022Y-45.965
X55.022Y-47.823
X55.59Y-36.593
X56.59Y-36.593
X57.025Y-52.3
X57.59Y-36.593
X58.275Y-52.025
X58.59Y-36.593
X59.25Y-52.075
X60.154Y-61.062
X60.29Y-36.593
X60.861Y-61.769
X61.29Y-36.593
X61.568Y-62.476
X62.275Y-63.183
X62.29Y-36.593
X62.45Y-52.325
X62.982Y-61.062
X62.982Y-63.89
X63.29Y-36.593
X63.689Y-61.769
X63.689Y-64.597
X64.342Y-49.705
X64.396Y-65.304
X64.425Y-62.475
X64.629Y-48.436
X64.692Y-44.388
X64.766Y-58.598
X64.806Y-51.989
X65.04Y-36.534
X65.04Y-37.534
X65.04Y-38.534
X65.04Y-39.534
X65.04Y-40.534
X65.04Y-41.534
X65.04Y-42.534
X65.04Y-43.534
X65.103Y-63.183
X65.103Y-66.012
X65.242Y-50.614
X65.279Y-57.013
X65.619Y-53.975
X65.81Y-63.89
X65.81Y-66.719
X66.101Y-56.727
X66.518Y-64.597
X66.518Y-67.426
X66.809Y-53.191
X66.809Y-56.02
X67.04Y-36.534
X67.04Y-37.534
X67.04Y-38.534
X67.04Y-39.534
X67.04Y-40.534
X67.04Y-41.534
X67.04Y-42.534
X67.04Y-52.131
X67.225Y-65.304
X67.225Y-68.133
X67.516Y-55.313
X67.597Y-43.702
X67.649Y-49.092
X67.735Y-50.528
X67.932Y-66.012
X67.932Y-68.84
X68.223Y-51.777
X68.223Y-54.605
X68.29Y-36.593
X68.639Y-66.719
X68.639Y-69.547
X68.93Y-51.07
X68.93Y-53.898
X69.29Y-36.593
X69.346Y-67.426
X69.346Y-70.254
X69.637Y-50.363
X69.637Y-53.191
X70.053Y-68.133
X70.053Y-70.961
X70.29Y-36.593
X70.344Y-49.656
X70.344Y-52.484
X70.76Y-68.84
X71.051Y-48.949
X71.051Y-51.777
X71.29Y-36.593
X71.7Y-69.4
X71.7Y-71.4
X71.758Y-48.242
X71.758Y-51.07
X72.465Y-47.534
X72.465Y-50.363
X72.7Y-69.4
X72.7Y-71.4
X72.99Y-36.593
X73.172Y-49.656
X73.7Y-69.4
X73.7Y-71.4
X73.88Y-48.949
X73.967Y-46.033
X73.99Y-36.593
X74.674Y-45.326
X74.7Y-69.4
X74.7Y-71.4
X74.99Y-36.593
X75.381Y-44.619
X75.381Y-47.447
X75.7Y-69.4
X75.7Y-71.4
X75.99Y-36.593
X76.088Y-43.911
X76.088Y-46.74
X76.7Y-69.4
X76.7Y-71.4
X76.795Y-43.204
X76.795Y-46.033
X77.503Y-42.497
X77.503Y-45.326
X77.7Y-69.4
X77.7Y-71.4
X77.74Y-36.483
X77.74Y-37.483
X77.74Y-38.483
X77.74Y-39.483
X77.74Y-40.483
X77.74Y-41.483
X78.21Y-44.619
X78.7Y-69.4
X78.7Y-71.4
X78.917Y-43.911
X79.7Y-69.4
X79.7Y-71.4
X79.74Y-36.483
X79.74Y-37.483
X79.74Y-38.483
X79.74Y-39.483
X79.74Y-40.483
X79.74Y-41.483
X79.74Y-42.483
X80.7Y-69.4
X80.7Y-71.4
X80.99Y-36.593
X81.7Y-69.4
X81.7Y-71.4
X81.99Y-36.593
X82.7Y-69.4
X82.7Y-71.4
X82.99Y-36.593
X83.7Y-69.4
X83.7Y-71.4
X83.99Y-36.593
X84.7Y-69.4
X84.7Y-71.4
X85.69Y-36.593
X85.7Y-69.4
X85.7Y-71.4
X86.69Y-36.593
X86.7Y-69.4
X86.7Y-71.4
X87.69Y-36.593
X87.7Y-69.4
X87.7Y-71.4
X88.69Y-36.593
X88.7Y-69.4
X88.7Y-71.4
X89.69Y-36.593
X89.7Y-69.4
X89.7Y-71.4
X90.44Y-37.096
X90.44Y-38.096
X90.44Y-39.096
X90.44Y-40.096
X90.44Y-41.096
X90.7Y-69.4
X90.7Y-71.4
X91.371Y-42.539
X91.7Y-69.4
X91.7Y-71.4
X92.078Y-43.246
X92.44Y-37.096
X92.44Y-38.096
X92.44Y-39.096
X92.44Y-40.096
X92.7Y-69.4
X92.7Y-71.4
X92.785Y-41.125
X92.785Y-43.953
X93.492Y-41.832
X93.492Y-44.661
X93.69Y-36.593
X93.7Y-69.4
X93.7Y-71.4
X94.199Y-42.539
X94.199Y-45.368
X94.69Y-36.593
X94.7Y-69.4
X94.7Y-71.4
X94.907Y-43.246
X94.907Y-46.075
X95.614Y-43.953
X95.614Y-46.782
X95.69Y-36.593
X95.7Y-69.4
X95.7Y-71.4
X96.321Y-44.661
X96.321Y-47.489
X96.69Y-36.593
X96.7Y-69.4
X96.7Y-71.4
X97.028Y-45.368
X97.028Y-48.196
X97.7Y-69.4
X97.7Y-71.4
X97.735Y-46.075
X97.735Y-48.903
X98.442Y-46.782
X98.442Y-49.61
X98.45Y-36.652
X98.7Y-69.4
X98.7Y-71.4
X99.149Y-47.489
X99.149Y-50.317
X99.45Y-36.652
X99.7Y-69.4
X99.7Y-71.4
X99.856Y-48.196
X99.856Y-51.024
X100.45Y-36.652
X100.563Y-48.903
X100.563Y-51.732
X100.7Y-69.4
X100.7Y-71.4
X101.27Y-49.61
X101.27Y-52.439
X101.45Y-36.652
X101.7Y-69.4
X101.7Y-71.4
X101.978Y-53.146
X102.45Y-36.652
X102.511Y-48.107
X102.521Y-50.195
X102.614Y-46.749
X102.685Y-53.853
X102.7Y-69.4
X102.7Y-71.4
X102.987Y-45.26
X103.2Y-36.995
X103.2Y-37.995
X103.2Y-38.995
X103.2Y-39.995
X103.2Y-40.995
X103.261Y-51.23
X103.285Y-42.706
X103.392Y-54.56
X103.7Y-69.4
X103.7Y-71.4
X104.096Y-52.265
X104.099Y-55.267
X104.7Y-69.4
X104.7Y-71.4
X104.806Y-53.146
X105.2Y-36.995
X105.2Y-37.995
X105.2Y-38.995
X105.2Y-39.995
X105.2Y-40.995
X105.356Y-41.857
X105.429Y-57.551
X105.63Y-46.027
X105.7Y-69.4
X105.7Y-71.4
X106.45Y-36.652
X106.7Y-69.4
X106.7Y-71.4
X107.45Y-36.652
X107.65Y-52.25
X107.7Y-69.4
X107.7Y-71.4
X108.45Y-36.652
X108.7Y-69.4
X108.7Y-71.4
X108.908Y-62.758
X108.979Y-60.828
X109.15Y-52.3
X109.45Y-36.652
X109.615Y-64.915
X109.7Y-69.4
X109.7Y-71.4
X110.163Y-66.908
X110.225Y-52.325
X110.7Y-69.4
X110.7Y-71.4
X111.09Y-36.593
X111.674Y-68.162
X111.7Y-69.4
X111.7Y-71.4
X111.853Y-64.731
X112.09Y-36.593
X112.141Y-63.926
X112.383Y-61.902
X112.7Y-69.4
X112.7Y-71.4
X113.09Y-36.593
X113.15Y-52.225
X113.17Y-64.987
X113.585Y-66.4
X113.7Y-69.4
X113.7Y-71.4
X113.917Y-68.43
X114.09Y-36.593
X114.414Y-55.898
X114.7Y-69.4
X114.7Y-71.4
X114.907Y-65.896
X115.09Y-36.593
X115.141Y-47.58
X115.141Y-49.384
X115.336Y-46.284
X115.435Y-58.662
X115.7Y-71.4
X115.84Y-36.262
X115.84Y-37.262
X115.84Y-38.262
X115.84Y-39.262
X115.84Y-40.262
X115.84Y-41.262
X115.84Y-42.262
X115.84Y-43.262
X115.947Y-52.181
X116.077Y-69.132
X116.504Y-54.236
X116.7Y-71.4
X116.928Y-65.657
X117.211Y-56.358
X117.321Y-53.293
X117.678Y-43.028
X117.7Y-71.4
X117.84Y-36.262
X117.84Y-37.262
X117.84Y-38.262
X117.84Y-39.262
X117.84Y-40.262
X117.84Y-41.262
X117.84Y-51.68
X117.918Y-55.65
X118.007Y-69.059
X118.119Y-45.558
X118.492Y-46.938
X118.531Y-50.412
X118.539Y-48.482
X118.625Y-52.115
X118.625Y-54.943
X118.7Y-71.4
X119.09Y-36.593
X119.332Y-51.408
X119.332Y-54.236
X119.7Y-69.4
X119.7Y-71.4
X120.039Y-50.701
X120.039Y-53.529
X120.09Y-36.593
X120.678Y-69.089
X120.7Y-71.4
X120.746Y-49.994
X120.746Y-52.822
X121.09Y-36.593
X121.453Y-49.287
X121.453Y-52.115
X121.689Y-65.657
X121.7Y-69.4
X121.7Y-71.4
X122.09Y-36.593
X122.16Y-48.579
X122.16Y-51.408
X122.612Y-69.117
X122.7Y-71.4
X122.867Y-47.872
X122.867Y-50.701
X123.575Y-47.165
X123.575Y-49.994
X123.7Y-69.4
X123.7Y-71.4
X123.763Y-65.953
X123.85Y-36.652
X124.282Y-46.458
X124.282Y-49.287
X124.7Y-71.4
X124.85Y-36.652
X124.989Y-45.751
X124.989Y-48.579
X125.29Y-69.014
X125.696Y-45.044
X125.696Y-47.872
X125.7Y-71.4
X125.85Y-36.652
X126.403Y-44.337
X126.403Y-47.165
X126.449Y-65.657
X126.7Y-71.4
X126.85Y-36.652
X127.11Y-43.63
X127.11Y-46.458
X127.211Y-69.142
X127.7Y-71.4
X127.817Y-42.923
X127.817Y-45.751
X127.85Y-36.652
X128.524Y-42.215
X128.524Y-45.044
X128.6Y-37.075
X128.6Y-38.075
X128.6Y-39.075
X128.6Y-40.075
X128.6Y-41.075
X128.7Y-69.4
X128.7Y-71.4
X128.849Y-65.657
X129.231Y-44.337
X129.611Y-69.142
X129.7Y-71.4
X129.939Y-43.63
X130.525Y-61.325
X130.575Y-64.475
X130.6Y-37.075
X130.6Y-38.075
X130.6Y-39.075
X130.6Y-40.075
X130.6Y-41.075
X130.6Y-42.075
X130.65Y-62.9
X130.7Y-71.4
X131.121Y-68.914
X131.85Y-36.652
X132.85Y-36.652
X133.125Y-65.475
X133.85Y-36.652
X134.44Y-65.6
X134.85Y-36.652
X135.325Y-65.65
X136.49Y-36.593
X136.9Y-65.35
X137.49Y-36.593
X137.7Y-65.35
X138.49Y-36.593
X138.625Y-65.5
X139.49Y-36.593
X139.64Y-70.4
X140.64Y-70.4
X140.64Y-72.4
X141.24Y-36.661
X141.24Y-37.661
X141.24Y-38.661
X141.24Y-39.661
X141.24Y-40.661
X141.24Y-66.826
X141.64Y-70.4
X141.64Y-72.4
X141.792Y-42.26
X142.437Y-70.142
X142.499Y-42.967
X142.64Y-72.4
X143.181Y-66.658
X143.206Y-40.846
X143.206Y-43.675
X143.24Y-36.661
X143.24Y-37.661
X143.24Y-38.661
X143.24Y-39.661
X143.64Y-70.4
X143.64Y-72.4
X143.825Y-62.125
X143.85Y-63.675
X143.875Y-65.25
X143.913Y-41.553
X143.913Y-44.382
X144.367Y-69.997
X144.49Y-36.593
X144.621Y-42.26
X144.621Y-45.089
X144.64Y-72.4
X145.328Y-42.967
X145.328Y-45.796
X145.49Y-36.593
X145.64Y-70.4
X145.64Y-72.4
X146.035Y-43.675
X146.035Y-46.503
X146.49Y-36.593
X146.575Y-69.933
X146.64Y-72.4
X146.742Y-44.382
X146.742Y-47.21
X147.449Y-45.089
X147.449Y-47.917
X147.49Y-36.593
X147.64Y-70.4
X147.64Y-72.4
X147.76Y-66.662
X148.156Y-45.796
X148.156Y-48.624
X148.566Y-70.142
X148.64Y-72.4
X148.863Y-46.503
X148.863Y-49.331
X149.19Y-36.593
X149.57Y-47.21
X149.57Y-50.038
X149.628Y-66.833
X149.64Y-70.4
X149.64Y-72.4
X150.19Y-36.593
X150.277Y-47.917
X150.277Y-50.746
X150.64Y-72.4
X150.824Y-70.142
X150.984Y-48.624
X150.984Y-51.453
X151.19Y-36.593
X151.578Y-66.658
X151.64Y-70.4
X151.64Y-72.4
X151.692Y-49.331
X151.692Y-52.16
X152.19Y-36.593
X152.399Y-50.038
X152.399Y-52.867
X152.64Y-72.4
X152.755Y-70.003
X153.106Y-50.746
X153.106Y-53.574
X153.254Y-45.17
X153.254Y-47.015
X153.309Y-43.607
X153.64Y-70.4
X153.64Y-72.4
X153.794Y-50.334
X153.813Y-51.453
X153.813Y-54.281
X153.94Y-36.78
X153.94Y-37.78
X153.94Y-38.78
X153.94Y-39.78
X153.94Y-40.78
X154.304Y-66.919
X154.469Y-51.937
X154.52Y-54.988
X154.64Y-70.4
X154.64Y-72.4
X155.227Y-55.695
X155.473Y-70.127
X155.64Y-72.4
X155.658Y-53.262
X155.94Y-36.78
X155.94Y-37.78
X155.94Y-38.78
X155.94Y-39.78
X155.94Y-40.78
X156.349Y-66.658
X156.463Y-42.852
X156.623Y-44.309
X156.64Y-70.4
X156.64Y-72.4
X157.19Y-36.593
X157.64Y-70.4
X157.64Y-72.4
X158.15Y-52.175
X158.153Y-65.773
X158.19Y-36.593
X158.475Y-68.999
X158.64Y-70.4
X158.64Y-72.4
X159.19Y-36.593
X159.414Y-64.182
X159.635Y-61.379
X159.64Y-70.4
X159.64Y-72.4
X159.648Y-63.326
X159.7Y-52.125
X160.19Y-36.593
X160.343Y-60.426
X160.64Y-70.4
X160.64Y-72.4
X161.25Y-52.1
X161.28Y-67.232
X161.541Y-65.905
X161.64Y-70.4
X161.64Y-72.4
X161.89Y-36.593
X162.64Y-70.4
X162.64Y-72.4
X162.724Y-64.461
X162.761Y-60.231
X162.89Y-36.593
X163.085Y-62.332
X163.64Y-70.4
X163.64Y-72.4
X163.825Y-52.275
X163.89Y-36.593
X164.64Y-70.4
X164.64Y-72.4
X164.89Y-36.593
X165.197Y-56.123
X165.64Y-70.4
X165.64Y-72.4
X165.89Y-36.593
X165.942Y-49.251
X165.942Y-47.452
X166.149Y-46.157
X166.585Y-58.184
X166.64Y-37.119
X166.64Y-38.119
X166.64Y-39.119
X166.64Y-40.119
X166.64Y-41.119
X166.64Y-42.119
X166.64Y-43.119
X166.64Y-70.4
X166.64Y-72.4
X166.651Y-52.189
X167.36Y-54.08
X167.64Y-70.4
X167.64Y-72.4
X168.067Y-53.373
X168.067Y-56.201
X168.491Y-42.888
X168.64Y-37.119
X168.64Y-38.119
X168.64Y-39.119
X168.64Y-40.119
X168.64Y-41.119
X168.64Y-51.767
X168.64Y-70.4
X168.64Y-72.4
X168.774Y-52.666
X168.774Y-55.494
X168.907Y-45.423
X169.284Y-46.819
X169.33Y-50.161
X169.338Y-48.347
X169.481Y-51.959
X169.481Y-54.787
X169.64Y-70.4
X169.64Y-72.4
X169.89Y-36.593
X170.188Y-51.252
X170.188Y-54.08
X170.64Y-70.4
X170.64Y-72.4
X170.89Y-36.593
X170.895Y-50.545
X170.895Y-53.373
X171.602Y-49.837
X171.602Y-52.666
X171.64Y-70.4
X171.64Y-72.4
X171.89Y-36.593
X172.309Y-49.13
X172.309Y-51.959
X172.64Y-70.4
X172.64Y-72.4
X172.89Y-36.593
X173.017Y-48.423
X173.017Y-51.252
X173.64Y-70.4
X173.64Y-72.4
X173.724Y-47.716
X173.724Y-50.545
X174.431Y-47.009
X174.431Y-49.837
X174.59Y-36.593
X174.64Y-70.4
X174.64Y-72.4
X175.138Y-46.302
X175.138Y-49.13
X175.59Y-36.593
X175.64Y-70.4
X175.64Y-72.4
X175.845Y-45.595
X175.845Y-48.423
X176.552Y-44.888
X176.552Y-47.716
X176.59Y-36.593
X176.64Y-70.4
X176.64Y-72.4
X177.259Y-44.181
X177.259Y-47.009
X177.59Y-36.593
X177.64Y-70.4
X177.64Y-72.4
X177.966Y-43.473
X177.966Y-46.302
X178.64Y-70.4
X178.64Y-72.4
X178.673Y-42.766
X178.673Y-45.595
X179.34Y-36.871
X179.34Y-37.871
X179.34Y-38.871
X179.34Y-39.871
X179.34Y-40.871
X179.381Y-42.059
X179.381Y-44.888
X179.64Y-70.4
X179.64Y-72.4
X180.088Y-44.181
X180.64Y-70.4
X180.64Y-72.4
X180.795Y-43.473
X181.34Y-36.871
X181.34Y-37.871
X181.34Y-38.871
X181.34Y-39.871
X181.34Y-40.871
X181.34Y-41.871
X181.64Y-70.4
X181.64Y-72.4
X182.59Y-36.593
X182.64Y-70.4
X182.64Y-72.4
X183.59Y-36.593
X183.64Y-70.4
X183.64Y-72.4
X184.59Y-36.593
X184.64Y-70.4
X184.64Y-72.4
X185.59Y-36.593
X185.64Y-70.4
X185.64Y-72.4
X186.64Y-70.4
X186.64Y-72.4
X187.29Y-36.593
X187.64Y-70.4
X187.64Y-72.4
X188.29Y-36.593
X188.64Y-70.4
X188.64Y-72.4
X189.29Y-36.593
X189.64Y-70.4
X189.64Y-72.4
X190.29Y-36.593
X190.64Y-70.4
X190.64Y-72.4
X191.64Y-70.4
X191.64Y-72.4
X192.04Y-36.574
X192.04Y-37.574
X192.04Y-38.574
X192.04Y-39.574
X192.04Y-40.574
X192.04Y-41.574
X192.04Y-42.574
X192.04Y-43.574
X192.64Y-70.4
X192.64Y-72.4
X192.743Y-45.111
X193.45Y-45.818
X193.64Y-70.4
X193.64Y-72.4
X194.04Y-36.574
X194.04Y-37.574
X194.04Y-38.574
X194.04Y-39.574
X194.04Y-40.574
X194.04Y-41.574
X194.04Y-42.574
X194.157Y-43.697
X194.157Y-46.525
X194.64Y-70.4
X194.64Y-72.4
X194.864Y-44.404
X194.864Y-47.232
X195.29Y-36.593
X195.571Y-45.111
X195.571Y-47.939
X195.64Y-70.4
X195.64Y-72.4
X196.278Y-45.818
X196.278Y-48.646
X196.29Y-36.593
X196.64Y-70.4
X196.64Y-72.4
X196.985Y-46.525
X196.985Y-49.354
X197.29Y-36.593
X197.64Y-70.4
X197.64Y-72.4
X197.692Y-47.232
X197.692Y-50.061
X198.29Y-36.593
X198.4Y-47.939
X198.4Y-50.768
X198.64Y-70.4
X198.64Y-72.4
X199.107Y-48.646
X199.107Y-51.475
X199.814Y-49.354
X199.814Y-52.182
X199.99Y-36.593
X200.156Y-69.884
X200.521Y-50.061
X200.521Y-52.889
X200.863Y-69.177
X200.99Y-36.593
X201.228Y-50.768
X201.228Y-53.596
X201.57Y-68.47
X201.57Y-71.298
X201.935Y-51.475
X201.935Y-54.303
X201.99Y-36.593
X202.277Y-67.763
X202.277Y-70.591
X202.642Y-52.182
X202.642Y-55.01
X202.984Y-67.055
X202.984Y-69.884
X202.99Y-36.593
X203.349Y-52.889
X203.349Y-55.718
X203.691Y-66.348
X203.691Y-69.177
X204.053Y-43.008
X204.056Y-53.596
X204.056Y-56.425
X204.137Y-49.917
X204.265Y-44.382
X204.399Y-65.641
X204.399Y-68.47
X204.74Y-36.555
X204.74Y-37.555
X204.74Y-38.555
X204.74Y-39.555
X204.74Y-40.555
X204.74Y-51.191
X204.764Y-54.303
X204.764Y-57.132
X204.832Y-41.916
X205.106Y-64.934
X205.106Y-67.763
X205.471Y-55.01
X205.813Y-64.227
X205.813Y-67.055
X206.232Y-56.0
X206.232Y-58.0
X206.329Y-53.011
X206.52Y-63.52
X206.52Y-66.348
X206.695Y-41.188
X206.74Y-36.555
X206.74Y-37.555
X206.74Y-38.555
X206.74Y-39.555
X207.0Y-45.128
X207.227Y-62.813
X207.227Y-65.641
X207.232Y-56.0
X207.232Y-58.0
X207.36Y-43.682
X207.422Y-42.166
X207.934Y-62.106
X207.934Y-64.934
X207.988Y-56.428
X207.99Y-36.593
X208.123Y-55.123
X208.641Y-61.399
X208.641Y-64.227
X208.95Y-52.125
X208.99Y-36.593
X209.348Y-60.691
X209.348Y-63.52
X209.99Y-36.593
X210.055Y-62.813
X210.725Y-51.975
X210.763Y-62.106
X210.99Y-36.593
X211.47Y-61.399
X211.55Y-52.373
X212.177Y-60.691
X212.69Y-36.593
X213.69Y-36.593
X214.5Y-52.325
X214.69Y-36.593
X215.69Y-36.593
X215.778Y-57.0
X216.331Y-55.717
X216.69Y-36.593
X216.761Y-49.43
X216.778Y-59.0
X216.829Y-56.711
X216.961Y-51.615
X216.981Y-44.179
X217.026Y-48.063
X217.44Y-37.198
X217.44Y-38.198
X217.44Y-39.198
X217.44Y-40.198
X217.44Y-41.198
X217.44Y-42.198
X217.44Y-43.198
X217.536Y-56.003
X217.555Y-50.421
X218.114Y-53.916
X218.243Y-55.296
X218.243Y-58.125
X218.951Y-54.589
X218.951Y-57.418
X219.44Y-37.198
X219.44Y-38.198
X219.44Y-39.198
X219.44Y-40.198
X219.44Y-41.198
X219.44Y-42.198
X219.44Y-51.822
X219.658Y-53.882
X219.658Y-56.711
X220.024Y-48.771
X220.038Y-43.461
X220.123Y-50.211
X220.365Y-53.175
X220.365Y-56.003
X220.69Y-36.593
X221.072Y-52.468
X221.072Y-55.296
X221.69Y-36.593
X221.779Y-51.761
X221.779Y-54.589
X222.486Y-51.054
X222.486Y-53.882
X222.69Y-36.593
X223.193Y-50.347
X223.193Y-53.175
X223.69Y-36.593
X223.9Y-49.639
X223.9Y-52.468
X224.607Y-48.932
X224.607Y-51.761
X225.315Y-48.225
X225.315Y-51.054
X225.39Y-36.593
X226.022Y-47.518
X226.022Y-50.347
X226.39Y-36.593
X226.729Y-46.811
X226.729Y-49.639
X227.39Y-36.593
X227.436Y-46.104
X227.436Y-48.932
X228.143Y-45.397
X228.143Y-48.225
X228.39Y-36.593
X228.85Y-44.69
X228.85Y-47.518
X229.39Y-36.593
X229.557Y-43.983
X229.557Y-46.811
X230.14Y-37.052
X230.14Y-38.052
X230.14Y-39.052
X230.14Y-40.052
X230.14Y-41.052
X230.14Y-42.052
X230.14Y-43.052
X230.264Y-46.104
X230.971Y-45.397
X231.678Y-44.69
X232.14Y-37.052
X232.14Y-38.052
X232.14Y-39.052
X232.14Y-40.052
X232.14Y-41.052
X232.14Y-42.052
X232.14Y-43.052
X233.39Y-36.593
X234.39Y-36.593
X235.39Y-36.593
X236.39Y-36.593
M30
