G04 #@! TF.GenerationSoftware,KiCad,Pcbnew,10.0.0*
G04 #@! TF.CreationDate,2026-07-20T13:57:43-05:00*
G04 #@! TF.ProjectId,SBSP Control Board,53425350-2043-46f6-9e74-726f6c20426f,rev?*
G04 #@! TF.SameCoordinates,Original*
G04 #@! TF.FileFunction,Copper,L2,Inr*
G04 #@! TF.FilePolarity,Positive*
%FSLAX46Y46*%
G04 Gerber Fmt 4.6, Leading zero omitted, Abs format (unit mm)*
G04 Created by KiCad (PCBNEW 10.0.0) date 2026-07-20 13:57:43*
%MOMM*%
%LPD*%
G01*
G04 APERTURE LIST*
G04 #@! TA.AperFunction,ViaPad*
%ADD10C,0.600000*%
G04 #@! TD*
G04 #@! TA.AperFunction,ViaPad*
%ADD11C,0.250000*%
G04 #@! TD*
G04 APERTURE END LIST*
D10*
X65103354Y-63183141D03*
X116699820Y-71400000D03*
X93699820Y-69400000D03*
X83699820Y-71400000D03*
X171602369Y-52665845D03*
X165890000Y-36592500D03*
X228142928Y-45396859D03*
X232140000Y-40052500D03*
X120678382Y-69089273D03*
X120039052Y-50700735D03*
X76088350Y-43911437D03*
X166640000Y-70400000D03*
X193640000Y-72400000D03*
X199813781Y-52181995D03*
X51669102Y-48760819D03*
X220364753Y-53175033D03*
X200520888Y-50060675D03*
X129610558Y-69141909D03*
X121699820Y-69400000D03*
X37890000Y-36592500D03*
X95613612Y-43953398D03*
X143913399Y-44381613D03*
X121688521Y-65657032D03*
X179380543Y-42059243D03*
X70290000Y-36592500D03*
X179640000Y-70400000D03*
X184640000Y-72400000D03*
X68929825Y-51069962D03*
X162890000Y-36592500D03*
X89690000Y-36592500D03*
X204398602Y-68469611D03*
X67735048Y-50527931D03*
X207227029Y-62812757D03*
X224607394Y-48932392D03*
X193640000Y-70400000D03*
X43148466Y-45056680D03*
X181340000Y-38870877D03*
X232140000Y-42052500D03*
X158474990Y-68999224D03*
X153640000Y-70400000D03*
X202984389Y-67055398D03*
X191640000Y-70400000D03*
X143240000Y-39660544D03*
X94906505Y-43246292D03*
X97734932Y-46074719D03*
X166640000Y-41119006D03*
X166640000Y-40119006D03*
X186640000Y-70400000D03*
X210055456Y-62812757D03*
X84699820Y-71400000D03*
X99699820Y-69400000D03*
X172309476Y-49130311D03*
X162760812Y-60230667D03*
X170895262Y-50544525D03*
X115090000Y-36592500D03*
X153793740Y-50334282D03*
X39640000Y-38681507D03*
X200155961Y-69883825D03*
X78209670Y-44618544D03*
X115840000Y-41261508D03*
X90440000Y-38096379D03*
X169890000Y-36592500D03*
X192040000Y-41573573D03*
X177966330Y-46301884D03*
X161541417Y-65904724D03*
X152755091Y-70003369D03*
X182590000Y-36592500D03*
X130575000Y-64475000D03*
X92785185Y-43953398D03*
X101270466Y-52438680D03*
X144620506Y-42260292D03*
X67040000Y-39534364D03*
X194156927Y-46525141D03*
X118119180Y-45558191D03*
X57590000Y-36592500D03*
X173723689Y-47716098D03*
X217026242Y-48062521D03*
X160640000Y-70400000D03*
X68290000Y-36592500D03*
X92440000Y-37096379D03*
X185640000Y-70400000D03*
X69290000Y-36592500D03*
X77740000Y-38482801D03*
X128524333Y-45043881D03*
X141640000Y-70400000D03*
X80699820Y-71400000D03*
X228390000Y-36592500D03*
X92440000Y-39096379D03*
X215690000Y-36592500D03*
X45976894Y-45056680D03*
X118624838Y-52114949D03*
X111699820Y-71400000D03*
X41640000Y-38681507D03*
X79740000Y-39482801D03*
X119331945Y-54236269D03*
X150984467Y-48624253D03*
X195640000Y-72400000D03*
X157640000Y-72400000D03*
X93699820Y-71400000D03*
X208123000Y-55123000D03*
X174640000Y-70400000D03*
X204265408Y-44382442D03*
X87690000Y-36592500D03*
X153254052Y-45169736D03*
X229557141Y-43982645D03*
X153309251Y-43607053D03*
X216761031Y-49429876D03*
X97699820Y-71400000D03*
X137490000Y-36592500D03*
X128524333Y-42215454D03*
X192040000Y-36573573D03*
X65040000Y-41534364D03*
X153940000Y-36779919D03*
X210990000Y-36592500D03*
X44562680Y-46470894D03*
X197290000Y-36592500D03*
X95699820Y-69400000D03*
X115141115Y-47580074D03*
X124281692Y-46458095D03*
X64805991Y-51988640D03*
X223193180Y-53175033D03*
X160640000Y-72400000D03*
X53017470Y-51925683D03*
X230140000Y-37052500D03*
X149640000Y-70400000D03*
X182640000Y-72400000D03*
X211469670Y-61398544D03*
X174430796Y-49837418D03*
X146640000Y-72400000D03*
X155227108Y-55695321D03*
X151190000Y-36592500D03*
X42890000Y-36592500D03*
X65810461Y-63890247D03*
X170188156Y-54080059D03*
X123574586Y-49993628D03*
X64396247Y-65304461D03*
X67224675Y-68132888D03*
X198640000Y-72400000D03*
X174590000Y-36592500D03*
X200520888Y-52889102D03*
X50926641Y-50006428D03*
X118006902Y-69059375D03*
X76795456Y-43204330D03*
X144620506Y-45088719D03*
X123574585Y-47165201D03*
X202277282Y-70590932D03*
X118538885Y-48482267D03*
X71758253Y-51069961D03*
X196278247Y-48646461D03*
X232140000Y-38052500D03*
X181340000Y-41870877D03*
X64691796Y-44388080D03*
X159190000Y-36592500D03*
X55021718Y-45964843D03*
X188290000Y-36592500D03*
X66101400Y-56726815D03*
X70053102Y-70961315D03*
X113170031Y-64987103D03*
X170895262Y-53372952D03*
X102450000Y-36652500D03*
X128849167Y-65657032D03*
X122612121Y-69116927D03*
X145490000Y-36592500D03*
X126850000Y-36652500D03*
X68638888Y-66718675D03*
X68222719Y-51777068D03*
X70344039Y-49655748D03*
X108450000Y-36652500D03*
X103200000Y-36995314D03*
X219440000Y-38198039D03*
X134850000Y-36652500D03*
X168640000Y-51767449D03*
X223690000Y-36592500D03*
X201990000Y-36592500D03*
X143913399Y-41553186D03*
X51575000Y-53550000D03*
X141240000Y-38660544D03*
X142437412Y-70142034D03*
X55013226Y-44218813D03*
X163890000Y-36592500D03*
X207421882Y-42165741D03*
X122867479Y-47872308D03*
X131121226Y-68913874D03*
X221690000Y-36592500D03*
X181340000Y-37870877D03*
X103699820Y-69400000D03*
X145640000Y-72400000D03*
X104098893Y-55267107D03*
X208990000Y-36592500D03*
X91370971Y-42539185D03*
X97699820Y-69400000D03*
X122867479Y-50700735D03*
X130600000Y-41075223D03*
X143206292Y-43674506D03*
X168773942Y-52665845D03*
X161279714Y-67232268D03*
X155640000Y-72400000D03*
X162640000Y-70400000D03*
X194040000Y-42573573D03*
X204056422Y-53596208D03*
X105429460Y-57551241D03*
X168906662Y-45423310D03*
X125695906Y-47872308D03*
X207990000Y-36592500D03*
X216690000Y-36592500D03*
X127817226Y-42922561D03*
X122090000Y-36592500D03*
X226021608Y-47518179D03*
X230140000Y-39052500D03*
X147490000Y-36592500D03*
X175845010Y-48423204D03*
X222486074Y-51053713D03*
X69636932Y-50362855D03*
X204052975Y-43008417D03*
X165640000Y-70400000D03*
X209990000Y-36592500D03*
X115699820Y-71400000D03*
X158152972Y-65772535D03*
X45269787Y-47178000D03*
X41640000Y-39681507D03*
X119331945Y-51407842D03*
X184590000Y-36592500D03*
X72699820Y-71400000D03*
X81699820Y-69400000D03*
X220122844Y-50211388D03*
X168640000Y-39119006D03*
X147760180Y-66662079D03*
X123763497Y-65953150D03*
X112382981Y-61902499D03*
X48098214Y-47178000D03*
X175640000Y-70400000D03*
X47391107Y-49299321D03*
X186640000Y-72400000D03*
X78699820Y-71400000D03*
X113699820Y-69400000D03*
X124850000Y-36652500D03*
X64628866Y-48435978D03*
X164640000Y-70400000D03*
X125695906Y-45043881D03*
X74990000Y-36592500D03*
X144367411Y-69996899D03*
X226728714Y-46811072D03*
X41734253Y-40814039D03*
X101699820Y-69400000D03*
X127817226Y-45750988D03*
X229557141Y-46811072D03*
X106450000Y-36652500D03*
X217554956Y-50420682D03*
X151640000Y-70400000D03*
X52340000Y-38850488D03*
X39640000Y-37681507D03*
X148156040Y-45795826D03*
X153640000Y-72400000D03*
X143875000Y-65250000D03*
X152398681Y-52866894D03*
X146741826Y-44381613D03*
X213690000Y-36592500D03*
X96320719Y-44660505D03*
X166651393Y-52188511D03*
X41734253Y-43642466D03*
X58590000Y-36592500D03*
X128600000Y-39075223D03*
X125699820Y-71400000D03*
X231678462Y-44689752D03*
X71758252Y-48241534D03*
X207000163Y-45127563D03*
X71699820Y-71400000D03*
X113916770Y-68429716D03*
X207934136Y-62105650D03*
X150277360Y-50745574D03*
X162724473Y-64461468D03*
X62274927Y-63183141D03*
X65810461Y-66718675D03*
X177590000Y-36592500D03*
X61567820Y-62476034D03*
X62290000Y-36592500D03*
X34890000Y-36592500D03*
X43855573Y-45763787D03*
X126449167Y-65657032D03*
X65040000Y-39534364D03*
X153105787Y-50745574D03*
X39640000Y-40681507D03*
X68929826Y-53898389D03*
X119090000Y-36592500D03*
X103260617Y-51230405D03*
X105200000Y-37995314D03*
X52340855Y-54249068D03*
X219440000Y-37198039D03*
X82699820Y-69400000D03*
X155473258Y-70127465D03*
X77740000Y-36482801D03*
X143180779Y-66657665D03*
X94199398Y-42539185D03*
X127110119Y-43629667D03*
X156640000Y-70400000D03*
X161640000Y-70400000D03*
X97027826Y-45367612D03*
X66517568Y-67425781D03*
X54340000Y-40850488D03*
X104699820Y-69400000D03*
X203349315Y-55717529D03*
X77740000Y-37482801D03*
X155940000Y-39779919D03*
X129699820Y-71400000D03*
X168640000Y-72400000D03*
X168640000Y-41119006D03*
X206519922Y-66348291D03*
X77740000Y-40482801D03*
X115840000Y-43261508D03*
X230140000Y-43052500D03*
X204763529Y-57131742D03*
X130600000Y-39075223D03*
X109614725Y-64914644D03*
X128600000Y-37075223D03*
X71051146Y-51777068D03*
X204763529Y-54303315D03*
X75699820Y-69400000D03*
X225314501Y-48225286D03*
X77740000Y-41482801D03*
X174640000Y-72400000D03*
X194040000Y-40573573D03*
X170640000Y-72400000D03*
X83699820Y-69400000D03*
X170188156Y-51251632D03*
X140640000Y-70400000D03*
X206329161Y-53010690D03*
X148863147Y-49331360D03*
X156640000Y-72400000D03*
X73967029Y-46032757D03*
X150190000Y-36592500D03*
X54340000Y-41850488D03*
X221778967Y-54589247D03*
X67931781Y-68839995D03*
X173640000Y-70400000D03*
X219440000Y-40198039D03*
X232140000Y-37052500D03*
X90440000Y-41096379D03*
X145327613Y-45795826D03*
X139640000Y-70400000D03*
X173723689Y-50544525D03*
X98699820Y-69400000D03*
X187290000Y-36592500D03*
X71051146Y-48948641D03*
X202642208Y-55010422D03*
X180087650Y-44180563D03*
X99699820Y-71400000D03*
X67040000Y-38534364D03*
X43855573Y-42935360D03*
X56590000Y-36592500D03*
X147448933Y-45088719D03*
X187640000Y-70400000D03*
X180794757Y-43473457D03*
X67931781Y-66011568D03*
X141240000Y-40660544D03*
X89699820Y-71400000D03*
X148863147Y-46502933D03*
X69345995Y-70254208D03*
X168773942Y-55494272D03*
X201227995Y-53596208D03*
X116076882Y-69132281D03*
X102511305Y-48107352D03*
X166148585Y-46157257D03*
X102986715Y-45260429D03*
X50219534Y-52127748D03*
X54340000Y-38850488D03*
X217440000Y-37198039D03*
X127850000Y-36652500D03*
X159647946Y-63326101D03*
X75381243Y-44618544D03*
X216330954Y-55717131D03*
X206740000Y-39554958D03*
X136490000Y-36592500D03*
X70053102Y-68132888D03*
X73699820Y-71400000D03*
X169640000Y-70400000D03*
X177966330Y-43473457D03*
X108978583Y-60827665D03*
X194640000Y-72400000D03*
X115840000Y-42261508D03*
X87699820Y-69400000D03*
X192040000Y-42573573D03*
X52340000Y-39850488D03*
X126403012Y-44336774D03*
X203691495Y-66348291D03*
X71290000Y-36592500D03*
X55590000Y-36592500D03*
X121699820Y-71400000D03*
X201935102Y-51474888D03*
X103200000Y-39995314D03*
X158640000Y-72400000D03*
X219440000Y-39198039D03*
X92699820Y-69400000D03*
X109699820Y-71400000D03*
X128600000Y-41075223D03*
X168640000Y-70400000D03*
X208641243Y-61398544D03*
X216960907Y-51614535D03*
X124699820Y-71400000D03*
X151640000Y-72400000D03*
X139490000Y-36592500D03*
X194040000Y-39573573D03*
X90440000Y-37096379D03*
X60290000Y-36592500D03*
X45890000Y-36592500D03*
X235390000Y-36592500D03*
X205470636Y-55010422D03*
X82990000Y-36592500D03*
X48590000Y-36592500D03*
X216777534Y-59000000D03*
X92785185Y-41124971D03*
X167640000Y-70400000D03*
X163085321Y-62332105D03*
X102613671Y-46749193D03*
X64425000Y-62475000D03*
X138490000Y-36592500D03*
X181640000Y-72400000D03*
X224607394Y-51760820D03*
X103391787Y-54560000D03*
X96690000Y-36592500D03*
X41640000Y-37681507D03*
X94690000Y-36592500D03*
X80699820Y-69400000D03*
X127210558Y-69141909D03*
X98450000Y-36652500D03*
X179340000Y-40870877D03*
X154303830Y-66918559D03*
X189640000Y-72400000D03*
X142640000Y-72400000D03*
X219440000Y-42198039D03*
X178673437Y-45594777D03*
X69345995Y-67425781D03*
X225314501Y-51053713D03*
X206519922Y-63519864D03*
X144640000Y-72400000D03*
X117840000Y-38261508D03*
X152190000Y-36592500D03*
X122699820Y-71400000D03*
X117840000Y-37261508D03*
X117840000Y-39261508D03*
X204740000Y-38554958D03*
X194864034Y-44403820D03*
X79740000Y-42482801D03*
X130699820Y-71400000D03*
X203691495Y-69176718D03*
X175137903Y-49130311D03*
X201570175Y-68469611D03*
X163640000Y-72400000D03*
X95699820Y-71400000D03*
X39640000Y-39681507D03*
X67649009Y-49091772D03*
X77699820Y-69400000D03*
X204056422Y-56424636D03*
X107699820Y-69400000D03*
X217440000Y-39198039D03*
X87699820Y-71400000D03*
X66517568Y-64597354D03*
X113699820Y-71400000D03*
X48805321Y-50713534D03*
X69636932Y-53191282D03*
X84699820Y-69400000D03*
X179340000Y-39870877D03*
X103200000Y-38995314D03*
X155940000Y-40779919D03*
X66808505Y-56019709D03*
X194040000Y-41573573D03*
X141792079Y-42260292D03*
X81699820Y-71400000D03*
X95690000Y-36592500D03*
X36890000Y-36592500D03*
X141240000Y-37660544D03*
X79740000Y-40482801D03*
X111090000Y-36592500D03*
X90699820Y-71400000D03*
X67040000Y-41534364D03*
X171640000Y-70400000D03*
X109699820Y-69400000D03*
X96699820Y-71400000D03*
X120746159Y-52822056D03*
X110699820Y-69400000D03*
X166640000Y-37119006D03*
X199106675Y-48646461D03*
X118624838Y-54943376D03*
X162640000Y-72400000D03*
X176552116Y-44887670D03*
X159414325Y-64181653D03*
X63290000Y-36592500D03*
X67040000Y-42534364D03*
X143240000Y-38660544D03*
X220037913Y-43460725D03*
X174430796Y-47008991D03*
X65040000Y-42534364D03*
X179640000Y-72400000D03*
X223900287Y-49639499D03*
X192742713Y-45110927D03*
X232140000Y-43052500D03*
X53047961Y-54956175D03*
X187640000Y-72400000D03*
X171890000Y-36592500D03*
X215777534Y-57000000D03*
X52340000Y-50377873D03*
X173640000Y-72400000D03*
X105699820Y-69400000D03*
X143240000Y-36660544D03*
X116927876Y-65657032D03*
X232140000Y-41052500D03*
X143640000Y-70400000D03*
X153940000Y-37779919D03*
X107450000Y-36652500D03*
X51722668Y-43448145D03*
X76088350Y-46739864D03*
X86699820Y-71400000D03*
X106699820Y-69400000D03*
X221071860Y-55296353D03*
X219657647Y-53882140D03*
X65040000Y-38534364D03*
X54340000Y-36850488D03*
X228850035Y-44689752D03*
X149628404Y-66833379D03*
X218950540Y-57417674D03*
X43148466Y-42228253D03*
X46684000Y-48592214D03*
X129231440Y-44336774D03*
X65103354Y-66011568D03*
X167359729Y-54080059D03*
X218243433Y-58124781D03*
X202642208Y-52181995D03*
X94906505Y-46074719D03*
X105699820Y-71400000D03*
X200863068Y-69176718D03*
X100699820Y-69400000D03*
X168640000Y-37119006D03*
X147448933Y-47917147D03*
X49512428Y-51420641D03*
X206232312Y-56000000D03*
X105355943Y-41856571D03*
X220024079Y-48771098D03*
X168066835Y-53372952D03*
X143206292Y-40846079D03*
X114090000Y-36592500D03*
X113090000Y-36592500D03*
X117320821Y-53293393D03*
X168640000Y-40119006D03*
X190640000Y-70400000D03*
X180640000Y-72400000D03*
X202990000Y-36592500D03*
X177259223Y-44180563D03*
X196278247Y-45818034D03*
X166640000Y-38119006D03*
X221071860Y-52467926D03*
X210762563Y-62105650D03*
X45269787Y-44349573D03*
X192040000Y-43573573D03*
X165197000Y-56123000D03*
X101699820Y-71400000D03*
X164890000Y-36592500D03*
X103200000Y-37995314D03*
X226021608Y-50346606D03*
X48098214Y-50006428D03*
X115336069Y-46284237D03*
X97734932Y-48903146D03*
X158190000Y-36592500D03*
X114414010Y-55898139D03*
X165640000Y-72400000D03*
X181640000Y-70400000D03*
X196640000Y-72400000D03*
X141240000Y-39660544D03*
X104806000Y-53145787D03*
X189290000Y-36592500D03*
X133850000Y-36652500D03*
X111852752Y-64730826D03*
X209348350Y-60691437D03*
X150823502Y-70141650D03*
X194040000Y-36573573D03*
X124988799Y-48579415D03*
X112699820Y-71400000D03*
X95613612Y-46781826D03*
X207232312Y-56000000D03*
X49590000Y-36592500D03*
X67224675Y-65304461D03*
X156462968Y-42852037D03*
X199990000Y-36592500D03*
X143240000Y-37660544D03*
X219440000Y-41198039D03*
X102699820Y-69400000D03*
X88690000Y-36592500D03*
X100563359Y-48903146D03*
X102684680Y-53852893D03*
X169283515Y-46819126D03*
X180640000Y-70400000D03*
X92078078Y-43246292D03*
X167640000Y-72400000D03*
X197640000Y-70400000D03*
X150984467Y-51452681D03*
X236390000Y-36592500D03*
X175640000Y-72400000D03*
X159640000Y-70400000D03*
X115840000Y-36261508D03*
X217440000Y-42198039D03*
X54340000Y-39850488D03*
X109450000Y-36652500D03*
X96699820Y-69400000D03*
X146034719Y-46502933D03*
X118492056Y-46938059D03*
X77740000Y-39482801D03*
X117840000Y-40261508D03*
X78699820Y-69400000D03*
X124281692Y-49286522D03*
X76699820Y-69400000D03*
X62982034Y-61061820D03*
X230140000Y-42052500D03*
X100563359Y-51731573D03*
X67040000Y-37534364D03*
X130600000Y-42075223D03*
X60153607Y-61061820D03*
X153940000Y-38779919D03*
X140640000Y-72400000D03*
X206740000Y-37554958D03*
X101450000Y-36652500D03*
X79699820Y-71400000D03*
X50219534Y-49299321D03*
X73172466Y-49655748D03*
X173016583Y-51251631D03*
X51658282Y-46894002D03*
X50900000Y-52875000D03*
X120746158Y-49993629D03*
X144490000Y-36592500D03*
X77699820Y-71400000D03*
X78916777Y-43911437D03*
X79740000Y-37482801D03*
X204740000Y-39554958D03*
X130600000Y-37075223D03*
X204831815Y-41915713D03*
X149570253Y-50038467D03*
X165942187Y-47452357D03*
X234390000Y-36592500D03*
X147640000Y-70400000D03*
X46684000Y-45763787D03*
X201935102Y-54303315D03*
X206740000Y-38554958D03*
X201570175Y-71298039D03*
X88699820Y-71400000D03*
X233390000Y-36592500D03*
X148565807Y-70142335D03*
X67040000Y-52131199D03*
X72465359Y-47534427D03*
X200990000Y-36592500D03*
X195640000Y-70400000D03*
X193449820Y-45818034D03*
X179340000Y-36870877D03*
X60860714Y-61768927D03*
X115840000Y-39261508D03*
X181340000Y-40870877D03*
X178640000Y-72400000D03*
X117210625Y-56357590D03*
X104096342Y-52264556D03*
X230140000Y-40052500D03*
X208641243Y-64226971D03*
X121090000Y-36592500D03*
X103200000Y-40995314D03*
X86690000Y-36592500D03*
X65040000Y-40534364D03*
X115141115Y-49384460D03*
X220364753Y-56003460D03*
X80990000Y-36592500D03*
X132850000Y-36652500D03*
X130650000Y-62900000D03*
X112699820Y-69400000D03*
X126403013Y-47165201D03*
X129938546Y-43629667D03*
X107699820Y-71400000D03*
X155940000Y-36779919D03*
X110699820Y-71400000D03*
X219440000Y-51821622D03*
X154640000Y-72400000D03*
X115840000Y-38261508D03*
X102699820Y-71400000D03*
X149190000Y-36592500D03*
X191640000Y-72400000D03*
X65242108Y-50614180D03*
X44890000Y-36592500D03*
X43890000Y-36592500D03*
X171640000Y-72400000D03*
X105200000Y-38995314D03*
X230264248Y-46103965D03*
X204137462Y-49916640D03*
X146741826Y-47210040D03*
X150640000Y-72400000D03*
X83990000Y-36592500D03*
X159640000Y-72400000D03*
X63689141Y-61768927D03*
X73699820Y-69400000D03*
X204740000Y-40554958D03*
X148640000Y-72400000D03*
X101977573Y-53145787D03*
X217440000Y-43198039D03*
X225390000Y-36592500D03*
X70344039Y-52484175D03*
X52340000Y-36850488D03*
X49512428Y-48592214D03*
X175590000Y-36592500D03*
X230140000Y-41052500D03*
X175137903Y-46301884D03*
X227435821Y-48932392D03*
X157640000Y-70400000D03*
X194156927Y-43696713D03*
X65040000Y-36534364D03*
X74674136Y-45325650D03*
X99149146Y-50317359D03*
X182640000Y-70400000D03*
X207934136Y-64934078D03*
X153812894Y-51452681D03*
X228142928Y-48225286D03*
X81990000Y-36592500D03*
X204398602Y-65641184D03*
X96320719Y-47488932D03*
X120090000Y-36592500D03*
X168491472Y-42888100D03*
X128600000Y-38075223D03*
X172640000Y-72400000D03*
X101270466Y-49610253D03*
X172309476Y-51958738D03*
X151691574Y-49331360D03*
X145327613Y-42967399D03*
X74699820Y-69400000D03*
X77502563Y-42497223D03*
X42441360Y-41521146D03*
X86699820Y-69400000D03*
X222486074Y-53882140D03*
X65040000Y-43534364D03*
X168640000Y-38119006D03*
X177640000Y-70400000D03*
X52340000Y-41850488D03*
X207227029Y-65641184D03*
X194864034Y-47232247D03*
X163640000Y-70400000D03*
X192040000Y-37573573D03*
X170640000Y-70400000D03*
X205105709Y-64934078D03*
X190640000Y-72400000D03*
X202277282Y-67762505D03*
X143825000Y-62125000D03*
X79740000Y-36482801D03*
X176552116Y-47716097D03*
X196985354Y-49353568D03*
X165942131Y-49250823D03*
X183640000Y-70400000D03*
X123699820Y-71400000D03*
X111699820Y-69400000D03*
X228850035Y-47518179D03*
X201227995Y-50767781D03*
X198290000Y-36592500D03*
X114699820Y-71400000D03*
X157190000Y-36592500D03*
X94199398Y-45367612D03*
X173016583Y-48423204D03*
X123850000Y-36652500D03*
X91699820Y-71400000D03*
X206694874Y-41188383D03*
X155940000Y-37779919D03*
X207359846Y-43682182D03*
X199813781Y-49353568D03*
X117840000Y-51680017D03*
X220690000Y-36592500D03*
X146034719Y-43674506D03*
X128699820Y-69400000D03*
X177640000Y-72400000D03*
X176640000Y-72400000D03*
X52340855Y-51420641D03*
X113584505Y-66400000D03*
X232140000Y-39052500D03*
X146490000Y-36592500D03*
X170890000Y-36592500D03*
X67040000Y-40534364D03*
X164640000Y-72400000D03*
X105200000Y-39995314D03*
X131850000Y-36652500D03*
X117677559Y-43028247D03*
X41640000Y-36681507D03*
X122160372Y-48579415D03*
X85690000Y-36592500D03*
X221778967Y-51760820D03*
X47391107Y-46470894D03*
X120699820Y-71400000D03*
X161640000Y-72400000D03*
X178640000Y-70400000D03*
X114907065Y-65896336D03*
X92440000Y-40096379D03*
X189640000Y-70400000D03*
X160343000Y-60425634D03*
X183590000Y-36592500D03*
X155658123Y-53262362D03*
X190290000Y-36592500D03*
X119699820Y-69400000D03*
X103699820Y-71400000D03*
X153940000Y-40779919D03*
X85699820Y-71400000D03*
X117840000Y-36261508D03*
X155940000Y-38779919D03*
X196985354Y-46525141D03*
X72699820Y-69400000D03*
X179340000Y-38870877D03*
X216980694Y-44178527D03*
X141640000Y-72400000D03*
X199106675Y-51474888D03*
X198399568Y-47939354D03*
X207987924Y-56428154D03*
X92699820Y-71400000D03*
X154640000Y-70400000D03*
X196640000Y-70400000D03*
X166585095Y-58184404D03*
X115946765Y-52181028D03*
X79740000Y-41482801D03*
X72990000Y-36592500D03*
X151691574Y-52159787D03*
X130600000Y-40075223D03*
X169640000Y-72400000D03*
X149570253Y-47210040D03*
X226728714Y-49639499D03*
X105200000Y-36995314D03*
X196290000Y-36592500D03*
X79740000Y-38482801D03*
X223900287Y-52467926D03*
X100699820Y-71400000D03*
X194040000Y-38573573D03*
X179380543Y-44887670D03*
X93690000Y-36592500D03*
X156623385Y-44308963D03*
X105200000Y-40995314D03*
X108908407Y-62757672D03*
X47590000Y-36592500D03*
X117917732Y-55650483D03*
X143640000Y-72400000D03*
X212690000Y-36592500D03*
X195290000Y-36592500D03*
X106699820Y-71400000D03*
X35890000Y-36592500D03*
X54462175Y-53541961D03*
X88699820Y-69400000D03*
X192640000Y-72400000D03*
X130525000Y-61325000D03*
X217440000Y-41198039D03*
X72465359Y-50362855D03*
X99450000Y-36652500D03*
X90440000Y-40096379D03*
X105630333Y-46027086D03*
X188640000Y-72400000D03*
X67515612Y-55312602D03*
X42441360Y-44349573D03*
X143850000Y-63675000D03*
X128699820Y-71400000D03*
X217536326Y-56003460D03*
X44562680Y-43642466D03*
X204740000Y-37554958D03*
X118699820Y-71400000D03*
X48805321Y-47885107D03*
X51658282Y-45035684D03*
X181340000Y-39870877D03*
X119699820Y-71400000D03*
X159634603Y-61378936D03*
X73879573Y-48948641D03*
X197640000Y-72400000D03*
X74699820Y-71400000D03*
X230140000Y-38052500D03*
X97027826Y-48196039D03*
X128600000Y-40075223D03*
X217440000Y-38198039D03*
X207232312Y-58000000D03*
X205105709Y-67762505D03*
X166640000Y-39119006D03*
X184640000Y-70400000D03*
X203349315Y-52889102D03*
X205812816Y-64226971D03*
X122160372Y-51407842D03*
X141240000Y-36660544D03*
X77502563Y-45325650D03*
X94699820Y-71400000D03*
X125289566Y-69014437D03*
X66808505Y-53191282D03*
X68638888Y-69547102D03*
X65040000Y-37534364D03*
X64766421Y-58597588D03*
X111673557Y-68161844D03*
X194040000Y-37573573D03*
X142499186Y-42967399D03*
X205812816Y-67055398D03*
X154520001Y-54988214D03*
X89699820Y-69400000D03*
X177259223Y-47008991D03*
X121453265Y-52114949D03*
X104699820Y-71400000D03*
X156348873Y-66657679D03*
X73990000Y-36592500D03*
X98442039Y-49610253D03*
X188640000Y-70400000D03*
X75990000Y-36592500D03*
X166640000Y-43119006D03*
X130600000Y-38075223D03*
X61290000Y-36592500D03*
X90699820Y-69400000D03*
X185640000Y-72400000D03*
X91699820Y-69400000D03*
X218113896Y-53916078D03*
X183640000Y-72400000D03*
X39640000Y-36681507D03*
X214690000Y-36592500D03*
X50590000Y-36592500D03*
X192040000Y-39573573D03*
X172890000Y-36592500D03*
X55021718Y-47823161D03*
X209348350Y-63519864D03*
X120039052Y-53529163D03*
X123699820Y-69400000D03*
X148156040Y-48624253D03*
X176640000Y-70400000D03*
X204740000Y-36554958D03*
X127699820Y-71400000D03*
X93492292Y-44660505D03*
X145640000Y-70400000D03*
X76699820Y-71400000D03*
X118530838Y-50411745D03*
X168066835Y-56201379D03*
X171602369Y-49837418D03*
X114699820Y-69400000D03*
X206232312Y-58000000D03*
X147640000Y-72400000D03*
X197692461Y-47232247D03*
X100450000Y-36652500D03*
X124988799Y-45750988D03*
X206740000Y-36554958D03*
X112140634Y-63926403D03*
X54340000Y-37850488D03*
X52340000Y-40850488D03*
X68222719Y-54605495D03*
X152640000Y-72400000D03*
X178673437Y-42766350D03*
X166640000Y-42119006D03*
X192040000Y-38573573D03*
X150277360Y-47917147D03*
X85699820Y-69400000D03*
X222690000Y-36592500D03*
X63689141Y-64597354D03*
X82699820Y-71400000D03*
X169481049Y-51958738D03*
X112090000Y-36592500D03*
X149640000Y-72400000D03*
X45976894Y-47885107D03*
X158640000Y-70400000D03*
X218243433Y-55296353D03*
X153105787Y-53574001D03*
X52340000Y-37850488D03*
X70760208Y-68839995D03*
X40320039Y-42228253D03*
X41027146Y-42935360D03*
X169337869Y-48347035D03*
X117840000Y-41261508D03*
X71699820Y-69400000D03*
X204740000Y-51190737D03*
X175845010Y-45594777D03*
X108699820Y-71400000D03*
X227390000Y-36592500D03*
X93492292Y-41832078D03*
X226390000Y-36592500D03*
X152398681Y-50038467D03*
X115840000Y-40261508D03*
X65279288Y-57013030D03*
X117699820Y-71400000D03*
X217440000Y-40198039D03*
X94699820Y-69400000D03*
X192640000Y-70400000D03*
X75381243Y-47446971D03*
X125850000Y-36652500D03*
X198640000Y-70400000D03*
X169329628Y-50161085D03*
X179340000Y-37870877D03*
X98699820Y-71400000D03*
X116503518Y-54236269D03*
X223193180Y-50346606D03*
X79699820Y-69400000D03*
X169481049Y-54787166D03*
X161890000Y-36592500D03*
X102520974Y-50194991D03*
X90440000Y-39096379D03*
X127110119Y-46458094D03*
X99149146Y-47488932D03*
X92440000Y-38096379D03*
X115435341Y-58662045D03*
X154469184Y-51937397D03*
X176590000Y-36592500D03*
X141240388Y-66826305D03*
X64341694Y-49704915D03*
X181340000Y-36870877D03*
X126699820Y-71400000D03*
X99856253Y-51024466D03*
X219657647Y-56710567D03*
X216829219Y-56710567D03*
X65618801Y-53974520D03*
X227435821Y-46103965D03*
X194640000Y-70400000D03*
X198399568Y-50767781D03*
X218950540Y-54589247D03*
X146574812Y-69932689D03*
X108699820Y-69400000D03*
X153812894Y-54281108D03*
X153940000Y-39779919D03*
X172640000Y-70400000D03*
X75699820Y-71400000D03*
X62982034Y-63890247D03*
X212176777Y-60691437D03*
X115840000Y-37261508D03*
X103284522Y-42706351D03*
X76795456Y-46032757D03*
X202984389Y-69883825D03*
X166640000Y-72400000D03*
X67596647Y-43701694D03*
X121453265Y-49286522D03*
X67040000Y-36534364D03*
X195571141Y-45110927D03*
X197692461Y-50060675D03*
X185590000Y-36592500D03*
X153254052Y-47014768D03*
X53755066Y-55663280D03*
X195571141Y-47939354D03*
X98442039Y-46781826D03*
X229390000Y-36592500D03*
X99856253Y-48196039D03*
X110163170Y-66908163D03*
X230971355Y-45396859D03*
X160190000Y-36592500D03*
X151578086Y-66657665D03*
X192040000Y-40573573D03*
D11*
X59475000Y-54025000D03*
X58950000Y-54000000D03*
D10*
X208950000Y-52125000D03*
X133125000Y-65475000D03*
X107650000Y-52250000D03*
X158150000Y-52175000D03*
X57025000Y-52300000D03*
X62450000Y-52325000D03*
X59250000Y-52075000D03*
X58275000Y-52025000D03*
D11*
X161050000Y-54025000D03*
X160075000Y-54000000D03*
D10*
X163825000Y-52275000D03*
X161250000Y-52100000D03*
X159700000Y-52125000D03*
D11*
X135400000Y-67425000D03*
X134325000Y-67449398D03*
D10*
X138625000Y-65500000D03*
X137700003Y-65350000D03*
X136900000Y-65350000D03*
X135325000Y-65650000D03*
X134440106Y-65599757D03*
D11*
X211750000Y-54025000D03*
X210775000Y-54000000D03*
D10*
X214500000Y-52325000D03*
X211550000Y-52372998D03*
X210725000Y-51975000D03*
D11*
X110600000Y-54000000D03*
X109625000Y-53975000D03*
D10*
X113150000Y-52225000D03*
X110225000Y-52325000D03*
X109150000Y-52300000D03*
G04 #@! TA.AperFunction,Conductor*
G36*
X236162539Y-31020185D02*
G01*
X236208294Y-31072989D01*
X236219500Y-31124500D01*
X236219500Y-93355500D01*
X236199815Y-93422539D01*
X236147011Y-93468294D01*
X236095500Y-93479500D01*
X35684500Y-93479500D01*
X35617461Y-93459815D01*
X35571706Y-93407011D01*
X35560500Y-93355500D01*
X35560500Y-67387787D01*
X133699500Y-67387787D01*
X133699500Y-67511008D01*
X133723535Y-67631842D01*
X133723538Y-67631852D01*
X133770687Y-67745681D01*
X133770692Y-67745690D01*
X133839141Y-67848130D01*
X133839144Y-67848134D01*
X133926263Y-67935253D01*
X133926267Y-67935256D01*
X134028707Y-68003705D01*
X134028713Y-68003708D01*
X134028714Y-68003709D01*
X134142548Y-68050861D01*
X134263389Y-68074897D01*
X134263393Y-68074898D01*
X134263394Y-68074898D01*
X134386607Y-68074898D01*
X134386608Y-68074897D01*
X134507452Y-68050861D01*
X134621286Y-68003709D01*
X134723733Y-67935256D01*
X134748134Y-67910855D01*
X134787018Y-67871972D01*
X134848341Y-67838487D01*
X134918033Y-67843471D01*
X134962380Y-67871972D01*
X135001263Y-67910855D01*
X135001267Y-67910858D01*
X135103707Y-67979307D01*
X135103713Y-67979310D01*
X135103714Y-67979311D01*
X135217548Y-68026463D01*
X135338389Y-68050499D01*
X135338393Y-68050500D01*
X135338394Y-68050500D01*
X135461607Y-68050500D01*
X135461608Y-68050499D01*
X135582452Y-68026463D01*
X135696286Y-67979311D01*
X135798733Y-67910858D01*
X135885858Y-67823733D01*
X135954311Y-67721286D01*
X136001463Y-67607452D01*
X136025500Y-67486606D01*
X136025500Y-67363394D01*
X136001463Y-67242548D01*
X135954311Y-67128714D01*
X135954310Y-67128713D01*
X135954307Y-67128707D01*
X135885858Y-67026267D01*
X135885855Y-67026263D01*
X135798736Y-66939144D01*
X135798732Y-66939141D01*
X135696292Y-66870692D01*
X135696283Y-66870687D01*
X135603477Y-66832246D01*
X135582452Y-66823537D01*
X135582448Y-66823536D01*
X135582444Y-66823535D01*
X135461610Y-66799500D01*
X135461606Y-66799500D01*
X135338394Y-66799500D01*
X135338389Y-66799500D01*
X135217555Y-66823535D01*
X135217545Y-66823538D01*
X135103716Y-66870687D01*
X135103707Y-66870692D01*
X135001267Y-66939141D01*
X135001263Y-66939144D01*
X134937982Y-67002426D01*
X134876659Y-67035911D01*
X134806967Y-67030927D01*
X134762620Y-67002426D01*
X134723736Y-66963542D01*
X134723732Y-66963539D01*
X134621292Y-66895090D01*
X134621283Y-66895085D01*
X134507454Y-66847936D01*
X134507455Y-66847936D01*
X134507452Y-66847935D01*
X134507448Y-66847934D01*
X134507444Y-66847933D01*
X134386610Y-66823898D01*
X134386606Y-66823898D01*
X134263394Y-66823898D01*
X134263389Y-66823898D01*
X134142555Y-66847933D01*
X134142545Y-66847936D01*
X134028716Y-66895085D01*
X134028707Y-66895090D01*
X133926267Y-66963539D01*
X133926263Y-66963542D01*
X133839144Y-67050661D01*
X133839141Y-67050665D01*
X133770692Y-67153105D01*
X133770687Y-67153114D01*
X133723538Y-67266943D01*
X133723535Y-67266953D01*
X133699500Y-67387787D01*
X35560500Y-67387787D01*
X35560500Y-65396153D01*
X132324500Y-65396153D01*
X132324500Y-65553846D01*
X132355261Y-65708489D01*
X132355264Y-65708501D01*
X132415602Y-65854172D01*
X132415609Y-65854185D01*
X132503210Y-65985288D01*
X132503213Y-65985292D01*
X132614707Y-66096786D01*
X132614711Y-66096789D01*
X132745814Y-66184390D01*
X132745827Y-66184397D01*
X132891498Y-66244735D01*
X132891503Y-66244737D01*
X133017176Y-66269735D01*
X133046153Y-66275499D01*
X133046156Y-66275500D01*
X133046158Y-66275500D01*
X133203844Y-66275500D01*
X133203845Y-66275499D01*
X133358497Y-66244737D01*
X133504179Y-66184394D01*
X133635289Y-66096789D01*
X133635291Y-66096786D01*
X133639993Y-66092928D01*
X133641291Y-66094510D01*
X133694393Y-66065499D01*
X133764086Y-66070467D01*
X133813785Y-66105962D01*
X133814009Y-66105739D01*
X133815346Y-66107076D01*
X133816638Y-66107999D01*
X133818314Y-66110041D01*
X133818317Y-66110046D01*
X133818320Y-66110049D01*
X133818325Y-66110055D01*
X133929813Y-66221543D01*
X133929817Y-66221546D01*
X134060920Y-66309147D01*
X134060933Y-66309154D01*
X134182225Y-66359394D01*
X134206609Y-66369494D01*
X134361259Y-66400256D01*
X134361262Y-66400257D01*
X134361264Y-66400257D01*
X134518950Y-66400257D01*
X134518951Y-66400256D01*
X134673603Y-66369494D01*
X134762080Y-66332846D01*
X134789745Y-66321387D01*
X134859214Y-66313918D01*
X134906088Y-66332846D01*
X134945814Y-66359390D01*
X134945827Y-66359397D01*
X135091498Y-66419735D01*
X135091503Y-66419737D01*
X135246153Y-66450499D01*
X135246156Y-66450500D01*
X135246158Y-66450500D01*
X135403844Y-66450500D01*
X135403845Y-66450499D01*
X135558497Y-66419737D01*
X135704179Y-66359394D01*
X135835289Y-66271789D01*
X135946789Y-66160289D01*
X136034394Y-66029179D01*
X136084256Y-65908799D01*
X136128094Y-65854401D01*
X136194388Y-65832335D01*
X136262087Y-65849614D01*
X136286496Y-65868575D01*
X136389707Y-65971786D01*
X136389711Y-65971789D01*
X136520814Y-66059390D01*
X136520827Y-66059397D01*
X136643128Y-66110055D01*
X136666503Y-66119737D01*
X136821153Y-66150499D01*
X136821156Y-66150500D01*
X136821158Y-66150500D01*
X136978844Y-66150500D01*
X136978845Y-66150499D01*
X137133497Y-66119737D01*
X137252550Y-66070423D01*
X137322017Y-66062955D01*
X137347450Y-66070422D01*
X137466506Y-66119737D01*
X137621156Y-66150499D01*
X137621159Y-66150500D01*
X137621161Y-66150500D01*
X137778847Y-66150500D01*
X137778848Y-66150499D01*
X137933500Y-66119737D01*
X137983635Y-66098969D01*
X138053104Y-66091500D01*
X138108805Y-66119380D01*
X138110001Y-66117924D01*
X138114711Y-66121789D01*
X138245814Y-66209390D01*
X138245827Y-66209397D01*
X138391498Y-66269735D01*
X138391503Y-66269737D01*
X138503416Y-66291998D01*
X138546153Y-66300499D01*
X138546156Y-66300500D01*
X138546158Y-66300500D01*
X138703844Y-66300500D01*
X138703845Y-66300499D01*
X138858497Y-66269737D01*
X138974841Y-66221546D01*
X139004172Y-66209397D01*
X139004172Y-66209396D01*
X139004179Y-66209394D01*
X139135289Y-66121789D01*
X139246789Y-66010289D01*
X139334394Y-65879179D01*
X139394737Y-65733497D01*
X139425500Y-65578842D01*
X139425500Y-65421158D01*
X139425500Y-65421155D01*
X139425499Y-65421153D01*
X139394738Y-65266510D01*
X139394737Y-65266503D01*
X139346640Y-65150385D01*
X139334397Y-65120827D01*
X139334390Y-65120814D01*
X139246789Y-64989711D01*
X139246786Y-64989707D01*
X139135292Y-64878213D01*
X139135288Y-64878210D01*
X139004185Y-64790609D01*
X139004172Y-64790602D01*
X138858501Y-64730264D01*
X138858489Y-64730261D01*
X138703845Y-64699500D01*
X138703842Y-64699500D01*
X138546158Y-64699500D01*
X138546155Y-64699500D01*
X138391511Y-64730260D01*
X138391506Y-64730262D01*
X138391504Y-64730262D01*
X138391503Y-64730263D01*
X138341364Y-64751031D01*
X138271894Y-64758498D01*
X138216198Y-64730618D01*
X138215002Y-64732076D01*
X138210291Y-64728210D01*
X138079188Y-64640609D01*
X138079175Y-64640602D01*
X137933504Y-64580264D01*
X137933492Y-64580261D01*
X137778848Y-64549500D01*
X137778845Y-64549500D01*
X137621161Y-64549500D01*
X137621158Y-64549500D01*
X137466513Y-64580261D01*
X137466501Y-64580264D01*
X137347453Y-64629575D01*
X137277983Y-64637044D01*
X137252549Y-64629575D01*
X137133501Y-64580264D01*
X137133489Y-64580261D01*
X136978845Y-64549500D01*
X136978842Y-64549500D01*
X136821158Y-64549500D01*
X136821155Y-64549500D01*
X136666510Y-64580261D01*
X136666498Y-64580264D01*
X136520827Y-64640602D01*
X136520814Y-64640609D01*
X136389711Y-64728210D01*
X136389707Y-64728213D01*
X136278213Y-64839707D01*
X136278210Y-64839711D01*
X136190609Y-64970814D01*
X136190604Y-64970823D01*
X136140745Y-65091196D01*
X136096904Y-65145599D01*
X136030610Y-65167664D01*
X135962911Y-65150385D01*
X135938503Y-65131424D01*
X135835292Y-65028213D01*
X135835288Y-65028210D01*
X135704185Y-64940609D01*
X135704172Y-64940602D01*
X135558501Y-64880264D01*
X135558489Y-64880261D01*
X135403845Y-64849500D01*
X135403842Y-64849500D01*
X135246158Y-64849500D01*
X135246155Y-64849500D01*
X135091510Y-64880261D01*
X135091498Y-64880264D01*
X134975360Y-64928370D01*
X134905891Y-64935839D01*
X134859017Y-64916911D01*
X134819282Y-64890361D01*
X134673607Y-64830021D01*
X134673595Y-64830018D01*
X134518951Y-64799257D01*
X134518948Y-64799257D01*
X134361264Y-64799257D01*
X134361261Y-64799257D01*
X134206616Y-64830018D01*
X134206604Y-64830021D01*
X134060933Y-64890359D01*
X134060920Y-64890366D01*
X133929820Y-64977965D01*
X133925113Y-64981829D01*
X133923820Y-64980254D01*
X133870654Y-65009269D01*
X133800964Y-65004269D01*
X133751320Y-64968794D01*
X133751097Y-64969018D01*
X133749755Y-64967676D01*
X133748466Y-64966755D01*
X133746783Y-64964704D01*
X133635292Y-64853213D01*
X133635288Y-64853210D01*
X133504185Y-64765609D01*
X133504172Y-64765602D01*
X133358501Y-64705264D01*
X133358489Y-64705261D01*
X133203845Y-64674500D01*
X133203842Y-64674500D01*
X133046158Y-64674500D01*
X133046155Y-64674500D01*
X132891510Y-64705261D01*
X132891498Y-64705264D01*
X132745827Y-64765602D01*
X132745814Y-64765609D01*
X132614711Y-64853210D01*
X132614707Y-64853213D01*
X132503213Y-64964707D01*
X132503210Y-64964711D01*
X132415609Y-65095814D01*
X132415602Y-65095827D01*
X132355264Y-65241498D01*
X132355261Y-65241510D01*
X132324500Y-65396153D01*
X35560500Y-65396153D01*
X35560500Y-53938389D01*
X58324500Y-53938389D01*
X58324500Y-54061610D01*
X58348535Y-54182444D01*
X58348538Y-54182454D01*
X58395687Y-54296283D01*
X58395692Y-54296292D01*
X58464141Y-54398732D01*
X58464144Y-54398736D01*
X58551263Y-54485855D01*
X58551267Y-54485858D01*
X58653707Y-54554307D01*
X58653713Y-54554310D01*
X58653714Y-54554311D01*
X58767548Y-54601463D01*
X58888389Y-54625499D01*
X58888393Y-54625500D01*
X58888394Y-54625500D01*
X59011604Y-54625500D01*
X59011606Y-54625500D01*
X59132452Y-54601463D01*
X59134859Y-54600465D01*
X59136223Y-54600318D01*
X59138283Y-54599694D01*
X59138401Y-54600084D01*
X59204325Y-54592990D01*
X59229774Y-54600460D01*
X59292548Y-54626463D01*
X59413394Y-54650500D01*
X59413396Y-54650500D01*
X59536607Y-54650500D01*
X59536608Y-54650499D01*
X59657452Y-54626463D01*
X59771286Y-54579311D01*
X59873733Y-54510858D01*
X59960858Y-54423733D01*
X60029311Y-54321286D01*
X60076463Y-54207452D01*
X60100500Y-54086606D01*
X60100500Y-53963394D01*
X60090554Y-53913389D01*
X108999500Y-53913389D01*
X108999500Y-54036610D01*
X109023535Y-54157444D01*
X109023538Y-54157454D01*
X109070687Y-54271283D01*
X109070692Y-54271292D01*
X109139141Y-54373732D01*
X109139144Y-54373736D01*
X109226263Y-54460855D01*
X109226267Y-54460858D01*
X109328707Y-54529307D01*
X109328713Y-54529310D01*
X109328714Y-54529311D01*
X109442548Y-54576463D01*
X109559342Y-54599694D01*
X109563389Y-54600499D01*
X109563393Y-54600500D01*
X109563394Y-54600500D01*
X109686607Y-54600500D01*
X109686608Y-54600499D01*
X109807452Y-54576463D01*
X109921286Y-54529311D01*
X109948907Y-54510855D01*
X110028798Y-54457474D01*
X110030086Y-54459402D01*
X110084866Y-54436096D01*
X110153741Y-54447844D01*
X110186980Y-54471572D01*
X110201263Y-54485855D01*
X110201267Y-54485858D01*
X110303707Y-54554307D01*
X110303713Y-54554310D01*
X110303714Y-54554311D01*
X110417548Y-54601463D01*
X110538389Y-54625499D01*
X110538393Y-54625500D01*
X110538394Y-54625500D01*
X110661607Y-54625500D01*
X110661608Y-54625499D01*
X110782452Y-54601463D01*
X110896286Y-54554311D01*
X110998733Y-54485858D01*
X111085858Y-54398733D01*
X111154311Y-54296286D01*
X111201463Y-54182452D01*
X111225500Y-54061606D01*
X111225500Y-53938394D01*
X111225499Y-53938389D01*
X159449500Y-53938389D01*
X159449500Y-54061610D01*
X159473535Y-54182444D01*
X159473538Y-54182454D01*
X159520687Y-54296283D01*
X159520692Y-54296292D01*
X159589141Y-54398732D01*
X159589144Y-54398736D01*
X159676263Y-54485855D01*
X159676267Y-54485858D01*
X159778707Y-54554307D01*
X159778713Y-54554310D01*
X159778714Y-54554311D01*
X159892548Y-54601463D01*
X160013389Y-54625499D01*
X160013393Y-54625500D01*
X160013394Y-54625500D01*
X160136607Y-54625500D01*
X160136608Y-54625499D01*
X160257452Y-54601463D01*
X160371286Y-54554311D01*
X160436318Y-54510858D01*
X160478798Y-54482474D01*
X160480086Y-54484402D01*
X160534866Y-54461096D01*
X160603741Y-54472844D01*
X160636980Y-54496572D01*
X160651263Y-54510855D01*
X160651267Y-54510858D01*
X160753707Y-54579307D01*
X160753716Y-54579312D01*
X160774739Y-54588020D01*
X160867548Y-54626463D01*
X160988389Y-54650499D01*
X160988393Y-54650500D01*
X160988394Y-54650500D01*
X161111607Y-54650500D01*
X161111608Y-54650499D01*
X161232452Y-54626463D01*
X161346286Y-54579311D01*
X161448733Y-54510858D01*
X161535858Y-54423733D01*
X161604311Y-54321286D01*
X161651463Y-54207452D01*
X161675500Y-54086606D01*
X161675500Y-53963394D01*
X161670526Y-53938389D01*
X210149500Y-53938389D01*
X210149500Y-54061610D01*
X210173535Y-54182444D01*
X210173538Y-54182454D01*
X210220687Y-54296283D01*
X210220692Y-54296292D01*
X210289141Y-54398732D01*
X210289144Y-54398736D01*
X210376263Y-54485855D01*
X210376267Y-54485858D01*
X210478707Y-54554307D01*
X210478713Y-54554310D01*
X210478714Y-54554311D01*
X210592548Y-54601463D01*
X210713389Y-54625499D01*
X210713393Y-54625500D01*
X210713394Y-54625500D01*
X210836607Y-54625500D01*
X210836608Y-54625499D01*
X210957452Y-54601463D01*
X211071286Y-54554311D01*
X211136318Y-54510858D01*
X211178798Y-54482474D01*
X211180086Y-54484402D01*
X211234866Y-54461096D01*
X211303741Y-54472844D01*
X211336980Y-54496572D01*
X211351263Y-54510855D01*
X211351267Y-54510858D01*
X211453707Y-54579307D01*
X211453716Y-54579312D01*
X211474739Y-54588020D01*
X211567548Y-54626463D01*
X211688389Y-54650499D01*
X211688393Y-54650500D01*
X211688394Y-54650500D01*
X211811607Y-54650500D01*
X211811608Y-54650499D01*
X211932452Y-54626463D01*
X212046286Y-54579311D01*
X212148733Y-54510858D01*
X212235858Y-54423733D01*
X212304311Y-54321286D01*
X212351463Y-54207452D01*
X212375500Y-54086606D01*
X212375500Y-53963394D01*
X212351463Y-53842548D01*
X212304311Y-53728714D01*
X212304310Y-53728713D01*
X212304307Y-53728707D01*
X212235858Y-53626267D01*
X212235855Y-53626263D01*
X212148736Y-53539144D01*
X212148732Y-53539141D01*
X212046292Y-53470692D01*
X212046283Y-53470687D01*
X211934878Y-53424542D01*
X211932452Y-53423537D01*
X211932448Y-53423536D01*
X211932444Y-53423535D01*
X211811610Y-53399500D01*
X211811606Y-53399500D01*
X211688394Y-53399500D01*
X211567548Y-53423537D01*
X211565064Y-53424565D01*
X211565063Y-53424566D01*
X211453716Y-53470687D01*
X211453707Y-53470692D01*
X211346202Y-53542526D01*
X211344922Y-53540611D01*
X211290050Y-53563913D01*
X211221183Y-53552119D01*
X211188019Y-53528427D01*
X211173736Y-53514144D01*
X211173732Y-53514141D01*
X211071292Y-53445692D01*
X211071283Y-53445687D01*
X210978477Y-53407246D01*
X210957452Y-53398537D01*
X210957448Y-53398536D01*
X210957444Y-53398535D01*
X210836610Y-53374500D01*
X210836606Y-53374500D01*
X210713394Y-53374500D01*
X210713389Y-53374500D01*
X210592555Y-53398535D01*
X210592545Y-53398538D01*
X210478716Y-53445687D01*
X210478707Y-53445692D01*
X210376267Y-53514141D01*
X210376263Y-53514144D01*
X210289144Y-53601263D01*
X210289141Y-53601267D01*
X210220692Y-53703707D01*
X210220687Y-53703716D01*
X210173538Y-53817545D01*
X210173535Y-53817555D01*
X210149500Y-53938389D01*
X161670526Y-53938389D01*
X161651463Y-53842548D01*
X161604311Y-53728714D01*
X161604310Y-53728713D01*
X161604307Y-53728707D01*
X161535858Y-53626267D01*
X161535855Y-53626263D01*
X161448736Y-53539144D01*
X161448732Y-53539141D01*
X161346292Y-53470692D01*
X161346283Y-53470687D01*
X161234878Y-53424542D01*
X161232452Y-53423537D01*
X161232448Y-53423536D01*
X161232444Y-53423535D01*
X161111610Y-53399500D01*
X161111606Y-53399500D01*
X160988394Y-53399500D01*
X160988389Y-53399500D01*
X160867555Y-53423535D01*
X160867545Y-53423538D01*
X160753716Y-53470687D01*
X160753707Y-53470692D01*
X160646202Y-53542526D01*
X160644922Y-53540611D01*
X160590050Y-53563913D01*
X160521183Y-53552119D01*
X160488019Y-53528427D01*
X160473736Y-53514144D01*
X160473732Y-53514141D01*
X160371292Y-53445692D01*
X160371283Y-53445687D01*
X160278477Y-53407246D01*
X160257452Y-53398537D01*
X160257448Y-53398536D01*
X160257444Y-53398535D01*
X160136610Y-53374500D01*
X160136606Y-53374500D01*
X160013394Y-53374500D01*
X160013389Y-53374500D01*
X159892555Y-53398535D01*
X159892545Y-53398538D01*
X159778716Y-53445687D01*
X159778707Y-53445692D01*
X159676267Y-53514141D01*
X159676263Y-53514144D01*
X159589144Y-53601263D01*
X159589141Y-53601267D01*
X159520692Y-53703707D01*
X159520687Y-53703716D01*
X159473538Y-53817545D01*
X159473535Y-53817555D01*
X159449500Y-53938389D01*
X111225499Y-53938389D01*
X111201463Y-53817548D01*
X111154311Y-53703714D01*
X111154310Y-53703713D01*
X111154307Y-53703707D01*
X111085858Y-53601267D01*
X111085855Y-53601263D01*
X110998736Y-53514144D01*
X110998732Y-53514141D01*
X110896292Y-53445692D01*
X110896283Y-53445687D01*
X110803477Y-53407246D01*
X110782452Y-53398537D01*
X110782448Y-53398536D01*
X110782444Y-53398535D01*
X110661610Y-53374500D01*
X110661606Y-53374500D01*
X110538394Y-53374500D01*
X110538389Y-53374500D01*
X110417555Y-53398535D01*
X110417545Y-53398538D01*
X110303716Y-53445687D01*
X110303707Y-53445692D01*
X110196202Y-53517526D01*
X110194922Y-53515611D01*
X110140050Y-53538913D01*
X110071183Y-53527119D01*
X110038019Y-53503427D01*
X110023736Y-53489144D01*
X110023732Y-53489141D01*
X109921292Y-53420692D01*
X109921283Y-53420687D01*
X109828477Y-53382246D01*
X109807452Y-53373537D01*
X109807448Y-53373536D01*
X109807444Y-53373535D01*
X109686610Y-53349500D01*
X109686606Y-53349500D01*
X109563394Y-53349500D01*
X109563389Y-53349500D01*
X109442555Y-53373535D01*
X109442545Y-53373538D01*
X109328716Y-53420687D01*
X109328707Y-53420692D01*
X109226267Y-53489141D01*
X109226263Y-53489144D01*
X109139144Y-53576263D01*
X109139141Y-53576267D01*
X109070692Y-53678707D01*
X109070687Y-53678716D01*
X109023538Y-53792545D01*
X109023535Y-53792555D01*
X108999500Y-53913389D01*
X60090554Y-53913389D01*
X60076463Y-53842548D01*
X60029311Y-53728714D01*
X60029310Y-53728713D01*
X60029307Y-53728707D01*
X59960858Y-53626267D01*
X59960855Y-53626263D01*
X59873736Y-53539144D01*
X59873732Y-53539141D01*
X59771292Y-53470692D01*
X59771283Y-53470687D01*
X59659878Y-53424542D01*
X59657452Y-53423537D01*
X59657448Y-53423536D01*
X59657444Y-53423535D01*
X59536610Y-53399500D01*
X59536606Y-53399500D01*
X59413394Y-53399500D01*
X59413389Y-53399500D01*
X59292556Y-53423535D01*
X59292551Y-53423536D01*
X59292548Y-53423537D01*
X59292545Y-53423537D01*
X59292542Y-53423539D01*
X59290121Y-53424542D01*
X59288752Y-53424689D01*
X59286722Y-53425305D01*
X59286605Y-53424919D01*
X59220652Y-53432005D01*
X59195226Y-53424538D01*
X59132458Y-53398539D01*
X59132454Y-53398537D01*
X59132452Y-53398537D01*
X59132448Y-53398536D01*
X59132444Y-53398535D01*
X59011610Y-53374500D01*
X59011606Y-53374500D01*
X58888394Y-53374500D01*
X58888389Y-53374500D01*
X58767555Y-53398535D01*
X58767545Y-53398538D01*
X58653716Y-53445687D01*
X58653707Y-53445692D01*
X58551267Y-53514141D01*
X58551263Y-53514144D01*
X58464144Y-53601263D01*
X58464141Y-53601267D01*
X58395692Y-53703707D01*
X58395687Y-53703716D01*
X58348538Y-53817545D01*
X58348535Y-53817555D01*
X58324500Y-53938389D01*
X35560500Y-53938389D01*
X35560500Y-52221153D01*
X56224500Y-52221153D01*
X56224500Y-52378846D01*
X56255261Y-52533489D01*
X56255264Y-52533501D01*
X56315602Y-52679172D01*
X56315609Y-52679185D01*
X56403210Y-52810288D01*
X56403213Y-52810292D01*
X56514707Y-52921786D01*
X56514711Y-52921789D01*
X56645814Y-53009390D01*
X56645827Y-53009397D01*
X56745060Y-53050500D01*
X56791503Y-53069737D01*
X56917176Y-53094735D01*
X56946153Y-53100499D01*
X56946156Y-53100500D01*
X56946158Y-53100500D01*
X57103844Y-53100500D01*
X57103845Y-53100499D01*
X57258497Y-53069737D01*
X57404179Y-53009394D01*
X57535289Y-52921789D01*
X57646789Y-52810289D01*
X57680196Y-52760292D01*
X57689823Y-52745885D01*
X57743435Y-52701079D01*
X57812760Y-52692372D01*
X57861816Y-52711673D01*
X57895814Y-52734390D01*
X57895827Y-52734397D01*
X58041498Y-52794735D01*
X58041503Y-52794737D01*
X58196153Y-52825499D01*
X58196156Y-52825500D01*
X58196158Y-52825500D01*
X58353844Y-52825500D01*
X58353845Y-52825499D01*
X58508497Y-52794737D01*
X58654179Y-52734394D01*
X58656187Y-52733051D01*
X58657400Y-52732672D01*
X58659546Y-52731525D01*
X58659763Y-52731931D01*
X58722859Y-52712169D01*
X58790241Y-52730647D01*
X58793971Y-52733044D01*
X58870821Y-52784394D01*
X58870823Y-52784395D01*
X58870827Y-52784397D01*
X59016498Y-52844735D01*
X59016503Y-52844737D01*
X59142176Y-52869735D01*
X59171153Y-52875499D01*
X59171156Y-52875500D01*
X59171158Y-52875500D01*
X59328844Y-52875500D01*
X59328845Y-52875499D01*
X59483497Y-52844737D01*
X59629179Y-52784394D01*
X59760289Y-52696789D01*
X59871789Y-52585289D01*
X59959394Y-52454179D01*
X60019737Y-52308497D01*
X60032138Y-52246153D01*
X61649500Y-52246153D01*
X61649500Y-52403846D01*
X61680261Y-52558489D01*
X61680264Y-52558501D01*
X61740602Y-52704172D01*
X61740609Y-52704185D01*
X61828210Y-52835288D01*
X61828213Y-52835292D01*
X61939707Y-52946786D01*
X61939711Y-52946789D01*
X62070814Y-53034390D01*
X62070827Y-53034397D01*
X62216498Y-53094735D01*
X62216503Y-53094737D01*
X62371153Y-53125499D01*
X62371156Y-53125500D01*
X62371158Y-53125500D01*
X62528844Y-53125500D01*
X62528845Y-53125499D01*
X62683497Y-53094737D01*
X62829179Y-53034394D01*
X62960289Y-52946789D01*
X63071789Y-52835289D01*
X63159394Y-52704179D01*
X63219737Y-52558497D01*
X63250500Y-52403842D01*
X63250500Y-52246158D01*
X63250500Y-52246155D01*
X63239182Y-52189258D01*
X63239182Y-52189257D01*
X63235581Y-52171153D01*
X106849500Y-52171153D01*
X106849500Y-52328846D01*
X106880261Y-52483489D01*
X106880264Y-52483501D01*
X106940602Y-52629172D01*
X106940609Y-52629185D01*
X107028210Y-52760288D01*
X107028213Y-52760292D01*
X107139707Y-52871786D01*
X107139711Y-52871789D01*
X107270814Y-52959390D01*
X107270827Y-52959397D01*
X107416498Y-53019735D01*
X107416503Y-53019737D01*
X107542176Y-53044735D01*
X107571153Y-53050499D01*
X107571156Y-53050500D01*
X107571158Y-53050500D01*
X107728844Y-53050500D01*
X107728845Y-53050499D01*
X107883497Y-53019737D01*
X108029179Y-52959394D01*
X108160289Y-52871789D01*
X108271789Y-52760289D01*
X108280191Y-52747713D01*
X108333802Y-52702907D01*
X108403127Y-52694198D01*
X108466155Y-52724351D01*
X108486397Y-52747711D01*
X108528210Y-52810288D01*
X108528213Y-52810292D01*
X108639707Y-52921786D01*
X108639711Y-52921789D01*
X108770814Y-53009390D01*
X108770827Y-53009397D01*
X108870060Y-53050500D01*
X108916503Y-53069737D01*
X109042176Y-53094735D01*
X109071153Y-53100499D01*
X109071156Y-53100500D01*
X109071158Y-53100500D01*
X109228844Y-53100500D01*
X109228845Y-53100499D01*
X109383497Y-53069737D01*
X109529179Y-53009394D01*
X109599901Y-52962138D01*
X109666578Y-52941261D01*
X109733958Y-52959745D01*
X109737683Y-52962139D01*
X109845814Y-53034390D01*
X109845827Y-53034397D01*
X109991498Y-53094735D01*
X109991503Y-53094737D01*
X110146153Y-53125499D01*
X110146156Y-53125500D01*
X110146158Y-53125500D01*
X110303844Y-53125500D01*
X110303845Y-53125499D01*
X110458497Y-53094737D01*
X110604179Y-53034394D01*
X110735289Y-52946789D01*
X110846789Y-52835289D01*
X110934394Y-52704179D01*
X110994737Y-52558497D01*
X111025500Y-52403842D01*
X111025500Y-52246158D01*
X111025500Y-52246155D01*
X111009209Y-52164258D01*
X111009209Y-52164257D01*
X111005608Y-52146153D01*
X112349500Y-52146153D01*
X112349500Y-52303846D01*
X112380261Y-52458489D01*
X112380264Y-52458501D01*
X112440602Y-52604172D01*
X112440609Y-52604185D01*
X112528210Y-52735288D01*
X112528213Y-52735292D01*
X112639707Y-52846786D01*
X112639711Y-52846789D01*
X112770814Y-52934390D01*
X112770827Y-52934397D01*
X112916498Y-52994735D01*
X112916503Y-52994737D01*
X113042176Y-53019735D01*
X113071153Y-53025499D01*
X113071156Y-53025500D01*
X113071158Y-53025500D01*
X113228844Y-53025500D01*
X113228845Y-53025499D01*
X113383497Y-52994737D01*
X113504213Y-52944735D01*
X113529172Y-52934397D01*
X113529172Y-52934396D01*
X113529179Y-52934394D01*
X113660289Y-52846789D01*
X113771789Y-52735289D01*
X113859394Y-52604179D01*
X113919737Y-52458497D01*
X113950500Y-52303842D01*
X113950500Y-52146158D01*
X113950500Y-52146155D01*
X113944155Y-52114258D01*
X113944155Y-52114257D01*
X113940554Y-52096153D01*
X157349500Y-52096153D01*
X157349500Y-52253846D01*
X157380261Y-52408489D01*
X157380264Y-52408501D01*
X157440602Y-52554172D01*
X157440609Y-52554185D01*
X157528210Y-52685288D01*
X157528213Y-52685292D01*
X157639707Y-52796786D01*
X157639711Y-52796789D01*
X157770814Y-52884390D01*
X157770827Y-52884397D01*
X157908111Y-52941261D01*
X157916503Y-52944737D01*
X158071153Y-52975499D01*
X158071156Y-52975500D01*
X158071158Y-52975500D01*
X158228844Y-52975500D01*
X158228845Y-52975499D01*
X158383497Y-52944737D01*
X158529179Y-52884394D01*
X158660289Y-52796789D01*
X158771789Y-52685289D01*
X158809285Y-52629172D01*
X158838602Y-52585297D01*
X158892214Y-52540491D01*
X158961539Y-52531784D01*
X159024566Y-52561938D01*
X159044806Y-52585296D01*
X159078210Y-52635288D01*
X159078213Y-52635292D01*
X159189707Y-52746786D01*
X159189711Y-52746789D01*
X159320814Y-52834390D01*
X159320827Y-52834397D01*
X159466498Y-52894735D01*
X159466503Y-52894737D01*
X159602487Y-52921786D01*
X159621153Y-52925499D01*
X159621156Y-52925500D01*
X159621158Y-52925500D01*
X159778844Y-52925500D01*
X159778845Y-52925499D01*
X159933497Y-52894737D01*
X160079179Y-52834394D01*
X160210289Y-52746789D01*
X160321789Y-52635289D01*
X160355193Y-52585297D01*
X160380250Y-52547797D01*
X160433862Y-52502991D01*
X160503187Y-52494284D01*
X160566214Y-52524438D01*
X160586454Y-52547796D01*
X160628210Y-52610288D01*
X160628213Y-52610292D01*
X160739707Y-52721786D01*
X160739711Y-52721789D01*
X160870814Y-52809390D01*
X160870827Y-52809397D01*
X160961101Y-52846789D01*
X161016503Y-52869737D01*
X161142176Y-52894735D01*
X161171153Y-52900499D01*
X161171156Y-52900500D01*
X161171158Y-52900500D01*
X161328844Y-52900500D01*
X161328845Y-52900499D01*
X161483497Y-52869737D01*
X161627021Y-52810288D01*
X161629172Y-52809397D01*
X161629172Y-52809396D01*
X161629179Y-52809394D01*
X161760289Y-52721789D01*
X161871789Y-52610289D01*
X161959394Y-52479179D01*
X162019737Y-52333497D01*
X162043899Y-52212029D01*
X162047057Y-52196153D01*
X163024500Y-52196153D01*
X163024500Y-52353846D01*
X163055261Y-52508489D01*
X163055264Y-52508501D01*
X163115602Y-52654172D01*
X163115609Y-52654185D01*
X163203210Y-52785288D01*
X163203213Y-52785292D01*
X163314707Y-52896786D01*
X163314711Y-52896789D01*
X163445814Y-52984390D01*
X163445827Y-52984397D01*
X163591498Y-53044735D01*
X163591503Y-53044737D01*
X163717176Y-53069735D01*
X163746153Y-53075499D01*
X163746156Y-53075500D01*
X163746158Y-53075500D01*
X163903844Y-53075500D01*
X163903845Y-53075499D01*
X164058497Y-53044737D01*
X164204179Y-52984394D01*
X164335289Y-52896789D01*
X164446789Y-52785289D01*
X164534394Y-52654179D01*
X164594737Y-52508497D01*
X164625500Y-52353842D01*
X164625500Y-52196158D01*
X164625500Y-52196155D01*
X164625499Y-52196153D01*
X164599264Y-52064257D01*
X164595662Y-52046153D01*
X208149500Y-52046153D01*
X208149500Y-52203846D01*
X208180261Y-52358489D01*
X208180264Y-52358501D01*
X208240602Y-52504172D01*
X208240609Y-52504185D01*
X208328210Y-52635288D01*
X208328213Y-52635292D01*
X208439707Y-52746786D01*
X208439711Y-52746789D01*
X208570814Y-52834390D01*
X208570827Y-52834397D01*
X208716498Y-52894735D01*
X208716503Y-52894737D01*
X208852487Y-52921786D01*
X208871153Y-52925499D01*
X208871156Y-52925500D01*
X208871158Y-52925500D01*
X209028844Y-52925500D01*
X209028845Y-52925499D01*
X209183497Y-52894737D01*
X209329179Y-52834394D01*
X209460289Y-52746789D01*
X209571789Y-52635289D01*
X209659394Y-52504179D01*
X209719737Y-52358497D01*
X209730609Y-52303842D01*
X209736557Y-52273940D01*
X209768942Y-52212029D01*
X209829657Y-52177455D01*
X209899427Y-52181194D01*
X209956099Y-52222061D01*
X209972735Y-52250679D01*
X210015602Y-52354172D01*
X210015609Y-52354185D01*
X210103210Y-52485288D01*
X210103213Y-52485292D01*
X210214707Y-52596786D01*
X210214711Y-52596789D01*
X210345814Y-52684390D01*
X210345827Y-52684397D01*
X210491498Y-52744735D01*
X210491503Y-52744737D01*
X210646153Y-52775499D01*
X210646156Y-52775500D01*
X210789910Y-52775500D01*
X210856949Y-52795185D01*
X210893012Y-52830609D01*
X210928210Y-52883286D01*
X210928213Y-52883290D01*
X211039707Y-52994784D01*
X211039711Y-52994787D01*
X211170814Y-53082388D01*
X211170827Y-53082395D01*
X211316498Y-53142733D01*
X211316503Y-53142735D01*
X211471153Y-53173497D01*
X211471156Y-53173498D01*
X211471158Y-53173498D01*
X211558285Y-53173498D01*
X211628842Y-53173498D01*
X211783497Y-53142735D01*
X211929179Y-53082392D01*
X212060289Y-52994787D01*
X212171789Y-52883287D01*
X212259394Y-52752177D01*
X212319737Y-52606495D01*
X212350500Y-52451840D01*
X212350500Y-52294156D01*
X212340952Y-52246153D01*
X213699500Y-52246153D01*
X213699500Y-52403846D01*
X213730261Y-52558489D01*
X213730264Y-52558501D01*
X213790602Y-52704172D01*
X213790609Y-52704185D01*
X213878210Y-52835288D01*
X213878213Y-52835292D01*
X213989707Y-52946786D01*
X213989711Y-52946789D01*
X214120814Y-53034390D01*
X214120827Y-53034397D01*
X214266498Y-53094735D01*
X214266503Y-53094737D01*
X214421153Y-53125499D01*
X214421156Y-53125500D01*
X214421158Y-53125500D01*
X214578844Y-53125500D01*
X214578845Y-53125499D01*
X214733497Y-53094737D01*
X214879179Y-53034394D01*
X215010289Y-52946789D01*
X215121789Y-52835289D01*
X215209394Y-52704179D01*
X215269737Y-52558497D01*
X215300500Y-52403842D01*
X215300500Y-52246158D01*
X215300500Y-52246155D01*
X215300499Y-52246153D01*
X215293009Y-52208497D01*
X215269737Y-52091503D01*
X215259380Y-52066498D01*
X215209397Y-51945827D01*
X215209390Y-51945814D01*
X215121789Y-51814711D01*
X215121786Y-51814707D01*
X215010292Y-51703213D01*
X215010288Y-51703210D01*
X214879185Y-51615609D01*
X214879172Y-51615602D01*
X214733501Y-51555264D01*
X214733489Y-51555261D01*
X214578845Y-51524500D01*
X214578842Y-51524500D01*
X214421158Y-51524500D01*
X214421155Y-51524500D01*
X214266510Y-51555261D01*
X214266498Y-51555264D01*
X214120827Y-51615602D01*
X214120814Y-51615609D01*
X213989711Y-51703210D01*
X213989707Y-51703213D01*
X213878213Y-51814707D01*
X213878210Y-51814711D01*
X213790609Y-51945814D01*
X213790602Y-51945827D01*
X213730264Y-52091498D01*
X213730261Y-52091510D01*
X213699500Y-52246153D01*
X212340952Y-52246153D01*
X212319737Y-52139501D01*
X212299854Y-52091498D01*
X212259397Y-51993825D01*
X212259390Y-51993812D01*
X212171789Y-51862709D01*
X212171786Y-51862705D01*
X212060292Y-51751211D01*
X212060288Y-51751208D01*
X211929185Y-51663607D01*
X211929172Y-51663600D01*
X211783501Y-51603262D01*
X211783489Y-51603259D01*
X211628845Y-51572498D01*
X211628842Y-51572498D01*
X211485089Y-51572498D01*
X211418050Y-51552813D01*
X211381987Y-51517389D01*
X211346789Y-51464711D01*
X211346787Y-51464708D01*
X211235292Y-51353213D01*
X211235288Y-51353210D01*
X211104185Y-51265609D01*
X211104172Y-51265602D01*
X210958501Y-51205264D01*
X210958489Y-51205261D01*
X210803845Y-51174500D01*
X210803842Y-51174500D01*
X210646158Y-51174500D01*
X210646155Y-51174500D01*
X210491510Y-51205261D01*
X210491498Y-51205264D01*
X210345827Y-51265602D01*
X210345814Y-51265609D01*
X210214711Y-51353210D01*
X210214707Y-51353213D01*
X210103213Y-51464707D01*
X210103210Y-51464711D01*
X210015609Y-51595814D01*
X210015602Y-51595827D01*
X209955264Y-51741498D01*
X209955261Y-51741507D01*
X209938442Y-51826061D01*
X209906056Y-51887971D01*
X209845340Y-51922545D01*
X209775571Y-51918804D01*
X209718899Y-51877937D01*
X209702267Y-51849328D01*
X209659394Y-51745821D01*
X209659392Y-51745818D01*
X209659390Y-51745814D01*
X209571789Y-51614711D01*
X209571786Y-51614707D01*
X209460292Y-51503213D01*
X209460288Y-51503210D01*
X209329185Y-51415609D01*
X209329172Y-51415602D01*
X209183501Y-51355264D01*
X209183489Y-51355261D01*
X209028845Y-51324500D01*
X209028842Y-51324500D01*
X208871158Y-51324500D01*
X208871155Y-51324500D01*
X208716510Y-51355261D01*
X208716498Y-51355264D01*
X208570827Y-51415602D01*
X208570814Y-51415609D01*
X208439711Y-51503210D01*
X208439707Y-51503213D01*
X208328213Y-51614707D01*
X208328210Y-51614711D01*
X208240609Y-51745814D01*
X208240602Y-51745827D01*
X208180264Y-51891498D01*
X208180261Y-51891510D01*
X208149500Y-52046153D01*
X164595662Y-52046153D01*
X164594738Y-52041507D01*
X164594735Y-52041498D01*
X164534397Y-51895827D01*
X164534390Y-51895814D01*
X164446789Y-51764711D01*
X164446786Y-51764707D01*
X164335292Y-51653213D01*
X164335288Y-51653210D01*
X164204185Y-51565609D01*
X164204172Y-51565602D01*
X164058501Y-51505264D01*
X164058489Y-51505261D01*
X163903845Y-51474500D01*
X163903842Y-51474500D01*
X163746158Y-51474500D01*
X163746155Y-51474500D01*
X163591510Y-51505261D01*
X163591498Y-51505264D01*
X163445827Y-51565602D01*
X163445814Y-51565609D01*
X163314711Y-51653210D01*
X163314707Y-51653213D01*
X163203213Y-51764707D01*
X163203210Y-51764711D01*
X163115609Y-51895814D01*
X163115602Y-51895827D01*
X163055264Y-52041498D01*
X163055261Y-52041510D01*
X163024500Y-52196153D01*
X162047057Y-52196153D01*
X162050500Y-52178845D01*
X162050500Y-52021155D01*
X162050499Y-52021153D01*
X162045527Y-51996158D01*
X162019737Y-51866503D01*
X162019735Y-51866498D01*
X161959397Y-51720827D01*
X161959390Y-51720814D01*
X161871789Y-51589711D01*
X161871786Y-51589707D01*
X161760292Y-51478213D01*
X161760288Y-51478210D01*
X161629185Y-51390609D01*
X161629172Y-51390602D01*
X161483501Y-51330264D01*
X161483489Y-51330261D01*
X161328845Y-51299500D01*
X161328842Y-51299500D01*
X161171158Y-51299500D01*
X161171155Y-51299500D01*
X161016510Y-51330261D01*
X161016498Y-51330264D01*
X160870827Y-51390602D01*
X160870814Y-51390609D01*
X160739711Y-51478210D01*
X160739707Y-51478213D01*
X160628213Y-51589707D01*
X160569749Y-51677204D01*
X160516136Y-51722008D01*
X160446811Y-51730715D01*
X160383784Y-51700560D01*
X160363545Y-51677203D01*
X160321789Y-51614710D01*
X160210292Y-51503213D01*
X160210288Y-51503210D01*
X160079185Y-51415609D01*
X160079172Y-51415602D01*
X159933501Y-51355264D01*
X159933489Y-51355261D01*
X159778845Y-51324500D01*
X159778842Y-51324500D01*
X159621158Y-51324500D01*
X159621155Y-51324500D01*
X159466510Y-51355261D01*
X159466498Y-51355264D01*
X159320827Y-51415602D01*
X159320814Y-51415609D01*
X159189711Y-51503210D01*
X159189707Y-51503213D01*
X159078213Y-51614707D01*
X159078210Y-51614711D01*
X159011397Y-51714703D01*
X158957784Y-51759508D01*
X158888459Y-51768215D01*
X158825432Y-51738060D01*
X158805193Y-51714703D01*
X158771789Y-51664711D01*
X158771786Y-51664707D01*
X158660292Y-51553213D01*
X158660288Y-51553210D01*
X158529185Y-51465609D01*
X158529172Y-51465602D01*
X158383501Y-51405264D01*
X158383489Y-51405261D01*
X158228845Y-51374500D01*
X158228842Y-51374500D01*
X158071158Y-51374500D01*
X158071155Y-51374500D01*
X157916510Y-51405261D01*
X157916498Y-51405264D01*
X157770827Y-51465602D01*
X157770814Y-51465609D01*
X157639711Y-51553210D01*
X157639707Y-51553213D01*
X157528213Y-51664707D01*
X157528210Y-51664711D01*
X157440609Y-51795814D01*
X157440602Y-51795827D01*
X157380264Y-51941498D01*
X157380261Y-51941510D01*
X157349500Y-52096153D01*
X113940554Y-52096153D01*
X113920199Y-51993825D01*
X113919737Y-51991503D01*
X113900812Y-51945814D01*
X113859397Y-51845827D01*
X113859390Y-51845814D01*
X113771789Y-51714711D01*
X113771786Y-51714707D01*
X113660292Y-51603213D01*
X113660288Y-51603210D01*
X113529185Y-51515609D01*
X113529172Y-51515602D01*
X113383501Y-51455264D01*
X113383489Y-51455261D01*
X113228845Y-51424500D01*
X113228842Y-51424500D01*
X113071158Y-51424500D01*
X113071155Y-51424500D01*
X112916510Y-51455261D01*
X112916498Y-51455264D01*
X112770827Y-51515602D01*
X112770814Y-51515609D01*
X112639711Y-51603210D01*
X112639707Y-51603213D01*
X112528213Y-51714707D01*
X112528210Y-51714711D01*
X112440609Y-51845814D01*
X112440602Y-51845827D01*
X112380264Y-51991498D01*
X112380261Y-51991510D01*
X112349500Y-52146153D01*
X111005608Y-52146153D01*
X110994738Y-52091510D01*
X110994737Y-52091503D01*
X110984380Y-52066498D01*
X110934397Y-51945827D01*
X110934390Y-51945814D01*
X110846789Y-51814711D01*
X110846786Y-51814707D01*
X110735292Y-51703213D01*
X110735288Y-51703210D01*
X110604185Y-51615609D01*
X110604172Y-51615602D01*
X110458501Y-51555264D01*
X110458489Y-51555261D01*
X110303845Y-51524500D01*
X110303842Y-51524500D01*
X110146158Y-51524500D01*
X110146155Y-51524500D01*
X109991510Y-51555261D01*
X109991498Y-51555264D01*
X109845827Y-51615602D01*
X109845816Y-51615608D01*
X109775097Y-51662861D01*
X109708419Y-51683738D01*
X109641039Y-51665253D01*
X109637316Y-51662860D01*
X109529185Y-51590609D01*
X109529172Y-51590602D01*
X109383501Y-51530264D01*
X109383489Y-51530261D01*
X109228845Y-51499500D01*
X109228842Y-51499500D01*
X109071158Y-51499500D01*
X109071155Y-51499500D01*
X108916510Y-51530261D01*
X108916498Y-51530264D01*
X108770827Y-51590602D01*
X108770814Y-51590609D01*
X108639711Y-51678210D01*
X108639707Y-51678213D01*
X108528212Y-51789708D01*
X108519804Y-51802292D01*
X108466190Y-51847095D01*
X108396864Y-51855800D01*
X108333838Y-51825642D01*
X108313602Y-51802288D01*
X108271789Y-51739711D01*
X108271786Y-51739707D01*
X108160292Y-51628213D01*
X108160288Y-51628210D01*
X108029185Y-51540609D01*
X108029172Y-51540602D01*
X107883501Y-51480264D01*
X107883489Y-51480261D01*
X107728845Y-51449500D01*
X107728842Y-51449500D01*
X107571158Y-51449500D01*
X107571155Y-51449500D01*
X107416510Y-51480261D01*
X107416498Y-51480264D01*
X107270827Y-51540602D01*
X107270814Y-51540609D01*
X107139711Y-51628210D01*
X107139707Y-51628213D01*
X107028213Y-51739707D01*
X107028210Y-51739711D01*
X106940609Y-51870814D01*
X106940602Y-51870827D01*
X106880264Y-52016498D01*
X106880261Y-52016510D01*
X106849500Y-52171153D01*
X63235581Y-52171153D01*
X63219738Y-52091510D01*
X63219737Y-52091503D01*
X63209380Y-52066498D01*
X63159397Y-51945827D01*
X63159390Y-51945814D01*
X63071789Y-51814711D01*
X63071786Y-51814707D01*
X62960292Y-51703213D01*
X62960288Y-51703210D01*
X62829185Y-51615609D01*
X62829172Y-51615602D01*
X62683501Y-51555264D01*
X62683489Y-51555261D01*
X62528845Y-51524500D01*
X62528842Y-51524500D01*
X62371158Y-51524500D01*
X62371155Y-51524500D01*
X62216510Y-51555261D01*
X62216498Y-51555264D01*
X62070827Y-51615602D01*
X62070814Y-51615609D01*
X61939711Y-51703210D01*
X61939707Y-51703213D01*
X61828213Y-51814707D01*
X61828210Y-51814711D01*
X61740609Y-51945814D01*
X61740602Y-51945827D01*
X61680264Y-52091498D01*
X61680261Y-52091510D01*
X61649500Y-52246153D01*
X60032138Y-52246153D01*
X60042083Y-52196158D01*
X60050500Y-52153844D01*
X60050500Y-51996155D01*
X60050499Y-51996153D01*
X60019737Y-51841503D01*
X60013167Y-51825642D01*
X59959397Y-51695827D01*
X59959390Y-51695814D01*
X59871789Y-51564711D01*
X59871786Y-51564707D01*
X59760292Y-51453213D01*
X59760288Y-51453210D01*
X59629185Y-51365609D01*
X59629172Y-51365602D01*
X59483501Y-51305264D01*
X59483489Y-51305261D01*
X59328845Y-51274500D01*
X59328842Y-51274500D01*
X59171158Y-51274500D01*
X59171155Y-51274500D01*
X59016510Y-51305261D01*
X59016498Y-51305264D01*
X58870828Y-51365602D01*
X58870816Y-51365609D01*
X58868802Y-51366955D01*
X58867586Y-51367335D01*
X58865447Y-51368479D01*
X58865230Y-51368073D01*
X58802124Y-51387830D01*
X58734744Y-51369343D01*
X58731024Y-51366952D01*
X58654185Y-51315609D01*
X58654172Y-51315602D01*
X58508501Y-51255264D01*
X58508489Y-51255261D01*
X58353845Y-51224500D01*
X58353842Y-51224500D01*
X58196158Y-51224500D01*
X58196155Y-51224500D01*
X58041510Y-51255261D01*
X58041498Y-51255264D01*
X57895827Y-51315602D01*
X57895814Y-51315609D01*
X57764711Y-51403210D01*
X57764707Y-51403213D01*
X57653213Y-51514707D01*
X57653208Y-51514713D01*
X57610175Y-51579116D01*
X57556563Y-51623920D01*
X57487237Y-51632627D01*
X57438183Y-51613326D01*
X57404185Y-51590609D01*
X57404172Y-51590602D01*
X57258501Y-51530264D01*
X57258489Y-51530261D01*
X57103845Y-51499500D01*
X57103842Y-51499500D01*
X56946158Y-51499500D01*
X56946155Y-51499500D01*
X56791510Y-51530261D01*
X56791498Y-51530264D01*
X56645827Y-51590602D01*
X56645814Y-51590609D01*
X56514711Y-51678210D01*
X56514707Y-51678213D01*
X56403213Y-51789707D01*
X56403210Y-51789711D01*
X56315609Y-51920814D01*
X56315602Y-51920827D01*
X56255264Y-52066498D01*
X56255261Y-52066510D01*
X56224500Y-52221153D01*
X35560500Y-52221153D01*
X35560500Y-31124500D01*
X35580185Y-31057461D01*
X35632989Y-31011706D01*
X35684500Y-31000500D01*
X236095500Y-31000500D01*
X236162539Y-31020185D01*
G37*
G04 #@! TD.AperFunction*
M02*
