G04 #@! TF.GenerationSoftware,KiCad,Pcbnew,10.0.0*
G04 #@! TF.CreationDate,2026-07-20T15:28:36-05:00*
G04 #@! TF.ProjectId,SBSP Control Board,53425350-2043-46f6-9e74-726f6c20426f,rev?*
G04 #@! TF.SameCoordinates,Original*
G04 #@! TF.FileFunction,Copper,L1,Top*
G04 #@! TF.FilePolarity,Positive*
%FSLAX46Y46*%
G04 Gerber Fmt 4.6, Leading zero omitted, Abs format (unit mm)*
G04 Created by KiCad (PCBNEW 10.0.0) date 2026-07-20 15:28:36*
%MOMM*%
%LPD*%
G01*
G04 APERTURE LIST*
G04 #@! TA.AperFunction,SMDPad,CuDef*
%ADD10R,1.500000X5.080000*%
G04 #@! TD*
G04 #@! TA.AperFunction,SMDPad,CuDef*
%ADD11R,4.241800X3.251200*%
G04 #@! TD*
G04 #@! TA.AperFunction,SMDPad,CuDef*
%ADD12R,0.254000X0.254000*%
G04 #@! TD*
G04 #@! TA.AperFunction,SMDPad,CuDef*
%ADD13R,1.900000X1.000000*%
G04 #@! TD*
G04 #@! TA.AperFunction,Conductor*
%ADD14C,0.200000*%
G04 #@! TD*
G04 #@! TA.AperFunction,Conductor*
%ADD15C,0.300000*%
G04 #@! TD*
G04 APERTURE END LIST*
G04 #@! TA.AperFunction,SMDPad,CuDef*
G36*
G01*
X135790000Y-115185000D02*
X135790000Y-114635000D01*
G75*
G02*
X135990000Y-114435000I200000J0D01*
G01*
X136390000Y-114435000D01*
G75*
G02*
X136590000Y-114635000I0J-200000D01*
G01*
X136590000Y-115185000D01*
G75*
G02*
X136390000Y-115385000I-200000J0D01*
G01*
X135990000Y-115385000D01*
G75*
G02*
X135790000Y-115185000I0J200000D01*
G01*
G37*
G04 #@! TD.AperFunction*
G04 #@! TA.AperFunction,SMDPad,CuDef*
G36*
G01*
X137440000Y-115185000D02*
X137440000Y-114635000D01*
G75*
G02*
X137640000Y-114435000I200000J0D01*
G01*
X138040000Y-114435000D01*
G75*
G02*
X138240000Y-114635000I0J-200000D01*
G01*
X138240000Y-115185000D01*
G75*
G02*
X138040000Y-115385000I-200000J0D01*
G01*
X137640000Y-115385000D01*
G75*
G02*
X137440000Y-115185000I0J200000D01*
G01*
G37*
G04 #@! TD.AperFunction*
G04 #@! TA.AperFunction,SMDPad,CuDef*
G36*
G01*
X135790000Y-111875000D02*
X135790000Y-111325000D01*
G75*
G02*
X135990000Y-111125000I200000J0D01*
G01*
X136390000Y-111125000D01*
G75*
G02*
X136590000Y-111325000I0J-200000D01*
G01*
X136590000Y-111875000D01*
G75*
G02*
X136390000Y-112075000I-200000J0D01*
G01*
X135990000Y-112075000D01*
G75*
G02*
X135790000Y-111875000I0J200000D01*
G01*
G37*
G04 #@! TD.AperFunction*
G04 #@! TA.AperFunction,SMDPad,CuDef*
G36*
G01*
X137440000Y-111875000D02*
X137440000Y-111325000D01*
G75*
G02*
X137640000Y-111125000I200000J0D01*
G01*
X138040000Y-111125000D01*
G75*
G02*
X138240000Y-111325000I0J-200000D01*
G01*
X138240000Y-111875000D01*
G75*
G02*
X138040000Y-112075000I-200000J0D01*
G01*
X137640000Y-112075000D01*
G75*
G02*
X137440000Y-111875000I0J200000D01*
G01*
G37*
G04 #@! TD.AperFunction*
D10*
X193040000Y-33302500D03*
X188790000Y-33302500D03*
X197290000Y-33302500D03*
X180340000Y-33302500D03*
X176090000Y-33302500D03*
X184590000Y-33302500D03*
X91440000Y-33302500D03*
X87190000Y-33302500D03*
X95690000Y-33302500D03*
X129600000Y-33362500D03*
X125350000Y-33362500D03*
X133850000Y-33362500D03*
X218440000Y-33302500D03*
X214190000Y-33302500D03*
X222690000Y-33302500D03*
D11*
X59960000Y-56000000D03*
D12*
X62960000Y-59000000D03*
X62460000Y-59000000D03*
X61960000Y-59000000D03*
X61460000Y-59000000D03*
X60960000Y-59000000D03*
X60460000Y-59000000D03*
X59960000Y-59000000D03*
X59460000Y-59000000D03*
X58960000Y-59000000D03*
X58460000Y-59000000D03*
X57960000Y-59000000D03*
X57460000Y-59000000D03*
X56960000Y-59000000D03*
X62960000Y-58500000D03*
X62460000Y-58500000D03*
X61960000Y-58500000D03*
X61460000Y-58500000D03*
X60960000Y-58500000D03*
X60460000Y-58500000D03*
X59960000Y-58500000D03*
X59460000Y-58500000D03*
X58960000Y-58500000D03*
X58460000Y-58500000D03*
X57960000Y-58500000D03*
X57460000Y-58500000D03*
X56960000Y-58500000D03*
X62960000Y-58000000D03*
X62460000Y-58000000D03*
X57460000Y-58000000D03*
X56960000Y-58000000D03*
X62960000Y-57500000D03*
X62460000Y-57500000D03*
X57460000Y-57500000D03*
X56960000Y-57500000D03*
X62960000Y-57000000D03*
X62460000Y-57000000D03*
X57460000Y-57000000D03*
X56960000Y-57000000D03*
X62960000Y-56500000D03*
X62460000Y-56500000D03*
X57460000Y-56500000D03*
X56960000Y-56500000D03*
X62960000Y-56000000D03*
X62460000Y-56000000D03*
X57460000Y-56000000D03*
X56960000Y-56000000D03*
X62960000Y-55500000D03*
X62460000Y-55500000D03*
X57460000Y-55500000D03*
X56960000Y-55500000D03*
X62960000Y-55000000D03*
X62460000Y-55000000D03*
X57460000Y-55000000D03*
X56960000Y-55000000D03*
X62960000Y-54500000D03*
X62460000Y-54500000D03*
X57460000Y-54500000D03*
X56960000Y-54500000D03*
X62960000Y-54000000D03*
X62460000Y-54000000D03*
X57460000Y-54000000D03*
X56960000Y-54000000D03*
X62960000Y-53500000D03*
X62460000Y-53500000D03*
X61960000Y-53500000D03*
X61460000Y-53500000D03*
X60960000Y-53500000D03*
X60460000Y-53500000D03*
X59960000Y-53500000D03*
X59460000Y-53500000D03*
X58960000Y-53500000D03*
X58460000Y-53500000D03*
X57960000Y-53500000D03*
X57460000Y-53500000D03*
X56960000Y-53500000D03*
X62960000Y-53000000D03*
X62460000Y-53000000D03*
X61960000Y-53000000D03*
X61460000Y-53000000D03*
X60960000Y-53000000D03*
X60460000Y-53000000D03*
X59960000Y-53000000D03*
X59460000Y-53000000D03*
X58960000Y-53000000D03*
X58460000Y-53000000D03*
X57960000Y-53000000D03*
X57460000Y-53000000D03*
X56960000Y-53000000D03*
D10*
X40640000Y-33302500D03*
X36390000Y-33302500D03*
X44890000Y-33302500D03*
X116840000Y-33302500D03*
X112590000Y-33302500D03*
X121090000Y-33302500D03*
D11*
X161320000Y-56000000D03*
D12*
X164320000Y-59000000D03*
X163820000Y-59000000D03*
X163320000Y-59000000D03*
X162820000Y-59000000D03*
X162320000Y-59000000D03*
X161820000Y-59000000D03*
X161320000Y-59000000D03*
X160820000Y-59000000D03*
X160320000Y-59000000D03*
X159820000Y-59000000D03*
X159320000Y-59000000D03*
X158820000Y-59000000D03*
X158320000Y-59000000D03*
X164320000Y-58500000D03*
X163820000Y-58500000D03*
X163320000Y-58500000D03*
X162820000Y-58500000D03*
X162320000Y-58500000D03*
X161820000Y-58500000D03*
X161320000Y-58500000D03*
X160820000Y-58500000D03*
X160320000Y-58500000D03*
X159820000Y-58500000D03*
X159320000Y-58500000D03*
X158820000Y-58500000D03*
X158320000Y-58500000D03*
X164320000Y-58000000D03*
X163820000Y-58000000D03*
X158820000Y-58000000D03*
X158320000Y-58000000D03*
X164320000Y-57500000D03*
X163820000Y-57500000D03*
X158820000Y-57500000D03*
X158320000Y-57500000D03*
X164320000Y-57000000D03*
X163820000Y-57000000D03*
X158820000Y-57000000D03*
X158320000Y-57000000D03*
X164320000Y-56500000D03*
X163820000Y-56500000D03*
X158820000Y-56500000D03*
X158320000Y-56500000D03*
X164320000Y-56000000D03*
X163820000Y-56000000D03*
X158820000Y-56000000D03*
X158320000Y-56000000D03*
X164320000Y-55500000D03*
X163820000Y-55500000D03*
X158820000Y-55500000D03*
X158320000Y-55500000D03*
X164320000Y-55000000D03*
X163820000Y-55000000D03*
X158820000Y-55000000D03*
X158320000Y-55000000D03*
X164320000Y-54500000D03*
X163820000Y-54500000D03*
X158820000Y-54500000D03*
X158320000Y-54500000D03*
X164320000Y-54000000D03*
X163820000Y-54000000D03*
X158820000Y-54000000D03*
X158320000Y-54000000D03*
X164320000Y-53500000D03*
X163820000Y-53500000D03*
X163320000Y-53500000D03*
X162820000Y-53500000D03*
X162320000Y-53500000D03*
X161820000Y-53500000D03*
X161320000Y-53500000D03*
X160820000Y-53500000D03*
X160320000Y-53500000D03*
X159820000Y-53500000D03*
X159320000Y-53500000D03*
X158820000Y-53500000D03*
X158320000Y-53500000D03*
X164320000Y-53000000D03*
X163820000Y-53000000D03*
X163320000Y-53000000D03*
X162820000Y-53000000D03*
X162320000Y-53000000D03*
X161820000Y-53000000D03*
X161320000Y-53000000D03*
X160820000Y-53000000D03*
X160320000Y-53000000D03*
X159820000Y-53000000D03*
X159320000Y-53000000D03*
X158820000Y-53000000D03*
X158320000Y-53000000D03*
G04 #@! TA.AperFunction,SMDPad,CuDef*
G36*
G01*
X130180000Y-125115000D02*
X130180000Y-124565000D01*
G75*
G02*
X130380000Y-124365000I200000J0D01*
G01*
X130780000Y-124365000D01*
G75*
G02*
X130980000Y-124565000I0J-200000D01*
G01*
X130980000Y-125115000D01*
G75*
G02*
X130780000Y-125315000I-200000J0D01*
G01*
X130380000Y-125315000D01*
G75*
G02*
X130180000Y-125115000I0J200000D01*
G01*
G37*
G04 #@! TD.AperFunction*
G04 #@! TA.AperFunction,SMDPad,CuDef*
G36*
G01*
X131830000Y-125115000D02*
X131830000Y-124565000D01*
G75*
G02*
X132030000Y-124365000I200000J0D01*
G01*
X132430000Y-124365000D01*
G75*
G02*
X132630000Y-124565000I0J-200000D01*
G01*
X132630000Y-125115000D01*
G75*
G02*
X132430000Y-125315000I-200000J0D01*
G01*
X132030000Y-125315000D01*
G75*
G02*
X131830000Y-125115000I0J200000D01*
G01*
G37*
G04 #@! TD.AperFunction*
D10*
X66040000Y-33302500D03*
X61790000Y-33302500D03*
X70290000Y-33302500D03*
X167640000Y-33302500D03*
X163390000Y-33302500D03*
X171890000Y-33302500D03*
G04 #@! TA.AperFunction,SMDPad,CuDef*
G36*
G01*
X130180000Y-118495000D02*
X130180000Y-117945000D01*
G75*
G02*
X130380000Y-117745000I200000J0D01*
G01*
X130780000Y-117745000D01*
G75*
G02*
X130980000Y-117945000I0J-200000D01*
G01*
X130980000Y-118495000D01*
G75*
G02*
X130780000Y-118695000I-200000J0D01*
G01*
X130380000Y-118695000D01*
G75*
G02*
X130180000Y-118495000I0J200000D01*
G01*
G37*
G04 #@! TD.AperFunction*
G04 #@! TA.AperFunction,SMDPad,CuDef*
G36*
G01*
X131830000Y-118495000D02*
X131830000Y-117945000D01*
G75*
G02*
X132030000Y-117745000I200000J0D01*
G01*
X132430000Y-117745000D01*
G75*
G02*
X132630000Y-117945000I0J-200000D01*
G01*
X132630000Y-118495000D01*
G75*
G02*
X132430000Y-118695000I-200000J0D01*
G01*
X132030000Y-118695000D01*
G75*
G02*
X131830000Y-118495000I0J200000D01*
G01*
G37*
G04 #@! TD.AperFunction*
X53340000Y-33302500D03*
X49090000Y-33302500D03*
X57590000Y-33302500D03*
G04 #@! TA.AperFunction,SMDPad,CuDef*
G36*
G01*
X130180000Y-111875000D02*
X130180000Y-111325000D01*
G75*
G02*
X130380000Y-111125000I200000J0D01*
G01*
X130780000Y-111125000D01*
G75*
G02*
X130980000Y-111325000I0J-200000D01*
G01*
X130980000Y-111875000D01*
G75*
G02*
X130780000Y-112075000I-200000J0D01*
G01*
X130380000Y-112075000D01*
G75*
G02*
X130180000Y-111875000I0J200000D01*
G01*
G37*
G04 #@! TD.AperFunction*
G04 #@! TA.AperFunction,SMDPad,CuDef*
G36*
G01*
X131830000Y-111875000D02*
X131830000Y-111325000D01*
G75*
G02*
X132030000Y-111125000I200000J0D01*
G01*
X132430000Y-111125000D01*
G75*
G02*
X132630000Y-111325000I0J-200000D01*
G01*
X132630000Y-111875000D01*
G75*
G02*
X132430000Y-112075000I-200000J0D01*
G01*
X132030000Y-112075000D01*
G75*
G02*
X131830000Y-111875000I0J200000D01*
G01*
G37*
G04 #@! TD.AperFunction*
X154940000Y-33302500D03*
X150690000Y-33302500D03*
X159190000Y-33302500D03*
X205740000Y-33302500D03*
X201490000Y-33302500D03*
X209990000Y-33302500D03*
D13*
X130575000Y-132210000D03*
X133875000Y-134750000D03*
D10*
X78740000Y-33302500D03*
X74490000Y-33302500D03*
X82990000Y-33302500D03*
D11*
X135890000Y-69400000D03*
D12*
X138890000Y-72400000D03*
X138390000Y-72400000D03*
X137890000Y-72400000D03*
X137390000Y-72400000D03*
X136890000Y-72400000D03*
X136390000Y-72400000D03*
X135890000Y-72400000D03*
X135390000Y-72400000D03*
X134890000Y-72400000D03*
X134390000Y-72400000D03*
X133890000Y-72400000D03*
X133390000Y-72400000D03*
X132890000Y-72400000D03*
X138890000Y-71900000D03*
X138390000Y-71900000D03*
X137890000Y-71900000D03*
X137390000Y-71900000D03*
X136890000Y-71900000D03*
X136390000Y-71900000D03*
X135890000Y-71900000D03*
X135390000Y-71900000D03*
X134890000Y-71900000D03*
X134390000Y-71900000D03*
X133890000Y-71900000D03*
X133390000Y-71900000D03*
X132890000Y-71900000D03*
X138890000Y-71400000D03*
X138390000Y-71400000D03*
X133390000Y-71400000D03*
X132890000Y-71400000D03*
X138890000Y-70900000D03*
X138390000Y-70900000D03*
X133390000Y-70900000D03*
X132890000Y-70900000D03*
X138890000Y-70400000D03*
X138390000Y-70400000D03*
X133390000Y-70400000D03*
X132890000Y-70400000D03*
X138890000Y-69900000D03*
X138390000Y-69900000D03*
X133390000Y-69900000D03*
X132890000Y-69900000D03*
X138890000Y-69400000D03*
X138390000Y-69400000D03*
X133390000Y-69400000D03*
X132890000Y-69400000D03*
X138890000Y-68900000D03*
X138390000Y-68900000D03*
X133390000Y-68900000D03*
X132890000Y-68900000D03*
X138890000Y-68400000D03*
X138390000Y-68400000D03*
X133390000Y-68400000D03*
X132890000Y-68400000D03*
X138890000Y-67900000D03*
X138390000Y-67900000D03*
X133390000Y-67900000D03*
X132890000Y-67900000D03*
X138890000Y-67400000D03*
X138390000Y-67400000D03*
X133390000Y-67400000D03*
X132890000Y-67400000D03*
X138890000Y-66900000D03*
X138390000Y-66900000D03*
X137890000Y-66900000D03*
X137390000Y-66900000D03*
X136890000Y-66900000D03*
X136390000Y-66900000D03*
X135890000Y-66900000D03*
X135390000Y-66900000D03*
X134890000Y-66900000D03*
X134390000Y-66900000D03*
X133890000Y-66900000D03*
X133390000Y-66900000D03*
X132890000Y-66900000D03*
X138890000Y-66400000D03*
X138390000Y-66400000D03*
X137890000Y-66400000D03*
X137390000Y-66400000D03*
X136890000Y-66400000D03*
X136390000Y-66400000D03*
X135890000Y-66400000D03*
X135390000Y-66400000D03*
X134890000Y-66400000D03*
X134390000Y-66400000D03*
X133890000Y-66400000D03*
X133390000Y-66400000D03*
X132890000Y-66400000D03*
D10*
X142240000Y-33302500D03*
X137990000Y-33302500D03*
X146490000Y-33302500D03*
X104200000Y-33362500D03*
X99950000Y-33362500D03*
X108450000Y-33362500D03*
D11*
X212000000Y-56000000D03*
D12*
X215000000Y-59000000D03*
X214500000Y-59000000D03*
X214000000Y-59000000D03*
X213500000Y-59000000D03*
X213000000Y-59000000D03*
X212500000Y-59000000D03*
X212000000Y-59000000D03*
X211500000Y-59000000D03*
X211000000Y-59000000D03*
X210500000Y-59000000D03*
X210000000Y-59000000D03*
X209500000Y-59000000D03*
X209000000Y-59000000D03*
X215000000Y-58500000D03*
X214500000Y-58500000D03*
X214000000Y-58500000D03*
X213500000Y-58500000D03*
X213000000Y-58500000D03*
X212500000Y-58500000D03*
X212000000Y-58500000D03*
X211500000Y-58500000D03*
X211000000Y-58500000D03*
X210500000Y-58500000D03*
X210000000Y-58500000D03*
X209500000Y-58500000D03*
X209000000Y-58500000D03*
X215000000Y-58000000D03*
X214500000Y-58000000D03*
X209500000Y-58000000D03*
X209000000Y-58000000D03*
X215000000Y-57500000D03*
X214500000Y-57500000D03*
X209500000Y-57500000D03*
X209000000Y-57500000D03*
X215000000Y-57000000D03*
X214500000Y-57000000D03*
X209500000Y-57000000D03*
X209000000Y-57000000D03*
X215000000Y-56500000D03*
X214500000Y-56500000D03*
X209500000Y-56500000D03*
X209000000Y-56500000D03*
X215000000Y-56000000D03*
X214500000Y-56000000D03*
X209500000Y-56000000D03*
X209000000Y-56000000D03*
X215000000Y-55500000D03*
X214500000Y-55500000D03*
X209500000Y-55500000D03*
X209000000Y-55500000D03*
X215000000Y-55000000D03*
X214500000Y-55000000D03*
X209500000Y-55000000D03*
X209000000Y-55000000D03*
X215000000Y-54500000D03*
X214500000Y-54500000D03*
X209500000Y-54500000D03*
X209000000Y-54500000D03*
X215000000Y-54000000D03*
X214500000Y-54000000D03*
X209500000Y-54000000D03*
X209000000Y-54000000D03*
X215000000Y-53500000D03*
X214500000Y-53500000D03*
X214000000Y-53500000D03*
X213500000Y-53500000D03*
X213000000Y-53500000D03*
X212500000Y-53500000D03*
X212000000Y-53500000D03*
X211500000Y-53500000D03*
X211000000Y-53500000D03*
X210500000Y-53500000D03*
X210000000Y-53500000D03*
X209500000Y-53500000D03*
X209000000Y-53500000D03*
X215000000Y-53000000D03*
X214500000Y-53000000D03*
X214000000Y-53000000D03*
X213500000Y-53000000D03*
X213000000Y-53000000D03*
X212500000Y-53000000D03*
X212000000Y-53000000D03*
X211500000Y-53000000D03*
X211000000Y-53000000D03*
X210500000Y-53000000D03*
X210000000Y-53000000D03*
X209500000Y-53000000D03*
X209000000Y-53000000D03*
D11*
X110640000Y-56000000D03*
D12*
X113640000Y-59000000D03*
X113140000Y-59000000D03*
X112640000Y-59000000D03*
X112140000Y-59000000D03*
X111640000Y-59000000D03*
X111140000Y-59000000D03*
X110640000Y-59000000D03*
X110140000Y-59000000D03*
X109640000Y-59000000D03*
X109140000Y-59000000D03*
X108640000Y-59000000D03*
X108140000Y-59000000D03*
X107640000Y-59000000D03*
X113640000Y-58500000D03*
X113140000Y-58500000D03*
X112640000Y-58500000D03*
X112140000Y-58500000D03*
X111640000Y-58500000D03*
X111140000Y-58500000D03*
X110640000Y-58500000D03*
X110140000Y-58500000D03*
X109640000Y-58500000D03*
X109140000Y-58500000D03*
X108640000Y-58500000D03*
X108140000Y-58500000D03*
X107640000Y-58500000D03*
X113640000Y-58000000D03*
X113140000Y-58000000D03*
X108140000Y-58000000D03*
X107640000Y-58000000D03*
X113640000Y-57500000D03*
X113140000Y-57500000D03*
X108140000Y-57500000D03*
X107640000Y-57500000D03*
X113640000Y-57000000D03*
X113140000Y-57000000D03*
X108140000Y-57000000D03*
X107640000Y-57000000D03*
X113640000Y-56500000D03*
X113140000Y-56500000D03*
X108140000Y-56500000D03*
X107640000Y-56500000D03*
X113640000Y-56000000D03*
X113140000Y-56000000D03*
X108140000Y-56000000D03*
X107640000Y-56000000D03*
X113640000Y-55500000D03*
X113140000Y-55500000D03*
X108140000Y-55500000D03*
X107640000Y-55500000D03*
X113640000Y-55000000D03*
X113140000Y-55000000D03*
X108140000Y-55000000D03*
X107640000Y-55000000D03*
X113640000Y-54500000D03*
X113140000Y-54500000D03*
X108140000Y-54500000D03*
X107640000Y-54500000D03*
X113640000Y-54000000D03*
X113140000Y-54000000D03*
X108140000Y-54000000D03*
X107640000Y-54000000D03*
X113640000Y-53500000D03*
X113140000Y-53500000D03*
X112640000Y-53500000D03*
X112140000Y-53500000D03*
X111640000Y-53500000D03*
X111140000Y-53500000D03*
X110640000Y-53500000D03*
X110140000Y-53500000D03*
X109640000Y-53500000D03*
X109140000Y-53500000D03*
X108640000Y-53500000D03*
X108140000Y-53500000D03*
X107640000Y-53500000D03*
X113640000Y-53000000D03*
X113140000Y-53000000D03*
X112640000Y-53000000D03*
X112140000Y-53000000D03*
X111640000Y-53000000D03*
X111140000Y-53000000D03*
X110640000Y-53000000D03*
X110140000Y-53000000D03*
X109640000Y-53000000D03*
X109140000Y-53000000D03*
X108640000Y-53000000D03*
X108140000Y-53000000D03*
X107640000Y-53000000D03*
G04 #@! TA.AperFunction,SMDPad,CuDef*
G36*
G01*
X130180000Y-121805000D02*
X130180000Y-121255000D01*
G75*
G02*
X130380000Y-121055000I200000J0D01*
G01*
X130780000Y-121055000D01*
G75*
G02*
X130980000Y-121255000I0J-200000D01*
G01*
X130980000Y-121805000D01*
G75*
G02*
X130780000Y-122005000I-200000J0D01*
G01*
X130380000Y-122005000D01*
G75*
G02*
X130180000Y-121805000I0J200000D01*
G01*
G37*
G04 #@! TD.AperFunction*
G04 #@! TA.AperFunction,SMDPad,CuDef*
G36*
G01*
X131830000Y-121805000D02*
X131830000Y-121255000D01*
G75*
G02*
X132030000Y-121055000I200000J0D01*
G01*
X132430000Y-121055000D01*
G75*
G02*
X132630000Y-121255000I0J-200000D01*
G01*
X132630000Y-121805000D01*
G75*
G02*
X132430000Y-122005000I-200000J0D01*
G01*
X132030000Y-122005000D01*
G75*
G02*
X131830000Y-121805000I0J200000D01*
G01*
G37*
G04 #@! TD.AperFunction*
D13*
X137825000Y-132210000D03*
X141125000Y-134750000D03*
G04 #@! TA.AperFunction,SMDPad,CuDef*
G36*
G01*
X130180000Y-128425000D02*
X130180000Y-127875000D01*
G75*
G02*
X130380000Y-127675000I200000J0D01*
G01*
X130780000Y-127675000D01*
G75*
G02*
X130980000Y-127875000I0J-200000D01*
G01*
X130980000Y-128425000D01*
G75*
G02*
X130780000Y-128625000I-200000J0D01*
G01*
X130380000Y-128625000D01*
G75*
G02*
X130180000Y-128425000I0J200000D01*
G01*
G37*
G04 #@! TD.AperFunction*
G04 #@! TA.AperFunction,SMDPad,CuDef*
G36*
G01*
X131830000Y-128425000D02*
X131830000Y-127875000D01*
G75*
G02*
X132030000Y-127675000I200000J0D01*
G01*
X132430000Y-127675000D01*
G75*
G02*
X132630000Y-127875000I0J-200000D01*
G01*
X132630000Y-128425000D01*
G75*
G02*
X132430000Y-128625000I-200000J0D01*
G01*
X132030000Y-128625000D01*
G75*
G02*
X131830000Y-128425000I0J200000D01*
G01*
G37*
G04 #@! TD.AperFunction*
G04 #@! TA.AperFunction,SMDPad,CuDef*
G36*
G01*
X130180000Y-115185000D02*
X130180000Y-114635000D01*
G75*
G02*
X130380000Y-114435000I200000J0D01*
G01*
X130780000Y-114435000D01*
G75*
G02*
X130980000Y-114635000I0J-200000D01*
G01*
X130980000Y-115185000D01*
G75*
G02*
X130780000Y-115385000I-200000J0D01*
G01*
X130380000Y-115385000D01*
G75*
G02*
X130180000Y-115185000I0J200000D01*
G01*
G37*
G04 #@! TD.AperFunction*
G04 #@! TA.AperFunction,SMDPad,CuDef*
G36*
G01*
X131830000Y-115185000D02*
X131830000Y-114635000D01*
G75*
G02*
X132030000Y-114435000I200000J0D01*
G01*
X132430000Y-114435000D01*
G75*
G02*
X132630000Y-114635000I0J-200000D01*
G01*
X132630000Y-115185000D01*
G75*
G02*
X132430000Y-115385000I-200000J0D01*
G01*
X132030000Y-115385000D01*
G75*
G02*
X131830000Y-115185000I0J200000D01*
G01*
G37*
G04 #@! TD.AperFunction*
D10*
X231140000Y-33302500D03*
X226890000Y-33302500D03*
X235390000Y-33302500D03*
G04 #@! TA.AperFunction,SMDPad,CuDef*
G36*
G01*
X113300000Y-113725000D02*
X113300000Y-113175000D01*
G75*
G02*
X113500000Y-112975000I200000J0D01*
G01*
X113900000Y-112975000D01*
G75*
G02*
X114100000Y-113175000I0J-200000D01*
G01*
X114100000Y-113725000D01*
G75*
G02*
X113900000Y-113925000I-200000J0D01*
G01*
X113500000Y-113925000D01*
G75*
G02*
X113300000Y-113725000I0J200000D01*
G01*
G37*
G04 #@! TD.AperFunction*
G04 #@! TA.AperFunction,SMDPad,CuDef*
G36*
G01*
X114950000Y-113725000D02*
X114950000Y-113175000D01*
G75*
G02*
X115150000Y-112975000I200000J0D01*
G01*
X115550000Y-112975000D01*
G75*
G02*
X115750000Y-113175000I0J-200000D01*
G01*
X115750000Y-113725000D01*
G75*
G02*
X115550000Y-113925000I-200000J0D01*
G01*
X115150000Y-113925000D01*
G75*
G02*
X114950000Y-113725000I0J200000D01*
G01*
G37*
G04 #@! TD.AperFunction*
D14*
X137890000Y-71400000D02*
X135890000Y-69400000D01*
X134390000Y-70900000D02*
X135890000Y-69400000D01*
X132890000Y-67900000D02*
X133390000Y-67900000D01*
X138390000Y-69900000D02*
X136390000Y-69900000D01*
X135390000Y-72400000D02*
X135390000Y-71900000D01*
X133390000Y-70400000D02*
X134890000Y-70400000D01*
X138390000Y-68900000D02*
X136390000Y-68900000D01*
X133390000Y-71900000D02*
X136390000Y-71900000D01*
X133390000Y-69900000D02*
X135390000Y-69900000D01*
X133390000Y-67900000D02*
X134390000Y-67900000D01*
X138890000Y-70900000D02*
X138390000Y-70900000D01*
X138390000Y-66900000D02*
X138390000Y-72400000D01*
X138890000Y-66900000D02*
X138390000Y-66900000D01*
X132890000Y-71900000D02*
X133390000Y-71900000D01*
X137890000Y-67400000D02*
X135890000Y-69400000D01*
X138890000Y-67900000D02*
X138390000Y-67900000D01*
X132890000Y-68900000D02*
X133390000Y-68900000D01*
X135390000Y-71900000D02*
X135390000Y-69900000D01*
X138390000Y-71400000D02*
X137890000Y-71400000D01*
X135890000Y-66400000D02*
X135390000Y-66400000D01*
X133390000Y-72400000D02*
X132890000Y-72400000D01*
X134890000Y-71900000D02*
X134890000Y-70400000D01*
X136390000Y-69900000D02*
X135890000Y-69400000D01*
X138390000Y-67400000D02*
X137890000Y-67400000D01*
X132890000Y-70900000D02*
X133390000Y-70900000D01*
X136890000Y-68400000D02*
X135890000Y-69400000D01*
X135390000Y-68900000D02*
X135890000Y-69400000D01*
X132890000Y-66900000D02*
X133390000Y-66900000D01*
X138890000Y-66400000D02*
X138890000Y-66900000D01*
X136390000Y-71900000D02*
X136390000Y-69900000D01*
X133390000Y-68400000D02*
X134890000Y-68400000D01*
X137390000Y-67900000D02*
X135890000Y-69400000D01*
X138890000Y-69900000D02*
X138390000Y-69900000D01*
X138890000Y-71900000D02*
X138390000Y-71900000D01*
X133890000Y-71900000D02*
X133890000Y-71400000D01*
X134890000Y-70400000D02*
X135890000Y-69400000D01*
X137390000Y-70900000D02*
X135890000Y-69400000D01*
X134890000Y-68400000D02*
X135890000Y-69400000D01*
X135890000Y-66900000D02*
X135890000Y-69400000D01*
X138390000Y-69400000D02*
X135890000Y-69400000D01*
X132890000Y-69900000D02*
X133390000Y-69900000D01*
X138390000Y-67900000D02*
X137390000Y-67900000D01*
X132890000Y-72400000D02*
X132890000Y-71900000D01*
X133890000Y-71400000D02*
X135890000Y-69400000D01*
X136890000Y-70400000D02*
X135890000Y-69400000D01*
X135890000Y-71900000D02*
X135890000Y-69400000D01*
X138890000Y-68900000D02*
X138390000Y-68900000D01*
X136390000Y-68900000D02*
X135890000Y-69400000D01*
X135890000Y-66900000D02*
X135890000Y-66400000D01*
X136390000Y-72400000D02*
X136390000Y-71900000D01*
X138390000Y-68400000D02*
X136890000Y-68400000D01*
X133390000Y-69400000D02*
X135890000Y-69400000D01*
X138390000Y-70400000D02*
X136890000Y-70400000D01*
X135390000Y-69900000D02*
X135890000Y-69400000D01*
X133390000Y-68900000D02*
X135390000Y-68900000D01*
X138390000Y-70900000D02*
X137390000Y-70900000D01*
X134390000Y-71900000D02*
X134390000Y-70900000D01*
X134390000Y-67900000D02*
X135890000Y-69400000D01*
X133390000Y-66400000D02*
X133390000Y-72400000D01*
D15*
X209000000Y-57000000D02*
X208829807Y-57000000D01*
X193040000Y-43994000D02*
X193040000Y-42535393D01*
X207401653Y-57000000D02*
X206829807Y-57000000D01*
X193040000Y-42535393D02*
X193040000Y-33302500D01*
X206829807Y-57000000D02*
X206046000Y-57000000D01*
X206046000Y-57000000D02*
X193040000Y-43994000D01*
X208401653Y-57428154D02*
X207829807Y-57428154D01*
X208829807Y-57000000D02*
G75*
G03*
X208615700Y-57214077I-7J-214100D01*
G01*
X207829807Y-57428154D02*
G75*
G02*
X207615746Y-57214077I-7J214054D01*
G01*
X208615730Y-57214077D02*
G75*
G02*
X208401653Y-57428130I-214030J-23D01*
G01*
X207615730Y-57214077D02*
G75*
G03*
X207401653Y-57000070I-214030J-23D01*
G01*
X180340000Y-42514000D02*
X180340000Y-33302500D01*
X164400000Y-58000000D02*
X164854000Y-58000000D01*
X165996950Y-56857050D02*
X165871609Y-56731709D01*
X166122269Y-56982372D02*
X165996947Y-56857050D01*
X165871609Y-56481027D02*
X166328035Y-56024602D01*
X165525964Y-57829322D02*
X166122269Y-57233016D01*
X164854000Y-58000000D02*
X165024678Y-57829322D01*
X167146001Y-55708000D02*
X178522253Y-44331747D01*
X166829399Y-56024603D02*
X167146001Y-55708000D01*
X165996947Y-56857050D02*
X165996950Y-56857050D01*
X178522253Y-44331747D02*
X180340000Y-42514000D01*
X166328035Y-56024602D02*
G75*
G02*
X166578717Y-56024602I125341J-125344D01*
G01*
X166122269Y-57233016D02*
G75*
G03*
X166122263Y-56982378I-125369J125316D01*
G01*
X165871609Y-56731709D02*
G75*
G02*
X165871641Y-56481059I125391J125309D01*
G01*
X166578717Y-56024602D02*
G75*
G03*
X166829441Y-56024645I125383J125302D01*
G01*
X165024678Y-57829322D02*
G75*
G02*
X165275322Y-57829321I125322J-125321D01*
G01*
X165275321Y-57829322D02*
G75*
G03*
X165525964Y-57829322I125321J125324D01*
G01*
X107700000Y-57000000D02*
X107699594Y-57000000D01*
X106273723Y-56027725D02*
X106273725Y-56027725D01*
X91440000Y-38877986D02*
X91440000Y-33302500D01*
X105124675Y-54878675D02*
X91440000Y-41194000D01*
X105328225Y-55082225D02*
X105124675Y-54878675D01*
X91440000Y-41194000D02*
X91440000Y-38877986D01*
X106273725Y-56027725D02*
X106512116Y-55789333D01*
X106292432Y-57000000D02*
X106035332Y-56742900D01*
X107699594Y-57000000D02*
X107246000Y-57000000D01*
X106035331Y-56266116D02*
X106273723Y-56027725D01*
X106512116Y-55312549D02*
X106281792Y-55082225D01*
X106769216Y-57000000D02*
G75*
G02*
X106292432Y-57000000I-238392J238396D01*
G01*
X106035332Y-56742900D02*
G75*
G02*
X106035323Y-56266108I238368J238400D01*
G01*
X105805009Y-55082225D02*
G75*
G02*
X105328225Y-55082225I-238392J238393D01*
G01*
X106512116Y-55789333D02*
G75*
G03*
X106512157Y-55312508I-238416J238433D01*
G01*
X107246000Y-57000000D02*
G75*
G03*
X106769216Y-57000000I-238392J-238389D01*
G01*
X106281792Y-55082225D02*
G75*
G03*
X105805010Y-55082225I-238391J-238391D01*
G01*
X114993949Y-56630759D02*
X115436411Y-56188298D01*
X115126269Y-57027727D02*
X115126272Y-57027728D01*
X115965703Y-56188299D02*
X116275323Y-55878678D01*
X114683172Y-58000000D02*
X115258563Y-57424608D01*
X115126272Y-57027728D02*
X114993949Y-56895405D01*
X113737219Y-58000000D02*
X114154000Y-58000000D01*
X116275323Y-55878678D02*
X129600000Y-42554000D01*
X129600000Y-40561554D02*
X129600000Y-33362500D01*
X129600000Y-42554000D02*
X129600000Y-40561554D01*
X113677000Y-58000000D02*
X113737219Y-58000000D01*
X115258563Y-57160021D02*
X115126269Y-57027727D01*
X114154000Y-58000000D02*
G75*
G02*
X114418586Y-58000000I132293J-132291D01*
G01*
X115701057Y-56188298D02*
G75*
G03*
X115965723Y-56188319I132343J132298D01*
G01*
X114418586Y-58000000D02*
G75*
G03*
X114683172Y-58000000I132293J132291D01*
G01*
X115436411Y-56188298D02*
G75*
G02*
X115701057Y-56188298I132323J-132326D01*
G01*
X114993949Y-56895405D02*
G75*
G02*
X114993967Y-56630777I132351J132305D01*
G01*
X115258563Y-57424608D02*
G75*
G03*
X115258578Y-57160006I-132263J132308D01*
G01*
X216785553Y-54634173D02*
X217033529Y-54386196D01*
X218094004Y-44589000D02*
X218440000Y-44589000D01*
X217747995Y-47242998D02*
X217747995Y-46935002D01*
X218093997Y-46589000D02*
X218440000Y-46589000D01*
X217033529Y-53903332D02*
X216792097Y-53661900D01*
X217747995Y-49242998D02*
X217747995Y-48935002D01*
X218786003Y-47589000D02*
X218440000Y-47589000D01*
X218440000Y-47589000D02*
X218093997Y-47589000D01*
X218093997Y-48589000D02*
X218440000Y-48589000D01*
X215000000Y-55000000D02*
X215454000Y-55000000D01*
X218440000Y-43247585D02*
X218440000Y-42964000D01*
X216550688Y-52937666D02*
X216774972Y-52713383D01*
X218781422Y-49589000D02*
X218440000Y-49589000D01*
X219132005Y-48242998D02*
X219132005Y-47935002D01*
X219122844Y-50281156D02*
X219122844Y-49930422D01*
X218440000Y-34756146D02*
X218440000Y-33302500D01*
X219132019Y-46242991D02*
X219132019Y-45935009D01*
X216792099Y-53661901D02*
X216550688Y-53420490D01*
X218440000Y-46589000D02*
X218786010Y-46589000D01*
X219122830Y-44247585D02*
X219122830Y-43930415D01*
X218440000Y-52014000D02*
X218440000Y-50964000D01*
X218440000Y-44589000D02*
X218781415Y-44589000D01*
X216792097Y-53661900D02*
X216792099Y-53661901D01*
X218440000Y-48589000D02*
X218786003Y-48589000D01*
X215454000Y-55000000D02*
X215819827Y-54634173D01*
X218440000Y-42964000D02*
X218440000Y-34756146D01*
X217740620Y-52713383D02*
X217941150Y-52512851D01*
X218786010Y-45589000D02*
X218440000Y-45589000D01*
X217748008Y-45243004D02*
X217748008Y-44934996D01*
X217941150Y-52512851D02*
X218440000Y-52014000D01*
X218440000Y-45589000D02*
X218094004Y-45589000D01*
X218440000Y-49589000D02*
X218093997Y-49589000D01*
X216550688Y-53420490D02*
G75*
G02*
X216550710Y-52937688I241412J241390D01*
G01*
X219132019Y-45935009D02*
G75*
G03*
X218786010Y-45588981I-346019J9D01*
G01*
X218093997Y-47589000D02*
G75*
G02*
X217748000Y-47242998I3J346000D01*
G01*
X218093997Y-49589000D02*
G75*
G02*
X217748000Y-49242998I3J346000D01*
G01*
X219132005Y-47935002D02*
G75*
G03*
X218786003Y-47588995I-346005J2D01*
G01*
X217257796Y-52713383D02*
G75*
G03*
X217740620Y-52713383I241412J241412D01*
G01*
X217747995Y-46935002D02*
G75*
G02*
X218093997Y-46588995I346005J2D01*
G01*
X219122830Y-43930415D02*
G75*
G03*
X218781415Y-43588970I-341430J15D01*
G01*
X218781415Y-44589000D02*
G75*
G03*
X219122800Y-44247585I-15J341400D01*
G01*
X215819827Y-54634173D02*
G75*
G02*
X216302690Y-54634172I241432J-241432D01*
G01*
X218440000Y-50964000D02*
G75*
G02*
X218781422Y-50622600I341400J0D01*
G01*
X218786010Y-46589000D02*
G75*
G03*
X219132000Y-46242991I-10J346000D01*
G01*
X216774972Y-52713383D02*
G75*
G02*
X217257796Y-52713383I241412J-241412D01*
G01*
X216302690Y-54634173D02*
G75*
G03*
X216785553Y-54634173I241431J241432D01*
G01*
X218781415Y-43589000D02*
G75*
G02*
X218440000Y-43247585I-15J341400D01*
G01*
X218781422Y-50622578D02*
G75*
G03*
X219122778Y-50281156I-22J341378D01*
G01*
X217747995Y-48935002D02*
G75*
G02*
X218093997Y-48588995I346005J2D01*
G01*
X218094004Y-45589000D02*
G75*
G02*
X217748000Y-45243004I-4J346000D01*
G01*
X218786003Y-48589000D02*
G75*
G03*
X219132000Y-48242998I-3J346000D01*
G01*
X217033529Y-54386196D02*
G75*
G03*
X217033493Y-53903368I-241429J241396D01*
G01*
X217748008Y-44934996D02*
G75*
G02*
X218094004Y-44589008I345992J-4D01*
G01*
X219122844Y-49930422D02*
G75*
G03*
X218781422Y-49588956I-341444J22D01*
G01*
X131049706Y-70400000D02*
X130929706Y-70400000D01*
X131649706Y-69896878D02*
X131529706Y-69896878D01*
X70906000Y-70400000D02*
X59960000Y-59454000D01*
X131889706Y-70160000D02*
X131889706Y-70136878D01*
X131289706Y-70136878D02*
X131289706Y-70160000D01*
X59960000Y-59454000D02*
X59960000Y-59000000D01*
X132890000Y-70400000D02*
X132129706Y-70400000D01*
X117611885Y-70400000D02*
X70906000Y-70400000D01*
X130929706Y-70400000D02*
X117611885Y-70400000D01*
X131889706Y-70136878D02*
G75*
G03*
X131649706Y-69896894I-240006J-22D01*
G01*
X131529706Y-69896878D02*
G75*
G03*
X131289678Y-70136878I-6J-240022D01*
G01*
X132129706Y-70400000D02*
G75*
G02*
X131889700Y-70160000I-6J240000D01*
G01*
X131289706Y-70160000D02*
G75*
G02*
X131049706Y-70400006I-240006J0D01*
G01*
X65227354Y-56186648D02*
X65535323Y-55878678D01*
X74102227Y-47311773D02*
X78740000Y-42674000D01*
X65535323Y-55878678D02*
X74102227Y-47311773D01*
X64520219Y-57161677D02*
X64386269Y-57027727D01*
X64386272Y-57027728D02*
X64252298Y-56893754D01*
X64386269Y-57027727D02*
X64386272Y-57027728D01*
X63949796Y-58000000D02*
X64520219Y-57429576D01*
X64252298Y-56625806D02*
X64691458Y-56186647D01*
X62960000Y-58000000D02*
X63056005Y-58000000D01*
X63056005Y-58000000D02*
X63414000Y-58000000D01*
X78740000Y-42674000D02*
X78740000Y-33302500D01*
X64252298Y-56893754D02*
G75*
G02*
X64252318Y-56625826I134002J133954D01*
G01*
X64520219Y-57429576D02*
G75*
G03*
X64520246Y-57161650I-133919J133976D01*
G01*
X63414000Y-58000000D02*
G75*
G02*
X63681898Y-58000000I133949J-133951D01*
G01*
X64691458Y-56186647D02*
G75*
G02*
X64959406Y-56186647I133974J-133973D01*
G01*
X63681898Y-58000000D02*
G75*
G03*
X63949796Y-58000000I133949J133951D01*
G01*
X64959406Y-56186647D02*
G75*
G03*
X65227374Y-56186668I133994J133947D01*
G01*
X55298574Y-56262874D02*
X55533722Y-56027723D01*
X40640000Y-41134000D02*
X40640000Y-33302500D01*
X44246964Y-44740964D02*
X40640000Y-41134000D01*
X54591458Y-55085459D02*
X54384675Y-54878675D01*
X54384675Y-54878675D02*
X44246964Y-44740964D01*
X56960000Y-57000000D02*
X56902272Y-57000000D01*
X55768883Y-55322248D02*
X55532094Y-55085459D01*
X55533725Y-56027725D02*
X55768883Y-55792566D01*
X55533722Y-56027723D02*
X55533725Y-56027725D01*
X55565402Y-57000000D02*
X55298574Y-56733172D01*
X56902272Y-57000000D02*
X56506000Y-57000000D01*
X55061776Y-55085459D02*
G75*
G02*
X54591458Y-55085459I-235159J235159D01*
G01*
X56506000Y-57000000D02*
G75*
G03*
X56035650Y-56999949I-235200J-235100D01*
G01*
X55768883Y-55792566D02*
G75*
G03*
X55768890Y-55322241I-235183J235166D01*
G01*
X56035700Y-56999999D02*
G75*
G02*
X55565451Y-56999951I-235100J235199D01*
G01*
X55298574Y-56733172D02*
G75*
G02*
X55298551Y-56262851I235126J235172D01*
G01*
X55532094Y-55085459D02*
G75*
G03*
X55061776Y-55085459I-235159J-235159D01*
G01*
X66735038Y-44601481D02*
X66735038Y-44296519D01*
X65688717Y-44949000D02*
X66040000Y-44949000D01*
X65535323Y-52878678D02*
X66040000Y-52374000D01*
X66040000Y-43324000D02*
X66040000Y-33885334D01*
X66040000Y-47949000D02*
X65688717Y-47949000D01*
X64140534Y-53290512D02*
X64356165Y-53074882D01*
X66040000Y-45949000D02*
X65688717Y-45949000D01*
X66040000Y-44949000D02*
X66387519Y-44949000D01*
X66742565Y-46597718D02*
X66742565Y-46300282D01*
X65337435Y-47597718D02*
X65337435Y-47300282D01*
X65337435Y-49597718D02*
X65337435Y-49300282D01*
X66391283Y-47949000D02*
X66040000Y-47949000D01*
X64386272Y-54027728D02*
X64140534Y-53781990D01*
X66040000Y-46949000D02*
X66391283Y-46949000D01*
X65337435Y-45597718D02*
X65337435Y-45300282D01*
X66040000Y-52374000D02*
X66040000Y-51324000D01*
X62960000Y-55000000D02*
X63172113Y-55000000D01*
X64396912Y-55000000D02*
X64631999Y-54764912D01*
X64386270Y-54027727D02*
X64386272Y-54027728D01*
X66391283Y-45949000D02*
X66040000Y-45949000D01*
X66742565Y-48597718D02*
X66742565Y-48300282D01*
X66040000Y-48949000D02*
X66391283Y-48949000D01*
X66040000Y-33885334D02*
X66040000Y-33302500D01*
X65688717Y-46949000D02*
X66040000Y-46949000D01*
X65339119Y-53074883D02*
X65535323Y-52878678D01*
X66040000Y-49949000D02*
X65688717Y-49949000D01*
X66040000Y-43601481D02*
X66040000Y-43324000D01*
X64631999Y-54273456D02*
X64386270Y-54027727D01*
X66735048Y-50628952D02*
X66735048Y-50296524D01*
X66387524Y-49949000D02*
X66040000Y-49949000D01*
X63172113Y-55000000D02*
X63414000Y-55000000D01*
X65688717Y-48949000D02*
X66040000Y-48949000D01*
X66391283Y-48949000D02*
G75*
G03*
X66742600Y-48597718I17J351300D01*
G01*
X63414000Y-55000000D02*
G75*
G02*
X63905456Y-55000000I245728J-245728D01*
G01*
X65688717Y-47949000D02*
G75*
G02*
X65337400Y-47597718I-17J351300D01*
G01*
X65337435Y-45300282D02*
G75*
G02*
X65688717Y-44949035I351265J-18D01*
G01*
X65688717Y-49949000D02*
G75*
G02*
X65337400Y-49597718I-17J351300D01*
G01*
X66735048Y-50296524D02*
G75*
G03*
X66387524Y-49948952I-347548J24D01*
G01*
X64847641Y-53074883D02*
G75*
G03*
X65339119Y-53074883I245739J245744D01*
G01*
X66387519Y-44949000D02*
G75*
G03*
X66735000Y-44601481I-19J347500D01*
G01*
X65337435Y-47300282D02*
G75*
G02*
X65688717Y-46949035I351265J-18D01*
G01*
X64631999Y-54764912D02*
G75*
G03*
X64631983Y-54273472I-245699J245712D01*
G01*
X65337435Y-49300282D02*
G75*
G02*
X65688717Y-48949035I351265J-18D01*
G01*
X65688717Y-45949000D02*
G75*
G02*
X65337400Y-45597718I-17J351300D01*
G01*
X64140534Y-53781990D02*
G75*
G02*
X64140583Y-53290561I245766J245690D01*
G01*
X66040000Y-51324000D02*
G75*
G02*
X66387524Y-50976500I347500J0D01*
G01*
X66742565Y-48300282D02*
G75*
G03*
X66391283Y-47949035I-351265J-18D01*
G01*
X66735038Y-44296519D02*
G75*
G03*
X66387519Y-43948962I-347538J19D01*
G01*
X64356165Y-53074882D02*
G75*
G02*
X64847638Y-53074886I245735J-245718D01*
G01*
X63905456Y-55000000D02*
G75*
G03*
X64396912Y-55000000I245728J245728D01*
G01*
X66391283Y-46949000D02*
G75*
G03*
X66742600Y-46597718I17J351300D01*
G01*
X66387524Y-50976476D02*
G75*
G03*
X66734976Y-50628952I-24J347476D01*
G01*
X66742565Y-46300282D02*
G75*
G03*
X66391283Y-45949035I-351265J-18D01*
G01*
X66387519Y-43949000D02*
G75*
G02*
X66040000Y-43601481I-19J347500D01*
G01*
X53340000Y-46409000D02*
X53680859Y-46409000D01*
X53340000Y-44409000D02*
X53680859Y-44409000D01*
X53340000Y-48409000D02*
X53680859Y-48409000D01*
X52669102Y-49113102D02*
X52669102Y-48744449D01*
X53340000Y-47409000D02*
X52999141Y-47409000D01*
X52658282Y-47068141D02*
X52658282Y-46749859D01*
X54114994Y-52557824D02*
X53882302Y-52325132D01*
X55557246Y-54000000D02*
X55296536Y-53739290D01*
X52999141Y-46409000D02*
X53340000Y-46409000D01*
X53680859Y-47409000D02*
X53340000Y-47409000D01*
X53677567Y-51171567D02*
X53340000Y-50834000D01*
X53680859Y-45409000D02*
X53340000Y-45409000D01*
X54021718Y-44068141D02*
X54021718Y-43749859D01*
X55774748Y-52304653D02*
X55549687Y-52079592D01*
X55533725Y-53027725D02*
X55774748Y-52786701D01*
X52658282Y-45068141D02*
X52658282Y-44749859D01*
X53004551Y-48409000D02*
X53340000Y-48409000D01*
X54021718Y-46068141D02*
X54021718Y-45749859D01*
X53340000Y-45409000D02*
X52999141Y-45409000D01*
X53680859Y-43409000D02*
X53340000Y-43409000D01*
X53340000Y-41784000D02*
X53340000Y-33302500D01*
X53340000Y-42073524D02*
X53340000Y-41784000D01*
X52999141Y-44409000D02*
X53340000Y-44409000D01*
X53340000Y-43409000D02*
X53004524Y-43409000D01*
X56960000Y-54000000D02*
X56506000Y-54000000D01*
X54021718Y-48068141D02*
X54021718Y-47749859D01*
X55533724Y-53027724D02*
X55533725Y-53027725D01*
X54826617Y-52320617D02*
X54589408Y-52557823D01*
X55296535Y-53264912D02*
X55533724Y-53027724D01*
X55067639Y-52079592D02*
X54826615Y-52320615D01*
X52669048Y-43073524D02*
X52669048Y-42744476D01*
X53882302Y-51376302D02*
X53677567Y-51171567D01*
X53340000Y-50834000D02*
X53340000Y-49784000D01*
X54826615Y-52320615D02*
X54826617Y-52320617D01*
X52658282Y-44749859D02*
G75*
G02*
X52999141Y-44409082I340818J-41D01*
G01*
X55774748Y-52786701D02*
G75*
G03*
X55774725Y-52304676I-241048J241001D01*
G01*
X53004524Y-42409000D02*
G75*
G03*
X53340000Y-42073524I-24J335500D01*
G01*
X53004524Y-43409000D02*
G75*
G02*
X52669000Y-43073524I-24J335500D01*
G01*
X52999141Y-47409000D02*
G75*
G02*
X52658200Y-47068141I-41J340900D01*
G01*
X52999141Y-45409000D02*
G75*
G02*
X52658200Y-45068141I-41J340900D01*
G01*
X52658282Y-46749859D02*
G75*
G02*
X52999141Y-46409082I340818J-41D01*
G01*
X55296536Y-53739290D02*
G75*
G02*
X55296534Y-53264911I237164J237190D01*
G01*
X52669048Y-42744476D02*
G75*
G02*
X53004524Y-42409048I335452J-24D01*
G01*
X53882302Y-52325132D02*
G75*
G02*
X53882277Y-51850693I237198J237232D01*
G01*
X54021718Y-45749859D02*
G75*
G03*
X53680859Y-45409082I-340818J-41D01*
G01*
X55549687Y-52079592D02*
G75*
G03*
X55067639Y-52079592I-241024J-241025D01*
G01*
X52669102Y-48744449D02*
G75*
G02*
X53004551Y-48408902I335498J49D01*
G01*
X53882301Y-51850716D02*
G75*
G03*
X53882311Y-51376293I-237201J237216D01*
G01*
X53340000Y-49784000D02*
G75*
G03*
X53004551Y-49448600I-335400J0D01*
G01*
X53680859Y-46409000D02*
G75*
G03*
X54021800Y-46068141I41J340900D01*
G01*
X56506000Y-54000000D02*
G75*
G03*
X56031612Y-53999988I-237200J-237200D01*
G01*
X56031622Y-53999999D02*
G75*
G02*
X55557213Y-54000034I-237222J237199D01*
G01*
X54021718Y-43749859D02*
G75*
G03*
X53680859Y-43409082I-340818J-41D01*
G01*
X54589408Y-52557823D02*
G75*
G02*
X54114994Y-52557824I-237208J237223D01*
G01*
X54021718Y-47749859D02*
G75*
G03*
X53680859Y-47409082I-340818J-41D01*
G01*
X53680859Y-44409000D02*
G75*
G03*
X54021800Y-44068141I41J340900D01*
G01*
X53680859Y-48409000D02*
G75*
G03*
X54021800Y-48068141I41J340900D01*
G01*
X53004551Y-49448551D02*
G75*
G02*
X52669149Y-49113102I49J335451D01*
G01*
D14*
X59475000Y-53515000D02*
X59460000Y-53500000D01*
X59475000Y-54025000D02*
X59475000Y-53515000D01*
X58950000Y-54000000D02*
X58950000Y-53510000D01*
X58950000Y-53510000D02*
X58960000Y-53500000D01*
X209479000Y-52125000D02*
X210000000Y-52646000D01*
X210000000Y-52646000D02*
X210000000Y-53500000D01*
X159320000Y-52818000D02*
X158677000Y-52175000D01*
X57960000Y-52646000D02*
X57614000Y-52300000D01*
X159320000Y-53000000D02*
X159320000Y-52818000D01*
X57960000Y-53500000D02*
X57960000Y-53000000D01*
D15*
X133419000Y-65475000D02*
X133125000Y-65475000D01*
D14*
X159820000Y-53500000D02*
X159320000Y-53500000D01*
X57614000Y-52300000D02*
X57025000Y-52300000D01*
X210500000Y-53500000D02*
X210000000Y-53500000D01*
D15*
X133890000Y-65946000D02*
X133419000Y-65475000D01*
D14*
X108640000Y-52646000D02*
X108244000Y-52250000D01*
X108640000Y-53500000D02*
X108640000Y-53000000D01*
X58460000Y-53500000D02*
X57960000Y-53500000D01*
X159320000Y-53000000D02*
X159320000Y-53500000D01*
X109140000Y-53500000D02*
X108640000Y-53500000D01*
X108244000Y-52250000D02*
X107650000Y-52250000D01*
X108640000Y-53000000D02*
X108640000Y-52646000D01*
X208950000Y-52125000D02*
X209479000Y-52125000D01*
D15*
X133890000Y-66400000D02*
X133890000Y-65946000D01*
D14*
X57960000Y-53000000D02*
X57960000Y-52646000D01*
X158677000Y-52175000D02*
X158150000Y-52175000D01*
X62460000Y-53000000D02*
X62460000Y-52335000D01*
X62460000Y-52335000D02*
X62450000Y-52325000D01*
X58960000Y-53000000D02*
X58960000Y-52365000D01*
X58960000Y-52365000D02*
X59250000Y-52075000D01*
X58460000Y-52210000D02*
X58275000Y-52025000D01*
X58460000Y-53000000D02*
X58460000Y-52210000D01*
D15*
X113737219Y-55000000D02*
X114200000Y-55000000D01*
X117189443Y-47935000D02*
X116840000Y-47935000D01*
X113700000Y-55000000D02*
X113737219Y-55000000D01*
X117538913Y-46585544D02*
X117538913Y-46284456D01*
X116840000Y-47935000D02*
X116490557Y-47935000D01*
X116840000Y-43589595D02*
X116840000Y-43310000D01*
X117185419Y-49935000D02*
X116840000Y-49935000D01*
X114928034Y-53295012D02*
X115146664Y-53076383D01*
X115172269Y-54027727D02*
X115172272Y-54027728D01*
X116840000Y-48935000D02*
X117189443Y-48935000D01*
X116840000Y-33304794D02*
X116840000Y-33302500D01*
X116321323Y-52878678D02*
X116840000Y-52360000D01*
X115416498Y-54271956D02*
X115172269Y-54027727D01*
X116490557Y-46935000D02*
X116840000Y-46935000D01*
X116123620Y-53076383D02*
X116321323Y-52878678D01*
X116840000Y-44935000D02*
X117185405Y-44935000D01*
X116141115Y-49585558D02*
X116141115Y-49284442D01*
X116840000Y-45935000D02*
X116490557Y-45935000D01*
X117530838Y-50619162D02*
X117530838Y-50280419D01*
X116840000Y-49935000D02*
X116490557Y-49935000D01*
X117189457Y-45935000D02*
X116840000Y-45935000D01*
X117530810Y-44589595D02*
X117530810Y-44280405D01*
X117538885Y-48585558D02*
X117538885Y-48284442D01*
X116490557Y-44935000D02*
X116840000Y-44935000D01*
X115176912Y-55000000D02*
X115416498Y-54760413D01*
X116840000Y-43310000D02*
X116840000Y-33304794D01*
X116840000Y-52360000D02*
X116840000Y-51310000D01*
X116840000Y-46935000D02*
X117189457Y-46935000D01*
X116141115Y-45585558D02*
X116141115Y-45284442D01*
X116490557Y-48935000D02*
X116840000Y-48935000D01*
X115172272Y-54027728D02*
X114928034Y-53783490D01*
X116141115Y-47585558D02*
X116141115Y-47284442D01*
X116490557Y-45935000D02*
G75*
G02*
X116141200Y-45585558I43J349400D01*
G01*
X115635142Y-53076383D02*
G75*
G03*
X116123620Y-53076383I244239J244239D01*
G01*
X117530838Y-50280419D02*
G75*
G03*
X117185419Y-49934962I-345438J19D01*
G01*
X114688456Y-55000000D02*
G75*
G03*
X115176912Y-55000000I244228J244226D01*
G01*
X116141115Y-45284442D02*
G75*
G02*
X116490557Y-44934915I349485J42D01*
G01*
X116141115Y-47284442D02*
G75*
G02*
X116490557Y-46934915I349485J42D01*
G01*
X116490557Y-47935000D02*
G75*
G02*
X116141200Y-47585558I43J349400D01*
G01*
X116141115Y-49284442D02*
G75*
G02*
X116490557Y-48934915I349485J42D01*
G01*
X117538913Y-46284456D02*
G75*
G03*
X117189457Y-45935087I-349413J-44D01*
G01*
X117189457Y-46935000D02*
G75*
G03*
X117539000Y-46585544I43J349500D01*
G01*
X115416498Y-54760413D02*
G75*
G03*
X115416483Y-54271972I-244198J244213D01*
G01*
X117185405Y-43935000D02*
G75*
G02*
X116840000Y-43589595I-5J345400D01*
G01*
X117185419Y-50964581D02*
G75*
G03*
X117530781Y-50619162I-19J345381D01*
G01*
X116490557Y-49935000D02*
G75*
G02*
X116141200Y-49585558I43J349400D01*
G01*
X117189443Y-48935000D02*
G75*
G03*
X117538800Y-48585558I-43J349400D01*
G01*
X114200000Y-55000000D02*
G75*
G02*
X114688456Y-55000000I244228J-244226D01*
G01*
X115146664Y-53076383D02*
G75*
G02*
X115635142Y-53076383I244239J-244239D01*
G01*
X114928034Y-53783490D02*
G75*
G02*
X114928083Y-53295061I244266J244190D01*
G01*
X116840000Y-51310000D02*
G75*
G02*
X117185419Y-50964600I345400J0D01*
G01*
X117185405Y-44935000D02*
G75*
G03*
X117530800Y-44589595I-5J345400D01*
G01*
X117538885Y-48284442D02*
G75*
G03*
X117189443Y-47934915I-349485J42D01*
G01*
X117530810Y-44280405D02*
G75*
G03*
X117185405Y-43934990I-345410J5D01*
G01*
X154824719Y-68400000D02*
X154824719Y-67897665D01*
X143424719Y-67897665D02*
X143424719Y-68400000D01*
X149424719Y-68400000D02*
X149424719Y-68902335D01*
X153624719Y-68902335D02*
X153624719Y-68400000D01*
X155064719Y-67657665D02*
X155184719Y-67657665D01*
X141624719Y-68400000D02*
X141624719Y-67897665D01*
X142824719Y-68400000D02*
X142824719Y-67897665D01*
X142224719Y-68400000D02*
X142224719Y-68902335D01*
X161089471Y-64970530D02*
X161343000Y-64717000D01*
X158358426Y-66651833D02*
X158443278Y-66566982D01*
X160410644Y-65649352D02*
X160410646Y-65649354D01*
X156864719Y-68400000D02*
X156984719Y-68400000D01*
X145824719Y-68400000D02*
X145824719Y-68902335D01*
X144624719Y-67897665D02*
X144624719Y-68400000D01*
X160055448Y-64954743D02*
X160140302Y-64869890D01*
X141024719Y-68400000D02*
X141024719Y-68902335D01*
X143064719Y-67657665D02*
X143184719Y-67657665D01*
X152064719Y-69142335D02*
X152184719Y-69142335D01*
X162085321Y-62387000D02*
X162085321Y-62267000D01*
X156624719Y-67897679D02*
X156624719Y-68160000D01*
X160680968Y-66428793D02*
X160765820Y-66343940D01*
X161343000Y-61427000D02*
X161583000Y-61427000D01*
X159068782Y-67701603D02*
X158883293Y-67516114D01*
X159917321Y-66853085D02*
X159562116Y-66497880D01*
X140424719Y-68902335D02*
X140424719Y-68640000D01*
X150864719Y-69142335D02*
X150984719Y-69142335D01*
X150624719Y-68400000D02*
X150624719Y-68902335D01*
X153024719Y-67897665D02*
X153024719Y-68400000D01*
X142824719Y-68902335D02*
X142824719Y-68400000D01*
X143424719Y-68400000D02*
X143424719Y-68902335D01*
X162085321Y-63587000D02*
X162085321Y-63467000D01*
X141024719Y-67897665D02*
X141024719Y-68400000D01*
X161845321Y-63227000D02*
X161583000Y-63227000D01*
X154464719Y-69142335D02*
X154584719Y-69142335D01*
X161845308Y-60827000D02*
X161583000Y-60827000D01*
X159562116Y-66497880D02*
X159562118Y-66497882D01*
X161343000Y-62027000D02*
X160840679Y-62027000D01*
X156264719Y-67657679D02*
X156384719Y-67657679D01*
X143664719Y-69142335D02*
X143784719Y-69142335D01*
X161343000Y-60467000D02*
X161343000Y-59514149D01*
X156024719Y-68400000D02*
X156024719Y-68160000D01*
X148224719Y-68400000D02*
X148224719Y-68902335D01*
X144024719Y-68400000D02*
X144024719Y-67897665D01*
X146064719Y-69142335D02*
X146184719Y-69142335D01*
X144264719Y-67657665D02*
X144384719Y-67657665D01*
X155664719Y-69142335D02*
X155784719Y-69142335D01*
X151464719Y-67657665D02*
X151584719Y-67657665D01*
X140424719Y-68640000D02*
X140424719Y-68400000D01*
X145224719Y-68902335D02*
X145224719Y-68400000D01*
X141624719Y-68902335D02*
X141624719Y-68400000D01*
X155424719Y-68400000D02*
X155424719Y-68902335D01*
X153264719Y-69142335D02*
X153384719Y-69142335D01*
X152424719Y-68400000D02*
X152424719Y-67897665D01*
X149424719Y-67897665D02*
X149424719Y-68400000D01*
X138890000Y-68400000D02*
X138934719Y-68400000D01*
X160600679Y-61787000D02*
X160600679Y-61667000D01*
X147264719Y-69142335D02*
X147384719Y-69142335D01*
X150624719Y-67897665D02*
X150624719Y-68400000D01*
X140424719Y-68400000D02*
X140424719Y-67897665D01*
X147624719Y-68902335D02*
X147624719Y-68400000D01*
X158713590Y-67346410D02*
X158358425Y-66991245D01*
X141864719Y-67657665D02*
X141984719Y-67657665D01*
X139824719Y-68640000D02*
X139824719Y-68902335D01*
X151224719Y-68902335D02*
X151224719Y-68400000D01*
X153864719Y-67657665D02*
X153984719Y-67657665D01*
X144024719Y-68902335D02*
X144024719Y-68400000D01*
X159986384Y-66073620D02*
X159986382Y-66073618D01*
X160479714Y-64869889D02*
X160665208Y-65055383D01*
X161004620Y-65055383D02*
X161089471Y-64970530D01*
X153624719Y-68400000D02*
X153624719Y-67897665D01*
X160240941Y-65479649D02*
X160055447Y-65294155D01*
X161343000Y-60587000D02*
X161343000Y-60467000D01*
X159137856Y-66922148D02*
X159137854Y-66922146D01*
X152664719Y-67657665D02*
X152784719Y-67657665D01*
X162085308Y-61187000D02*
X162085308Y-61067000D01*
X148824719Y-68400000D02*
X148824719Y-67897665D01*
X148464719Y-69142335D02*
X148584719Y-69142335D01*
X160840679Y-61427000D02*
X161343000Y-61427000D01*
X161583000Y-63227000D02*
X161343000Y-63227000D01*
X146424719Y-68400000D02*
X146424719Y-67897665D01*
X159137854Y-66922146D02*
X159493058Y-67277350D01*
X152424719Y-68902335D02*
X152424719Y-68400000D01*
X159832469Y-67277350D02*
X159917321Y-67192497D01*
X161343000Y-64717000D02*
X161343000Y-64067000D01*
X159986382Y-66073618D02*
X160341557Y-66428793D01*
X147024719Y-67897665D02*
X147024719Y-68400000D01*
X140064719Y-69142335D02*
X140184719Y-69142335D01*
X161343000Y-63227000D02*
X160840679Y-63227000D01*
X150264719Y-67657665D02*
X150384719Y-67657665D01*
X157660000Y-68400000D02*
X158119619Y-67940380D01*
X151824719Y-68400000D02*
X151824719Y-68902335D01*
X160410646Y-65649354D02*
X160240941Y-65479649D01*
X154224719Y-67897665D02*
X154224719Y-68400000D01*
X147624719Y-68400000D02*
X147624719Y-67897665D01*
X146664719Y-67657665D02*
X146784719Y-67657665D01*
X160765820Y-66004528D02*
X160410644Y-65649352D01*
X159206954Y-65803305D02*
X159291806Y-65718454D01*
X161343000Y-59514149D02*
X161343000Y-59431000D01*
X138934719Y-68400000D02*
X139584719Y-68400000D01*
X140664719Y-67657665D02*
X140784719Y-67657665D01*
X161845321Y-62027000D02*
X161343000Y-62027000D01*
X149064719Y-67657665D02*
X149184719Y-67657665D01*
X147024719Y-68400000D02*
X147024719Y-68902335D01*
X150024719Y-68902335D02*
X150024719Y-68400000D01*
X161343000Y-62627000D02*
X161845321Y-62627000D01*
X146424719Y-68902335D02*
X146424719Y-68400000D01*
X148824719Y-68902335D02*
X148824719Y-68400000D01*
X150024719Y-68400000D02*
X150024719Y-67897665D01*
X155424719Y-67897665D02*
X155424719Y-68400000D01*
X161583000Y-61427000D02*
X161845308Y-61427000D01*
X153024719Y-68400000D02*
X153024719Y-68902335D01*
X145824719Y-67897665D02*
X145824719Y-68400000D01*
X151224719Y-68400000D02*
X151224719Y-67897665D01*
X154224719Y-68400000D02*
X154224719Y-68902335D01*
X154824719Y-68902335D02*
X154824719Y-68400000D01*
X156984719Y-68400000D02*
X157660000Y-68400000D01*
X160840679Y-62627000D02*
X161343000Y-62627000D01*
X158983930Y-68125868D02*
X159068782Y-68041015D01*
X161583000Y-63827000D02*
X161845321Y-63827000D01*
X149664719Y-69142335D02*
X149784719Y-69142335D01*
X159631218Y-65718454D02*
X159986384Y-66073620D01*
X159562118Y-66497882D02*
X159206953Y-66142717D01*
X148224719Y-67897665D02*
X148224719Y-68400000D01*
X160600679Y-62987000D02*
X160600679Y-62867000D01*
X158713587Y-67346408D02*
X158713590Y-67346410D01*
X145464719Y-67657665D02*
X145584719Y-67657665D01*
X158459030Y-67940380D02*
X158644518Y-68125868D01*
X142464719Y-69142335D02*
X142584719Y-69142335D01*
X144624719Y-68400000D02*
X144624719Y-68902335D01*
X141264719Y-69142335D02*
X141384719Y-69142335D01*
X158782690Y-66566982D02*
X159137856Y-66922148D01*
X156024719Y-68160000D02*
X156024719Y-67897679D01*
X145224719Y-68400000D02*
X145224719Y-67897665D01*
X158883293Y-67516114D02*
X158713587Y-67346408D01*
X147864719Y-67657665D02*
X147984719Y-67657665D01*
X142224719Y-67897665D02*
X142224719Y-68400000D01*
X151824719Y-67897665D02*
X151824719Y-68400000D01*
X156024719Y-68902335D02*
X156024719Y-68400000D01*
X144864719Y-69142335D02*
X144984719Y-69142335D01*
X151824719Y-68902335D02*
G75*
G03*
X152064719Y-69142281I239981J35D01*
G01*
X147384719Y-69142335D02*
G75*
G03*
X147624735Y-68902335I-19J240035D01*
G01*
X161845308Y-61427000D02*
G75*
G03*
X162085300Y-61187000I-8J240000D01*
G01*
X141984719Y-67657665D02*
G75*
G02*
X142224735Y-67897665I-19J-240035D01*
G01*
X149784719Y-69142335D02*
G75*
G03*
X150024735Y-68902335I-19J240035D01*
G01*
X158443278Y-66566982D02*
G75*
G02*
X158782690Y-66566982I169706J-169701D01*
G01*
X161845321Y-62627000D02*
G75*
G03*
X162085300Y-62387000I-21J240000D01*
G01*
X151224719Y-67897665D02*
G75*
G02*
X151464719Y-67657719I239981J-35D01*
G01*
X145224719Y-67897665D02*
G75*
G02*
X145464719Y-67657719I239981J-35D01*
G01*
X155784719Y-69142335D02*
G75*
G03*
X156024735Y-68902335I-19J240035D01*
G01*
X160600679Y-61667000D02*
G75*
G02*
X160840679Y-61426979I240021J0D01*
G01*
X159291806Y-65718454D02*
G75*
G02*
X159631218Y-65718454I169706J-169701D01*
G01*
X150984719Y-69142335D02*
G75*
G03*
X151224735Y-68902335I-19J240035D01*
G01*
X140784719Y-67657665D02*
G75*
G02*
X141024735Y-67897665I-19J-240035D01*
G01*
X152424719Y-67897665D02*
G75*
G02*
X152664719Y-67657719I239981J-35D01*
G01*
X153624719Y-67897665D02*
G75*
G02*
X153864719Y-67657719I239981J-35D01*
G01*
X144984719Y-69142335D02*
G75*
G03*
X145224735Y-68902335I-19J240035D01*
G01*
X150624719Y-68902335D02*
G75*
G03*
X150864719Y-69142281I239981J35D01*
G01*
X141384719Y-69142335D02*
G75*
G03*
X141624735Y-68902335I-19J240035D01*
G01*
X156384719Y-67657679D02*
G75*
G02*
X156624721Y-67897679I-19J-240021D01*
G01*
X140184719Y-69142335D02*
G75*
G03*
X140424735Y-68902335I-19J240035D01*
G01*
X144384719Y-67657665D02*
G75*
G02*
X144624735Y-67897665I-19J-240035D01*
G01*
X146184719Y-69142335D02*
G75*
G03*
X146424735Y-68902335I-19J240035D01*
G01*
X141624719Y-67897665D02*
G75*
G02*
X141864719Y-67657719I239981J-35D01*
G01*
X143424719Y-68902335D02*
G75*
G03*
X143664719Y-69142281I239981J35D01*
G01*
X139584719Y-68400000D02*
G75*
G02*
X139824700Y-68640000I-19J-240000D01*
G01*
X154584719Y-69142335D02*
G75*
G03*
X154824735Y-68902335I-19J240035D01*
G01*
X160840679Y-63227000D02*
G75*
G02*
X160600700Y-62987000I21J240000D01*
G01*
X162085321Y-62267000D02*
G75*
G03*
X161845321Y-62026979I-240021J0D01*
G01*
X143784719Y-69142335D02*
G75*
G03*
X144024735Y-68902335I-19J240035D01*
G01*
X160055447Y-65294155D02*
G75*
G02*
X160055398Y-64954694I169753J169755D01*
G01*
X158119619Y-67940380D02*
G75*
G02*
X158459030Y-67940379I169706J-169707D01*
G01*
X160665208Y-65055383D02*
G75*
G03*
X161004620Y-65055383I169706J169701D01*
G01*
X154224719Y-68902335D02*
G75*
G03*
X154464719Y-69142281I239981J35D01*
G01*
X159917321Y-67192497D02*
G75*
G03*
X159917312Y-66853094I-169721J169697D01*
G01*
X151584719Y-67657665D02*
G75*
G02*
X151824735Y-67897665I-19J-240035D01*
G01*
X140424719Y-67897665D02*
G75*
G02*
X140664719Y-67657719I239981J-35D01*
G01*
X160341557Y-66428793D02*
G75*
G03*
X160680968Y-66428794I169706J169707D01*
G01*
X146784719Y-67657665D02*
G75*
G02*
X147024735Y-67897665I-19J-240035D01*
G01*
X155424719Y-68902335D02*
G75*
G03*
X155664719Y-69142281I239981J35D01*
G01*
X144024719Y-67897665D02*
G75*
G02*
X144264719Y-67657719I239981J-35D01*
G01*
X149184719Y-67657665D02*
G75*
G02*
X149424735Y-67897665I-19J-240035D01*
G01*
X158644518Y-68125868D02*
G75*
G03*
X158983930Y-68125868I169706J169704D01*
G01*
X142824719Y-67897665D02*
G75*
G02*
X143064719Y-67657719I239981J-35D01*
G01*
X139824719Y-68902335D02*
G75*
G03*
X140064719Y-69142281I239981J35D01*
G01*
X159206953Y-66142717D02*
G75*
G02*
X159206942Y-65803294I169747J169717D01*
G01*
X147984719Y-67657665D02*
G75*
G02*
X148224735Y-67897665I-19J-240035D01*
G01*
X148824719Y-67897665D02*
G75*
G02*
X149064719Y-67657719I239981J-35D01*
G01*
X158358425Y-66991245D02*
G75*
G02*
X158358386Y-66651793I169675J169745D01*
G01*
X152184719Y-69142335D02*
G75*
G03*
X152424735Y-68902335I-19J240035D01*
G01*
X145824719Y-68902335D02*
G75*
G03*
X146064719Y-69142281I239981J35D01*
G01*
X160840679Y-62027000D02*
G75*
G02*
X160600700Y-61787000I21J240000D01*
G01*
X144624719Y-68902335D02*
G75*
G03*
X144864719Y-69142281I239981J35D01*
G01*
X161845321Y-63827000D02*
G75*
G03*
X162085300Y-63587000I-21J240000D01*
G01*
X159493058Y-67277350D02*
G75*
G03*
X159832469Y-67277351I169706J169707D01*
G01*
X147024719Y-68902335D02*
G75*
G03*
X147264719Y-69142281I239981J35D01*
G01*
X160600679Y-62867000D02*
G75*
G02*
X160840679Y-62626979I240021J0D01*
G01*
X156024719Y-67897679D02*
G75*
G02*
X156264719Y-67657719I239981J-21D01*
G01*
X145584719Y-67657665D02*
G75*
G02*
X145824735Y-67897665I-19J-240035D01*
G01*
X160765820Y-66343940D02*
G75*
G03*
X160765854Y-66004494I-169720J169740D01*
G01*
X148584719Y-69142335D02*
G75*
G03*
X148824735Y-68902335I-19J240035D01*
G01*
X146424719Y-67897665D02*
G75*
G02*
X146664719Y-67657719I239981J-35D01*
G01*
X162085308Y-61067000D02*
G75*
G03*
X161845308Y-60826992I-240008J0D01*
G01*
X147624719Y-67897665D02*
G75*
G02*
X147864719Y-67657719I239981J-35D01*
G01*
X150384719Y-67657665D02*
G75*
G02*
X150624735Y-67897665I-19J-240035D01*
G01*
X155184719Y-67657665D02*
G75*
G02*
X155424735Y-67897665I-19J-240035D01*
G01*
X161343000Y-64067000D02*
G75*
G02*
X161583000Y-63827000I240000J0D01*
G01*
X150024719Y-67897665D02*
G75*
G02*
X150264719Y-67657719I239981J-35D01*
G01*
X142224719Y-68902335D02*
G75*
G03*
X142464719Y-69142281I239981J35D01*
G01*
X153384719Y-69142335D02*
G75*
G03*
X153624735Y-68902335I-19J240035D01*
G01*
X159068782Y-68041015D02*
G75*
G03*
X159068791Y-67701594I-169682J169715D01*
G01*
X160140302Y-64869890D02*
G75*
G02*
X160479706Y-64869897I169698J-169710D01*
G01*
X153984719Y-67657665D02*
G75*
G02*
X154224735Y-67897665I-19J-240035D01*
G01*
X142584719Y-69142335D02*
G75*
G03*
X142824735Y-68902335I-19J240035D01*
G01*
X154824719Y-67897665D02*
G75*
G02*
X155064719Y-67657719I239981J-35D01*
G01*
X153024719Y-68902335D02*
G75*
G03*
X153264719Y-69142281I239981J35D01*
G01*
X149424719Y-68902335D02*
G75*
G03*
X149664719Y-69142281I239981J35D01*
G01*
X143184719Y-67657665D02*
G75*
G02*
X143424735Y-67897665I-19J-240035D01*
G01*
X161583000Y-60827000D02*
G75*
G02*
X161343000Y-60587000I0J240000D01*
G01*
X152784719Y-67657665D02*
G75*
G02*
X153024735Y-67897665I-19J-240035D01*
G01*
X148224719Y-68902335D02*
G75*
G03*
X148464719Y-69142281I239981J35D01*
G01*
X156624719Y-68160000D02*
G75*
G03*
X156864719Y-68399981I239981J0D01*
G01*
X141024719Y-68902335D02*
G75*
G03*
X141264719Y-69142281I239981J35D01*
G01*
X162085321Y-63467000D02*
G75*
G03*
X161845321Y-63226979I-240021J0D01*
G01*
X158380809Y-57000000D02*
X157946000Y-57000000D01*
X157217512Y-55296363D02*
X156997979Y-55076830D01*
X155824675Y-54878675D02*
X142240000Y-41294000D01*
X142240000Y-41294000D02*
X142240000Y-38877986D01*
X156973724Y-56027724D02*
X156973725Y-56027725D01*
X156022830Y-55076830D02*
X155824675Y-54878675D01*
X158400000Y-57000000D02*
X158380809Y-57000000D01*
X156729937Y-56271510D02*
X156973724Y-56027724D01*
X156970854Y-57000000D02*
X156729938Y-56759084D01*
X142240000Y-38877986D02*
X142240000Y-33302500D01*
X156973725Y-56027725D02*
X157217512Y-55783937D01*
X156729938Y-56759084D02*
G75*
G02*
X156729940Y-56271514I243762J243784D01*
G01*
X156510405Y-55076830D02*
G75*
G02*
X156022830Y-55076830I-243787J243788D01*
G01*
X156997979Y-55076830D02*
G75*
G03*
X156510405Y-55076830I-243787J-243787D01*
G01*
X157217512Y-55783937D02*
G75*
G03*
X157217462Y-55296413I-243812J243737D01*
G01*
X157458426Y-56999999D02*
G75*
G02*
X156970815Y-57000040I-243826J243799D01*
G01*
X157946000Y-57000000D02*
G75*
G03*
X157458414Y-56999986I-243800J-243800D01*
G01*
X165826272Y-54027728D02*
X165582452Y-53783908D01*
X167291065Y-44789000D02*
X167640000Y-44789000D01*
X167640000Y-33711172D02*
X167640000Y-33302500D01*
X167291065Y-48789000D02*
X167640000Y-48789000D01*
X167640000Y-46789000D02*
X167988935Y-46789000D01*
X164400000Y-55000000D02*
X164766758Y-55000000D01*
X167984814Y-49789000D02*
X167640000Y-49789000D01*
X166942131Y-47440066D02*
X166942131Y-47137934D01*
X166777200Y-53076802D02*
X166975323Y-52878678D01*
X167640000Y-43444200D02*
X167640000Y-43164000D01*
X165826269Y-54027727D02*
X165826272Y-54027728D01*
X167988935Y-47789000D02*
X167640000Y-47789000D01*
X166942131Y-49440066D02*
X166942131Y-49137934D01*
X167988935Y-45789000D02*
X167640000Y-45789000D01*
X168337869Y-46440066D02*
X168337869Y-46137934D01*
X166942131Y-45440066D02*
X166942131Y-45137934D01*
X167640000Y-45789000D02*
X167291065Y-45789000D01*
X165582452Y-53296268D02*
X165801920Y-53076801D01*
X167640000Y-43164000D02*
X167640000Y-33711172D01*
X167640000Y-49789000D02*
X167291065Y-49789000D01*
X166070066Y-54271524D02*
X165826269Y-54027727D01*
X167640000Y-52214000D02*
X167640000Y-51164000D01*
X167640000Y-47789000D02*
X167291065Y-47789000D01*
X166975323Y-52878678D02*
X167640000Y-52214000D01*
X168337869Y-48440066D02*
X168337869Y-48137934D01*
X167640000Y-48789000D02*
X167988935Y-48789000D01*
X168329600Y-44444200D02*
X168329600Y-44133800D01*
X165829184Y-55000000D02*
X166070066Y-54759117D01*
X164766758Y-55000000D02*
X164854000Y-55000000D01*
X167640000Y-44789000D02*
X167984800Y-44789000D01*
X167291065Y-46789000D02*
X167640000Y-46789000D01*
X168329628Y-50474372D02*
X168329628Y-50133814D01*
X165582452Y-53783908D02*
G75*
G02*
X165582464Y-53296280I243848J243808D01*
G01*
X167984800Y-43789000D02*
G75*
G02*
X167640000Y-43444200I0J344800D01*
G01*
X167984800Y-44789000D02*
G75*
G03*
X168329600Y-44444200I0J344800D01*
G01*
X166070066Y-54759117D02*
G75*
G03*
X166070087Y-54271503I-243766J243817D01*
G01*
X168329600Y-44133800D02*
G75*
G03*
X167984800Y-43789000I-344800J0D01*
G01*
X168329628Y-50133814D02*
G75*
G03*
X167984814Y-49788972I-344828J14D01*
G01*
X166942131Y-47137934D02*
G75*
G02*
X167291065Y-46788931I348969J34D01*
G01*
X167988935Y-48789000D02*
G75*
G03*
X168337800Y-48440066I-35J348900D01*
G01*
X164854000Y-55000000D02*
G75*
G02*
X165341592Y-55000000I243796J-243795D01*
G01*
X167640000Y-51164000D02*
G75*
G02*
X167984814Y-50819200I344800J0D01*
G01*
X167291065Y-49789000D02*
G75*
G02*
X166942200Y-49440066I35J348900D01*
G01*
X167984814Y-50819186D02*
G75*
G03*
X168329586Y-50474372I-14J344786D01*
G01*
X165801920Y-53076801D02*
G75*
G02*
X166289560Y-53076801I243820J-243818D01*
G01*
X165341592Y-55000000D02*
G75*
G03*
X165829184Y-55000000I243796J243795D01*
G01*
X166942131Y-45137934D02*
G75*
G02*
X167291065Y-44788931I348969J34D01*
G01*
X167291065Y-45789000D02*
G75*
G02*
X166942200Y-45440066I35J348900D01*
G01*
X167988935Y-46789000D02*
G75*
G03*
X168337800Y-46440066I-35J348900D01*
G01*
X168337869Y-46137934D02*
G75*
G03*
X167988935Y-45788931I-348969J34D01*
G01*
X168337869Y-48137934D02*
G75*
G03*
X167988935Y-47788931I-348969J34D01*
G01*
X167291065Y-47789000D02*
G75*
G02*
X166942200Y-47440066I35J348900D01*
G01*
X166942131Y-49137934D02*
G75*
G02*
X167291065Y-48788931I348969J34D01*
G01*
X166289560Y-53076801D02*
G75*
G03*
X166777220Y-53076822I243840J243801D01*
G01*
X154940000Y-42569000D02*
X155277893Y-42569000D01*
X154940000Y-47569000D02*
X154597026Y-47569000D01*
X154597026Y-44569000D02*
X154940000Y-44569000D01*
X154264188Y-49268188D02*
X154264188Y-48906906D01*
X154254052Y-45226026D02*
X154254052Y-44911974D01*
X158206647Y-54000000D02*
X157946000Y-54000000D01*
X154940000Y-45569000D02*
X154597026Y-45569000D01*
X156973725Y-53027725D02*
X157212662Y-52788787D01*
X156734797Y-53266650D02*
X156973724Y-53027724D01*
X154940000Y-46569000D02*
X155282974Y-46569000D01*
X155282974Y-43569000D02*
X154940000Y-43569000D01*
X154254052Y-47226026D02*
X154254052Y-46911974D01*
X155615786Y-42231107D02*
X155615786Y-41906893D01*
X154597033Y-42569000D02*
X154940000Y-42569000D01*
X154940000Y-40944000D02*
X154940000Y-33302500D01*
X154940000Y-43569000D02*
X154597033Y-43569000D01*
X158400000Y-54000000D02*
X158206647Y-54000000D01*
X155625948Y-48226026D02*
X155625948Y-47911974D01*
X154940000Y-41231107D02*
X154940000Y-40944000D01*
X154597026Y-46569000D02*
X154940000Y-46569000D01*
X155625948Y-44226026D02*
X155625948Y-43911974D01*
X155824675Y-51878675D02*
X154940000Y-50994000D01*
X155282974Y-45569000D02*
X154940000Y-45569000D01*
X156027680Y-52081680D02*
X155824675Y-51878675D01*
X156973724Y-53027724D02*
X156973725Y-53027725D01*
X155282974Y-47569000D02*
X154940000Y-47569000D01*
X154940000Y-48569000D02*
X155282974Y-48569000D01*
X156990294Y-54000000D02*
X156734798Y-53744504D01*
X154940000Y-44569000D02*
X155282974Y-44569000D01*
X154254066Y-43226033D02*
X154254066Y-42911967D01*
X155625948Y-46226026D02*
X155625948Y-45911974D01*
X154940000Y-50994000D02*
X154940000Y-49944000D01*
X157212662Y-52310913D02*
X156983429Y-52081680D01*
X154602094Y-48569000D02*
X154940000Y-48569000D01*
X154254052Y-46911974D02*
G75*
G02*
X154597026Y-46569052I342948J-26D01*
G01*
X155282974Y-48569000D02*
G75*
G03*
X155626000Y-48226026I26J343000D01*
G01*
X154254052Y-44911974D02*
G75*
G02*
X154597026Y-44569052I342948J-26D01*
G01*
X156734798Y-53744504D02*
G75*
G02*
X156734820Y-53266674I238902J238904D01*
G01*
X155277893Y-42569000D02*
G75*
G03*
X155615800Y-42231107I7J337900D01*
G01*
X155625948Y-43911974D02*
G75*
G03*
X155282974Y-43569052I-342948J-26D01*
G01*
X155282974Y-46569000D02*
G75*
G03*
X155626000Y-46226026I26J343000D01*
G01*
X155625948Y-47911974D02*
G75*
G03*
X155282974Y-47569052I-342948J-26D01*
G01*
X157468146Y-53999999D02*
G75*
G02*
X156990274Y-54000020I-238946J238899D01*
G01*
X154597026Y-45569000D02*
G75*
G02*
X154254000Y-45226026I-26J343000D01*
G01*
X157946000Y-54000000D02*
G75*
G03*
X157468174Y-54000026I-238900J-238900D01*
G01*
X157212662Y-52788787D02*
G75*
G03*
X157212612Y-52310963I-238962J238887D01*
G01*
X155277893Y-41569000D02*
G75*
G02*
X154940000Y-41231107I7J337900D01*
G01*
X154254066Y-42911967D02*
G75*
G02*
X154597033Y-42569066I342934J-33D01*
G01*
X156983429Y-52081680D02*
G75*
G03*
X156505555Y-52081680I-238937J-238937D01*
G01*
X154597033Y-43569000D02*
G75*
G02*
X154254000Y-43226033I-33J343000D01*
G01*
X155615786Y-41906893D02*
G75*
G03*
X155277893Y-41569014I-337886J-7D01*
G01*
X154597026Y-47569000D02*
G75*
G02*
X154254000Y-47226026I-26J343000D01*
G01*
X154602094Y-49606094D02*
G75*
G02*
X154264206Y-49268188I6J337894D01*
G01*
X155282974Y-44569000D02*
G75*
G03*
X155626000Y-44226026I26J343000D01*
G01*
X156505555Y-52081680D02*
G75*
G02*
X156027680Y-52081680I-238937J238938D01*
G01*
X154940000Y-49944000D02*
G75*
G03*
X154602094Y-49606100I-337900J0D01*
G01*
X154264188Y-48906906D02*
G75*
G02*
X154602094Y-48568988I337912J6D01*
G01*
X155625948Y-45911974D02*
G75*
G03*
X155282974Y-45569052I-342948J-26D01*
G01*
D14*
X160820000Y-53795000D02*
X161050000Y-54025000D01*
X160820000Y-53500000D02*
X160820000Y-53795000D01*
X160320000Y-53755000D02*
X160075000Y-54000000D01*
X160320000Y-53500000D02*
X160320000Y-53755000D01*
X163820000Y-53000000D02*
X163820000Y-52280000D01*
X163820000Y-52280000D02*
X163825000Y-52275000D01*
X160320000Y-52305000D02*
X160320000Y-53000000D01*
X161250000Y-52100000D02*
X160525000Y-52100000D01*
X160525000Y-52100000D02*
X160320000Y-52305000D01*
X159700000Y-52526000D02*
X159820000Y-52646000D01*
X159820000Y-52646000D02*
X159820000Y-53000000D01*
X159700000Y-52125000D02*
X159700000Y-52526000D01*
D15*
X206421882Y-42428059D02*
X206421882Y-42109941D01*
X205740000Y-46769000D02*
X206085611Y-46769000D01*
X205740000Y-48769000D02*
X206085611Y-48769000D01*
X205740000Y-51194000D02*
X205740000Y-50144000D01*
X207573725Y-53027725D02*
X207814811Y-52786638D01*
X207581652Y-54000000D02*
X207332637Y-53750985D01*
X205058062Y-49462062D02*
X205058062Y-49109969D01*
X205048778Y-45423389D02*
X205048778Y-45114611D01*
X205740000Y-45769000D02*
X205394389Y-45769000D01*
X205740000Y-47769000D02*
X205394389Y-47769000D01*
X205394389Y-42769000D02*
X205740000Y-42769000D01*
X205740000Y-41428059D02*
X205740000Y-41144000D01*
X206431222Y-46423389D02*
X206431222Y-46114611D01*
X207573722Y-53027723D02*
X207573725Y-53027725D01*
X208829807Y-54000000D02*
X208546000Y-54000000D01*
X206625530Y-52079531D02*
X206424675Y-51878675D01*
X209000000Y-54000000D02*
X208829807Y-54000000D01*
X205048778Y-47423389D02*
X205048778Y-47114611D01*
X206431222Y-48423389D02*
X206431222Y-48114611D01*
X205740000Y-44769000D02*
X206085611Y-44769000D01*
X205740000Y-43769000D02*
X205394389Y-43769000D01*
X205394389Y-46769000D02*
X205740000Y-46769000D01*
X205048778Y-43423389D02*
X205048778Y-43114611D01*
X206085611Y-43769000D02*
X205740000Y-43769000D01*
X205740000Y-42769000D02*
X206080941Y-42769000D01*
X205740000Y-34814200D02*
X205740000Y-33302500D01*
X205740000Y-41144000D02*
X205740000Y-34814200D01*
X205394389Y-44769000D02*
X205740000Y-44769000D01*
X207332637Y-53268811D02*
X207573722Y-53027723D01*
X206085611Y-47769000D02*
X205740000Y-47769000D01*
X206085611Y-45769000D02*
X205740000Y-45769000D01*
X207814811Y-52304465D02*
X207589877Y-52079531D01*
X206424675Y-51878675D02*
X205740000Y-51194000D01*
X205399031Y-48769000D02*
X205740000Y-48769000D01*
X206431222Y-44423389D02*
X206431222Y-44114611D01*
X205394389Y-43769000D02*
G75*
G02*
X205048800Y-43423389I11J345600D01*
G01*
X206431222Y-44114611D02*
G75*
G03*
X206085611Y-43768978I-345622J11D01*
G01*
X206080941Y-41769000D02*
G75*
G02*
X205740000Y-41428059I-41J340900D01*
G01*
X205394389Y-45769000D02*
G75*
G02*
X205048800Y-45423389I11J345600D01*
G01*
X207589877Y-52079531D02*
G75*
G03*
X207107705Y-52079531I-241086J-241084D01*
G01*
X207814811Y-52786638D02*
G75*
G03*
X207814763Y-52304513I-241111J241038D01*
G01*
X205058062Y-49109969D02*
G75*
G02*
X205399031Y-48769062I340938J-31D01*
G01*
X206421882Y-42109941D02*
G75*
G03*
X206080941Y-41768918I-340982J41D01*
G01*
X205394389Y-47769000D02*
G75*
G02*
X205048800Y-47423389I11J345600D01*
G01*
X205048778Y-45114611D02*
G75*
G02*
X205394389Y-44768978I345622J11D01*
G01*
X205048778Y-43114611D02*
G75*
G02*
X205394389Y-42768978I345622J11D01*
G01*
X206085611Y-48769000D02*
G75*
G03*
X206431200Y-48423389I-11J345600D01*
G01*
X205048778Y-47114611D02*
G75*
G02*
X205394389Y-46768978I345622J11D01*
G01*
X206431222Y-46114611D02*
G75*
G03*
X206085611Y-45768978I-345622J11D01*
G01*
X207332637Y-53750985D02*
G75*
G02*
X207332639Y-53268813I241063J241085D01*
G01*
X208546000Y-54000000D02*
G75*
G03*
X208063826Y-54000000I-241087J-241082D01*
G01*
X208063826Y-54000000D02*
G75*
G02*
X207581652Y-54000000I-241087J241089D01*
G01*
X206085611Y-44769000D02*
G75*
G03*
X206431200Y-44423389I-11J345600D01*
G01*
X206431222Y-48114611D02*
G75*
G03*
X206085611Y-47768978I-345622J11D01*
G01*
X205399031Y-49803031D02*
G75*
G02*
X205058069Y-49462062I-31J340931D01*
G01*
X205740000Y-50144000D02*
G75*
G03*
X205399031Y-49803000I-341000J0D01*
G01*
X206085611Y-46769000D02*
G75*
G03*
X206431200Y-46423389I-11J345600D01*
G01*
X207107704Y-52079531D02*
G75*
G02*
X206625530Y-52079531I-241087J241085D01*
G01*
X206080941Y-42769000D02*
G75*
G03*
X206421800Y-42428059I-41J340900D01*
G01*
X212000000Y-59454000D02*
X212000000Y-59000000D01*
X138890000Y-71400000D02*
X200054000Y-71400000D01*
X200054000Y-71400000D02*
X212000000Y-59454000D01*
X129199328Y-67902968D02*
X129199328Y-67400000D01*
X125599328Y-67902968D02*
X125599328Y-67400000D01*
X117199328Y-67902968D02*
X117199328Y-67400000D01*
X111642142Y-65922142D02*
X111472435Y-66091846D01*
X131359328Y-66657032D02*
X131239328Y-66657032D01*
X132890000Y-67400000D02*
X132439328Y-67400000D01*
X122599328Y-66897032D02*
X122599328Y-67400000D01*
X123799328Y-67400000D02*
X123799328Y-67902968D01*
X120199328Y-66897032D02*
X120199328Y-67400000D01*
X116959328Y-66657032D02*
X116839328Y-66657032D01*
X129199328Y-67400000D02*
X129199328Y-66897032D01*
X117199328Y-67400000D02*
X117199328Y-66897032D01*
X123559328Y-68142968D02*
X123439328Y-68142968D01*
X124999328Y-67400000D02*
X124999328Y-67902968D01*
X111142968Y-60430000D02*
X110880000Y-60430000D01*
X117799328Y-67400000D02*
X117799328Y-67902968D01*
X125359328Y-66657032D02*
X125239328Y-66657032D01*
X110137005Y-61030000D02*
X110640000Y-61030000D01*
X114559328Y-66657032D02*
X114439328Y-66657032D01*
X123199328Y-67902968D02*
X123199328Y-67400000D01*
X126799328Y-67902968D02*
X126799328Y-67400000D01*
X131959328Y-68142968D02*
X131839328Y-68142968D01*
X127999328Y-67902968D02*
X127999328Y-67400000D01*
X119959328Y-68142968D02*
X119839328Y-68142968D01*
X111382968Y-60790000D02*
X111382968Y-60670000D01*
X118999328Y-67400000D02*
X118999328Y-67902968D01*
X116359328Y-68142968D02*
X116239328Y-68142968D01*
X111382981Y-63190000D02*
X111382981Y-63070000D01*
X130399328Y-67902968D02*
X130399328Y-67400000D01*
X124999328Y-66897032D02*
X124999328Y-67400000D01*
X114799328Y-67160000D02*
X114799328Y-66897032D01*
X122359328Y-68142968D02*
X122239328Y-68142968D01*
X125959328Y-68142968D02*
X125839328Y-68142968D01*
X118759328Y-68142968D02*
X118639328Y-68142968D01*
X128599328Y-67400000D02*
X128599328Y-67902968D01*
X111896700Y-66516111D02*
X112066406Y-66346405D01*
X112422059Y-65651345D02*
X112337204Y-65566490D01*
X110640000Y-61630000D02*
X110137005Y-61630000D01*
X114199328Y-66897032D02*
X114199328Y-67160000D01*
X110640000Y-60190000D02*
X110640000Y-60070000D01*
X129559328Y-68142968D02*
X129439328Y-68142968D01*
X110947045Y-66277824D02*
X110862191Y-66192970D01*
X118399328Y-67400000D02*
X118399328Y-66897032D01*
X123799328Y-66897032D02*
X123799328Y-67400000D01*
X121399328Y-67400000D02*
X121399328Y-67902968D01*
X110137005Y-63430000D02*
X110400000Y-63430000D01*
X110880000Y-61030000D02*
X111142968Y-61030000D01*
X110640000Y-62230000D02*
X111142981Y-62230000D01*
X111048170Y-65328170D02*
X110963318Y-65243318D01*
X130759328Y-68142968D02*
X130639328Y-68142968D01*
X132199328Y-67640000D02*
X132199328Y-67902968D01*
X110640000Y-60070000D02*
X110640000Y-59000000D01*
X119599328Y-67902968D02*
X119599328Y-67400000D01*
X115759328Y-66657032D02*
X115639328Y-66657032D01*
X130159328Y-66657032D02*
X130039328Y-66657032D01*
X124759328Y-68142968D02*
X124639328Y-68142968D01*
X130999328Y-67400000D02*
X130999328Y-67902968D01*
X110137019Y-62230000D02*
X110640000Y-62230000D01*
X115999328Y-67400000D02*
X115999328Y-66897032D01*
X115999328Y-67902968D02*
X115999328Y-67400000D01*
X121159328Y-68142968D02*
X121039328Y-68142968D01*
X129799328Y-67400000D02*
X129799328Y-67902968D01*
X112066406Y-66346405D02*
X112066408Y-66346408D01*
X120799328Y-67400000D02*
X120799328Y-66897032D01*
X124399328Y-67400000D02*
X124399328Y-66897032D01*
X112066408Y-66346408D02*
X112422059Y-65990756D01*
X121999328Y-67902968D02*
X121999328Y-67400000D01*
X126199328Y-66897032D02*
X126199328Y-67400000D01*
X119599328Y-67400000D02*
X119599328Y-66897032D01*
X115399328Y-66897032D02*
X115399328Y-67400000D01*
X132880000Y-67390000D02*
X132890000Y-67400000D01*
X124399328Y-67902968D02*
X124399328Y-67400000D01*
X122599328Y-67400000D02*
X122599328Y-67902968D01*
X127399328Y-67400000D02*
X127399328Y-67902968D01*
X116599328Y-67400000D02*
X116599328Y-67902968D01*
X109897005Y-63790000D02*
X109897005Y-63670000D01*
X127999328Y-67400000D02*
X127999328Y-66897032D01*
X124159328Y-66657032D02*
X124039328Y-66657032D01*
X111142981Y-62830000D02*
X110640000Y-62830000D01*
X131599328Y-67902968D02*
X131599328Y-67640000D01*
X114799328Y-67400000D02*
X114799328Y-67160000D01*
X109897019Y-62590000D02*
X109897019Y-62470000D01*
X111710727Y-66702087D02*
X111896700Y-66516111D01*
X131599328Y-67640000D02*
X131599328Y-67400000D01*
X120199328Y-67400000D02*
X120199328Y-67902968D01*
X126799328Y-67400000D02*
X126799328Y-66897032D01*
X113839328Y-67400000D02*
X113120000Y-67400000D01*
X111642140Y-65922141D02*
X111642142Y-65922142D01*
X117559328Y-68142968D02*
X117439328Y-68142968D01*
X116599328Y-66897032D02*
X116599328Y-67400000D01*
X118999328Y-66897032D02*
X118999328Y-67400000D01*
X122959328Y-66657032D02*
X122839328Y-66657032D01*
X123199328Y-67400000D02*
X123199328Y-66897032D01*
X111142981Y-61630000D02*
X110640000Y-61630000D01*
X113959328Y-67400000D02*
X113839328Y-67400000D01*
X110640000Y-62830000D02*
X110137019Y-62830000D01*
X111997792Y-65566490D02*
X111642140Y-65922141D01*
X120559328Y-66657032D02*
X120439328Y-66657032D01*
X131599328Y-67400000D02*
X131599328Y-66897032D01*
X110640000Y-64920000D02*
X110640000Y-64270000D01*
X111472435Y-66091846D02*
X111286457Y-66277824D01*
X127159328Y-68142968D02*
X127039328Y-68142968D01*
X125599328Y-67400000D02*
X125599328Y-66897032D01*
X127759328Y-66657032D02*
X127639328Y-66657032D01*
X110400000Y-63430000D02*
X110640000Y-63430000D01*
X111795582Y-67126354D02*
X111710727Y-67041499D01*
X113120000Y-67400000D02*
X112660380Y-66940380D01*
X130999328Y-66897032D02*
X130999328Y-67400000D01*
X111382981Y-61990000D02*
X111382981Y-61870000D01*
X115399328Y-67400000D02*
X115399328Y-67902968D01*
X110963318Y-65243318D02*
X110640000Y-64920000D01*
X121999328Y-67400000D02*
X121999328Y-66897032D01*
X128599328Y-66897032D02*
X128599328Y-67400000D01*
X128359328Y-68142968D02*
X128239328Y-68142968D01*
X118159328Y-66657032D02*
X118039328Y-66657032D01*
X127399328Y-66897032D02*
X127399328Y-67400000D01*
X110640000Y-63430000D02*
X111142981Y-63430000D01*
X130399328Y-67400000D02*
X130399328Y-66897032D01*
X112320968Y-66940380D02*
X112134992Y-67126353D01*
X126559328Y-66657032D02*
X126439328Y-66657032D01*
X126199328Y-67400000D02*
X126199328Y-67902968D01*
X109897005Y-61390000D02*
X109897005Y-61270000D01*
X110862192Y-65853560D02*
X111048169Y-65667580D01*
X129799328Y-66897032D02*
X129799328Y-67400000D01*
X114799328Y-67902968D02*
X114799328Y-67400000D01*
X118399328Y-67902968D02*
X118399328Y-67400000D01*
X121399328Y-66897032D02*
X121399328Y-67400000D01*
X120799328Y-67902968D02*
X120799328Y-67400000D01*
X115159328Y-68142968D02*
X115039328Y-68142968D01*
X110400000Y-64030000D02*
X110137005Y-64030000D01*
X119359328Y-66657032D02*
X119239328Y-66657032D01*
X128959328Y-66657032D02*
X128839328Y-66657032D01*
X117799328Y-66897032D02*
X117799328Y-67400000D01*
X110640000Y-61030000D02*
X110880000Y-61030000D01*
X121759328Y-66657032D02*
X121639328Y-66657032D01*
X126799328Y-66897032D02*
G75*
G03*
X126559328Y-66656972I-240028J32D01*
G01*
X130639328Y-68142968D02*
G75*
G02*
X130399332Y-67902968I-28J239968D01*
G01*
X114439328Y-66657032D02*
G75*
G03*
X114199332Y-66897032I-28J-239968D01*
G01*
X111142981Y-63430000D02*
G75*
G03*
X111383000Y-63190000I19J240000D01*
G01*
X110137019Y-62830000D02*
G75*
G02*
X109897000Y-62590000I-19J240000D01*
G01*
X123439328Y-68142968D02*
G75*
G02*
X123199332Y-67902968I-28J239968D01*
G01*
X119599328Y-66897032D02*
G75*
G03*
X119359328Y-66656972I-240028J32D01*
G01*
X129199328Y-66897032D02*
G75*
G03*
X128959328Y-66656972I-240028J32D01*
G01*
X127039328Y-68142968D02*
G75*
G02*
X126799332Y-67902968I-28J239968D01*
G01*
X116839328Y-66657032D02*
G75*
G03*
X116599332Y-66897032I-28J-239968D01*
G01*
X109897005Y-61270000D02*
G75*
G02*
X110137005Y-61030005I239995J0D01*
G01*
X130039328Y-66657032D02*
G75*
G03*
X129799332Y-66897032I-28J-239968D01*
G01*
X110880000Y-60430000D02*
G75*
G02*
X110640000Y-60190000I0J240000D01*
G01*
X114199328Y-67160000D02*
G75*
G02*
X113959328Y-67400028I-240028J0D01*
G01*
X120199328Y-67902968D02*
G75*
G02*
X119959328Y-68143028I-240028J-32D01*
G01*
X111382981Y-61870000D02*
G75*
G03*
X111142981Y-61630019I-239981J0D01*
G01*
X132199328Y-67902968D02*
G75*
G02*
X131959328Y-68143028I-240028J-32D01*
G01*
X125839328Y-68142968D02*
G75*
G02*
X125599332Y-67902968I-28J239968D01*
G01*
X128239328Y-68142968D02*
G75*
G02*
X127999332Y-67902968I-28J239968D01*
G01*
X121639328Y-66657032D02*
G75*
G03*
X121399332Y-66897032I-28J-239968D01*
G01*
X118999328Y-67902968D02*
G75*
G02*
X118759328Y-68143028I-240028J-32D01*
G01*
X122599328Y-67902968D02*
G75*
G02*
X122359328Y-68143028I-240028J-32D01*
G01*
X124039328Y-66657032D02*
G75*
G03*
X123799332Y-66897032I-28J-239968D01*
G01*
X121399328Y-67902968D02*
G75*
G02*
X121159328Y-68143028I-240028J-32D01*
G01*
X111048169Y-65667580D02*
G75*
G03*
X111048145Y-65328196I-169669J169680D01*
G01*
X110640000Y-64270000D02*
G75*
G03*
X110400000Y-64030000I-240000J0D01*
G01*
X126439328Y-66657032D02*
G75*
G03*
X126199332Y-66897032I-28J-239968D01*
G01*
X109897005Y-63670000D02*
G75*
G02*
X110137005Y-63430005I239995J0D01*
G01*
X123799328Y-67902968D02*
G75*
G02*
X123559328Y-68143028I-240028J-32D01*
G01*
X123199328Y-66897032D02*
G75*
G03*
X122959328Y-66656972I-240028J32D01*
G01*
X117799328Y-67902968D02*
G75*
G02*
X117559328Y-68143028I-240028J-32D01*
G01*
X117439328Y-68142968D02*
G75*
G02*
X117199332Y-67902968I-28J239968D01*
G01*
X120439328Y-66657032D02*
G75*
G03*
X120199332Y-66897032I-28J-239968D01*
G01*
X121999328Y-66897032D02*
G75*
G03*
X121759328Y-66656972I-240028J32D01*
G01*
X115039328Y-68142968D02*
G75*
G02*
X114799332Y-67902968I-28J239968D01*
G01*
X132439328Y-67400000D02*
G75*
G03*
X132199300Y-67640000I-28J-240000D01*
G01*
X118039328Y-66657032D02*
G75*
G03*
X117799332Y-66897032I-28J-239968D01*
G01*
X111142968Y-61030000D02*
G75*
G03*
X111383000Y-60790000I32J240000D01*
G01*
X109897019Y-62470000D02*
G75*
G02*
X110137019Y-62230019I239981J0D01*
G01*
X127639328Y-66657032D02*
G75*
G03*
X127399332Y-66897032I-28J-239968D01*
G01*
X122839328Y-66657032D02*
G75*
G03*
X122599332Y-66897032I-28J-239968D01*
G01*
X115999328Y-66897032D02*
G75*
G03*
X115759328Y-66656972I-240028J32D01*
G01*
X119839328Y-68142968D02*
G75*
G02*
X119599332Y-67902968I-28J239968D01*
G01*
X115399328Y-67902968D02*
G75*
G02*
X115159328Y-68143028I-240028J-32D01*
G01*
X118639328Y-68142968D02*
G75*
G02*
X118399332Y-67902968I-28J239968D01*
G01*
X111142981Y-62230000D02*
G75*
G03*
X111383000Y-61990000I19J240000D01*
G01*
X129799328Y-67902968D02*
G75*
G02*
X129559328Y-68143028I-240028J-32D01*
G01*
X120799328Y-66897032D02*
G75*
G03*
X120559328Y-66656972I-240028J32D01*
G01*
X111710727Y-67041499D02*
G75*
G02*
X111710734Y-66702094I169673J169699D01*
G01*
X115639328Y-66657032D02*
G75*
G03*
X115399332Y-66897032I-28J-239968D01*
G01*
X110862191Y-66192970D02*
G75*
G02*
X110862226Y-65853595I169709J169670D01*
G01*
X110137005Y-61630000D02*
G75*
G02*
X109897000Y-61390000I-5J240000D01*
G01*
X112660380Y-66940380D02*
G75*
G03*
X112320968Y-66940380I-169706J-169701D01*
G01*
X112337204Y-65566490D02*
G75*
G03*
X111997792Y-65566490I-169706J-169704D01*
G01*
X111382968Y-60670000D02*
G75*
G03*
X111142968Y-60430032I-239968J0D01*
G01*
X110137005Y-64030000D02*
G75*
G02*
X109897000Y-63790000I-5J240000D01*
G01*
X124399328Y-66897032D02*
G75*
G03*
X124159328Y-66656972I-240028J32D01*
G01*
X116239328Y-68142968D02*
G75*
G02*
X115999332Y-67902968I-28J239968D01*
G01*
X129439328Y-68142968D02*
G75*
G02*
X129199332Y-67902968I-28J239968D01*
G01*
X124639328Y-68142968D02*
G75*
G02*
X124399332Y-67902968I-28J239968D01*
G01*
X111286457Y-66277824D02*
G75*
G02*
X110947045Y-66277824I-169706J169701D01*
G01*
X130399328Y-66897032D02*
G75*
G03*
X130159328Y-66656972I-240028J32D01*
G01*
X125239328Y-66657032D02*
G75*
G03*
X124999332Y-66897032I-28J-239968D01*
G01*
X126199328Y-67902968D02*
G75*
G02*
X125959328Y-68143028I-240028J-32D01*
G01*
X124999328Y-67902968D02*
G75*
G02*
X124759328Y-68143028I-240028J-32D01*
G01*
X116599328Y-67902968D02*
G75*
G02*
X116359328Y-68143028I-240028J-32D01*
G01*
X130999328Y-67902968D02*
G75*
G02*
X130759328Y-68143028I-240028J-32D01*
G01*
X128839328Y-66657032D02*
G75*
G03*
X128599332Y-66897032I-28J-239968D01*
G01*
X112422059Y-65990756D02*
G75*
G03*
X112422010Y-65651395I-169659J169656D01*
G01*
X125599328Y-66897032D02*
G75*
G03*
X125359328Y-66656972I-240028J32D01*
G01*
X111382981Y-63070000D02*
G75*
G03*
X111142981Y-62830019I-239981J0D01*
G01*
X127999328Y-66897032D02*
G75*
G03*
X127759328Y-66656972I-240028J32D01*
G01*
X114799328Y-66897032D02*
G75*
G03*
X114559328Y-66656972I-240028J32D01*
G01*
X117199328Y-66897032D02*
G75*
G03*
X116959328Y-66656972I-240028J32D01*
G01*
X131839328Y-68142968D02*
G75*
G02*
X131599332Y-67902968I-28J239968D01*
G01*
X127399328Y-67902968D02*
G75*
G02*
X127159328Y-68143028I-240028J-32D01*
G01*
X122239328Y-68142968D02*
G75*
G02*
X121999332Y-67902968I-28J239968D01*
G01*
X119239328Y-66657032D02*
G75*
G03*
X118999332Y-66897032I-28J-239968D01*
G01*
X118399328Y-66897032D02*
G75*
G03*
X118159328Y-66656972I-240028J32D01*
G01*
X128599328Y-67902968D02*
G75*
G02*
X128359328Y-68143028I-240028J-32D01*
G01*
X131239328Y-66657032D02*
G75*
G03*
X130999332Y-66897032I-28J-239968D01*
G01*
X121039328Y-68142968D02*
G75*
G02*
X120799332Y-67902968I-28J239968D01*
G01*
X131599328Y-66897032D02*
G75*
G03*
X131359328Y-66656972I-240028J32D01*
G01*
X112134992Y-67126353D02*
G75*
G02*
X111795596Y-67126341I-169692J169653D01*
G01*
D14*
X135390000Y-66900000D02*
X135390000Y-67415000D01*
X135390000Y-67415000D02*
X135400000Y-67425000D01*
X134890000Y-66900000D02*
X134890000Y-67254000D01*
X134890000Y-67254000D02*
X134694602Y-67449398D01*
X134694602Y-67449398D02*
X134325000Y-67449398D01*
X138625000Y-65500000D02*
X138390000Y-65735000D01*
X138390000Y-65735000D02*
X138390000Y-66400000D01*
X137390000Y-66400000D02*
X137390000Y-65708529D01*
X137390000Y-65708529D02*
X137700003Y-65398526D01*
X137700003Y-65398526D02*
X137700003Y-65350000D01*
X136890000Y-66400000D02*
X136890000Y-65360000D01*
X136890000Y-65360000D02*
X136900000Y-65350000D01*
X134890000Y-66400000D02*
X134890000Y-66085000D01*
X134890000Y-66085000D02*
X135325000Y-65650000D01*
X134390000Y-66400000D02*
X134390000Y-65649863D01*
X134390000Y-65649863D02*
X134440106Y-65599757D01*
D15*
X103511305Y-44234653D02*
X103511305Y-43923347D01*
X105124675Y-51878675D02*
X104200000Y-50954000D01*
X104200000Y-49579000D02*
X104544348Y-49579000D01*
X107700000Y-54000000D02*
X107246000Y-54000000D01*
X105326545Y-52080546D02*
X105124675Y-51878675D01*
X103855652Y-47579000D02*
X104200000Y-47579000D01*
X104544361Y-44579000D02*
X104200000Y-44579000D01*
X104544348Y-48579000D02*
X104200000Y-48579000D01*
X104200000Y-45579000D02*
X104544361Y-45579000D01*
X106273723Y-53027725D02*
X106273725Y-53027725D01*
X104544348Y-46579000D02*
X104200000Y-46579000D01*
X104200000Y-42239494D02*
X104200000Y-41954000D01*
X103520974Y-50274974D02*
X103520974Y-49918513D01*
X103855652Y-45579000D02*
X104200000Y-45579000D01*
X104200000Y-48579000D02*
X103855652Y-48579000D01*
X104200000Y-47579000D02*
X104544348Y-47579000D01*
X104200000Y-41954000D02*
X104200000Y-34291713D01*
X103511305Y-48234653D02*
X103511305Y-47923347D01*
X106513796Y-52307509D02*
X106286833Y-52080546D01*
X104888722Y-45234639D02*
X104888722Y-44923361D01*
X106273725Y-53027725D02*
X106513796Y-52787653D01*
X104200000Y-46579000D02*
X103855652Y-46579000D01*
X106033670Y-53267777D02*
X106273723Y-53027725D01*
X104200000Y-34291713D02*
X104200000Y-33362500D01*
X104879012Y-43239494D02*
X104879012Y-42918506D01*
X104888695Y-47234653D02*
X104888695Y-46923347D01*
X103855652Y-43579000D02*
X104200000Y-43579000D01*
X104200000Y-43579000D02*
X104539506Y-43579000D01*
X104200000Y-44579000D02*
X103855652Y-44579000D01*
X104888695Y-49234653D02*
X104888695Y-48923347D01*
X106285788Y-54000000D02*
X106033671Y-53747883D01*
X103860487Y-49579000D02*
X104200000Y-49579000D01*
X103511305Y-46234653D02*
X103511305Y-45923347D01*
X106286833Y-52080546D02*
G75*
G03*
X105806689Y-52080546I-240072J-240072D01*
G01*
X103511305Y-43923347D02*
G75*
G02*
X103855652Y-43578905I344395J47D01*
G01*
X104888695Y-48923347D02*
G75*
G03*
X104544348Y-48578905I-344395J47D01*
G01*
X103860487Y-50614487D02*
G75*
G02*
X103521013Y-50274974I13J339487D01*
G01*
X105806689Y-52080546D02*
G75*
G02*
X105326545Y-52080546I-240072J240072D01*
G01*
X103511305Y-45923347D02*
G75*
G02*
X103855652Y-45578905I344395J47D01*
G01*
X104544361Y-45579000D02*
G75*
G03*
X104888800Y-45234639I39J344400D01*
G01*
X104200000Y-50954000D02*
G75*
G03*
X103860487Y-50614500I-339500J0D01*
G01*
X104539506Y-42579000D02*
G75*
G02*
X104200000Y-42239494I-6J339500D01*
G01*
X106765894Y-54000000D02*
G75*
G02*
X106285788Y-54000000I-240053J240054D01*
G01*
X107246000Y-54000000D02*
G75*
G03*
X106765894Y-54000000I-240053J-240054D01*
G01*
X103855652Y-46579000D02*
G75*
G02*
X103511400Y-46234653I48J344300D01*
G01*
X106033671Y-53747883D02*
G75*
G02*
X106033640Y-53267747I240029J240083D01*
G01*
X104544348Y-49579000D02*
G75*
G03*
X104888600Y-49234653I-48J344300D01*
G01*
X104888695Y-46923347D02*
G75*
G03*
X104544348Y-46578905I-344395J47D01*
G01*
X103511305Y-47923347D02*
G75*
G02*
X103855652Y-47578905I344395J47D01*
G01*
X104539506Y-43579000D02*
G75*
G03*
X104879000Y-43239494I-6J339500D01*
G01*
X103520974Y-49918513D02*
G75*
G02*
X103860487Y-49578974I339526J13D01*
G01*
X104879012Y-42918506D02*
G75*
G03*
X104539506Y-42578988I-339512J6D01*
G01*
X106513796Y-52787653D02*
G75*
G03*
X106513777Y-52307528I-240096J240053D01*
G01*
X103855652Y-44579000D02*
G75*
G02*
X103511400Y-44234653I48J344300D01*
G01*
X103855652Y-48579000D02*
G75*
G02*
X103511400Y-48234653I48J344300D01*
G01*
X104888722Y-44923361D02*
G75*
G03*
X104544361Y-44579078I-344322J-39D01*
G01*
X104544348Y-47579000D02*
G75*
G03*
X104888600Y-47234653I-48J344300D01*
G01*
X231140000Y-33302500D02*
X231140000Y-43814000D01*
X231140000Y-43814000D02*
X216954000Y-58000000D01*
X216954000Y-58000000D02*
X215000000Y-58000000D01*
D14*
X211500000Y-53775000D02*
X211750000Y-54025000D01*
X211500000Y-53500000D02*
X211500000Y-53775000D01*
X211000000Y-53775000D02*
X210775000Y-54000000D01*
X211000000Y-53500000D02*
X211000000Y-53775000D01*
X214500000Y-53000000D02*
X214500000Y-52325000D01*
X211000000Y-53000000D02*
X211000000Y-52646000D01*
X211000000Y-52646000D02*
X211273002Y-52372998D01*
X211273002Y-52372998D02*
X211550000Y-52372998D01*
X210500000Y-52575000D02*
X210500000Y-53000000D01*
X210725000Y-52350000D02*
X210500000Y-52575000D01*
X210725000Y-51975000D02*
X210725000Y-52350000D01*
X110140000Y-53500000D02*
X110140000Y-53854000D01*
X110286000Y-54000000D02*
X110600000Y-54000000D01*
X110140000Y-53854000D02*
X110286000Y-54000000D01*
X109640000Y-53960000D02*
X109625000Y-53975000D01*
X109640000Y-53500000D02*
X109640000Y-53960000D01*
X113140000Y-52235000D02*
X113150000Y-52225000D01*
X113140000Y-53000000D02*
X113140000Y-52235000D01*
X109640000Y-53000000D02*
X109640000Y-52658529D01*
X109973529Y-52325000D02*
X110225000Y-52325000D01*
X109640000Y-52658529D02*
X109973529Y-52325000D01*
X109140000Y-52310000D02*
X109150000Y-52300000D01*
X109140000Y-53000000D02*
X109140000Y-52310000D01*
M02*
